SplineFontDB: 3.0
FontName: FiraMath-SemiBold
FullName: Fira Math SemiBold
FamilyName: Fira Math
Weight: SemiBold
Copyright: 
Version: 
ItalicAngle: 0
UnderlinePosition: -100
UnderlineWidth: 50
Ascent: 800
Descent: 200
InvalidEm: 0
LayerCount: 2
Layer: 0 0 "Back" 1
Layer: 1 0 "Fore" 0
XUID: [1021 728 -285233693 24015]
OS2Version: 0
OS2_WeightWidthSlopeOnly: 0
OS2_UseTypoMetrics: 1
CreationTime: 1541747880
OS2TypoAscent: 0
OS2TypoAOffset: 1
OS2TypoDescent: 0
OS2TypoDOffset: 1
OS2TypoLinegap: 0
OS2WinAscent: 0
OS2WinAOffset: 1
OS2WinDescent: 0
OS2WinDOffset: 1
HheadAscent: 0
HheadAOffset: 1
HheadDescent: 0
HheadDOffset: 1
OS2Vendor: 'PfEd'
DEI: 91125
Encoding: UnicodeFull
UnicodeInterp: none
NameList: AGL For New Fonts
AntiAlias: 1
BeginChars: 1114112 931

StartChar: uni0021
Encoding: 33 33 1
Width: 241
Flags: W
LayerCount: 2
Fore
SplineSet
195 692 m 1
 178 249 l 1
 62 249 l 1
 43 692 l 1
 195 692 l 1
120 155 m 0
 168 155 206 116 206 70 c 0
 206 23 168 -16 120 -16 c 0
 73 -16 35 23 35 70 c 0
 35 116 73 155 120 155 c 0
EndSplineSet
EndChar

StartChar: uni0022
Encoding: 34 34 2
Width: 430
Flags: W
LayerCount: 2
Fore
SplineSet
69 417 m 1
 51 692 l 1
 183 692 l 1
 165 417 l 1
 69 417 l 1
265 417 m 1
 247 692 l 1
 379 692 l 1
 361 417 l 1
 265 417 l 1
EndSplineSet
EndChar

StartChar: uni0023
Encoding: 35 35 3
Width: 547
Flags: W
LayerCount: 2
Fore
SplineSet
532 442 m 1
 461 442 l 1
 435 244 l 1
 495 244 l 1
 495 148 l 1
 423 148 l 1
 403 0 l 1
 285 0 l 1
 305 148 l 1
 191 148 l 1
 171 0 l 1
 53 0 l 1
 73 148 l 1
 15 148 l 1
 15 244 l 1
 85 244 l 1
 111 442 l 1
 52 442 l 1
 52 538 l 1
 124 538 l 1
 142 674 l 1
 260 674 l 1
 242 538 l 1
 356 538 l 1
 374 674 l 1
 492 674 l 1
 474 538 l 1
 532 538 l 1
 532 442 l 1
317 244 m 1
 343 442 l 1
 229 442 l 1
 203 244 l 1
 317 244 l 1
EndSplineSet
EndChar

StartChar: uni0024
Encoding: 36 36 4
Width: 545
Flags: W
LayerCount: 2
Fore
SplineSet
516 196 m 0
 516 95 449 18 333 -4 c 1
 333 -160 l 1
 227 -160 l 1
 227 -10 l 1
 132 -3 63 33 13 83 c 1
 87 163 l 1
 133 121 187 96 255 96 c 0
 323 96 370 128 370 187 c 0
 370 240 343 263 242 294 c 0
 98 339 41 397 41 497 c 0
 41 597 117 667 227 682 c 1
 227 829 l 1
 333 829 l 1
 333 681 l 1
 401 671 452 643 497 601 c 1
 429 522 l 1
 384 562 337 579 283 579 c 0
 225 579 186 554 186 507 c 0
 186 461 211 442 319 408 c 0
 440 370 516 320 516 196 c 0
EndSplineSet
EndChar

StartChar: uni0025
Encoding: 37 37 5
Width: 851
Flags: W
LayerCount: 2
Fore
SplineSet
613 718 m 1
 703 661 l 1
 239 -38 l 1
 150 19 l 1
 613 718 l 1
207 687 m 0
 306 687 381 619 381 510 c 0
 381 401 306 333 207 333 c 0
 109 333 33 401 33 510 c 0
 33 619 109 687 207 687 c 0
207 600 m 0
 152 600 138 556 138 510 c 0
 138 466 152 420 207 420 c 0
 262 420 275 464 275 510 c 0
 275 554 262 600 207 600 c 0
644 338 m 0
 743 338 818 270 818 161 c 0
 818 53 743 -16 644 -16 c 0
 546 -16 469 53 469 161 c 0
 469 270 546 338 644 338 c 0
644 251 m 0
 589 251 575 207 575 161 c 0
 575 117 589 71 644 71 c 0
 699 71 712 116 712 161 c 0
 712 206 699 251 644 251 c 0
EndSplineSet
EndChar

StartChar: uni0026
Encoding: 38 38 6
Width: 753
Flags: W
LayerCount: 2
Fore
SplineSet
310 708 m 0
 439 708 517 640 517 550 c 0
 517 466 459 411 382 362 c 1
 528 226 l 1
 547 267 565 318 578 376 c 1
 699 340 l 1
 673 263 642 201 608 151 c 1
 727 45 l 1
 609 -16 l 1
 526 64 l 1
 465 10 393 -16 307 -16 c 0
 163 -16 65 60 65 177 c 0
 65 261 112 316 201 373 c 1
 134 438 105 479 105 544 c 0
 105 631 172 708 310 708 c 0
312 614 m 0
 268 614 242 586 242 545 c 0
 242 506 261 479 304 437 c 1
 354 469 381 501 381 545 c 0
 381 588 355 614 312 614 c 0
282 296 m 1
 235 263 213 229 213 184 c 0
 213 124 259 87 330 87 c 0
 379 87 418 103 453 133 c 1
 282 296 l 1
EndSplineSet
EndChar

StartChar: uni0027
Encoding: 39 39 7
Width: 234
Flags: W
LayerCount: 2
Fore
SplineSet
69 417 m 1
 51 692 l 1
 183 692 l 1
 165 417 l 1
 69 417 l 1
EndSplineSet
EndChar

StartChar: uni0028
Encoding: 40 40 8
Width: 324
Flags: W
LayerCount: 2
Fore
SplineSet
215 855 m 1
 306 794 l 1
 214 662 168 542 168 350 c 0
 168 158 214 38 306 -94 c 1
 215 -155 l 1
 115 -17 23 112 23 350 c 0
 23 588 115 717 215 855 c 1
EndSplineSet
EndChar

StartChar: uni0029
Encoding: 41 41 9
Width: 324
Flags: W
LayerCount: 2
Fore
SplineSet
109 855 m 1
 209 717 301 588 301 350 c 0
 301 112 209 -17 109 -155 c 1
 19 -94 l 1
 111 38 157 158 157 350 c 0
 157 542 111 662 19 794 c 1
 109 855 l 1
EndSplineSet
EndChar

StartChar: uni002A
Encoding: 42 42 10
Width: 447
Flags: W
LayerCount: 2
Fore
SplineSet
436 542 m 1
 292 516 l 1
 394 411 l 1
 293 337 l 1
 223 465 l 1
 155 336 l 1
 54 410 l 1
 154 515 l 1
 11 541 l 1
 49 657 l 1
 180 595 l 1
 161 741 l 1
 286 741 l 1
 267 593 l 1
 397 658 l 1
 436 542 l 1
EndSplineSet
EndChar

StartChar: uni002B
Encoding: 43 43 11
Width: 523
Flags: W
LayerCount: 2
Fore
SplineSet
321 542 m 1
 321 387 l 1
 471 387 l 1
 471 276 l 1
 321 276 l 1
 321 122 l 1
 201 122 l 1
 201 276 l 1
 52 276 l 1
 52 387 l 1
 201 387 l 1
 201 542 l 1
 321 542 l 1
EndSplineSet
EndChar

StartChar: uni002C
Encoding: 44 44 12
Width: 240
Flags: W
LayerCount: 2
Fore
SplineSet
119 155 m 0
 168 155 205 118 205 70 c 0
 205 42 196 16 177 -28 c 2
 112 -174 l 1
 29 -174 l 1
 71 0 l 1
 48 15 34 41 34 70 c 0
 34 118 71 155 119 155 c 0
EndSplineSet
EndChar

StartChar: uni002D
Encoding: 45 45 13
Width: 406
Flags: W
LayerCount: 2
Fore
SplineSet
48 257 m 1
 48 369 l 1
 358 369 l 1
 358 257 l 1
 48 257 l 1
EndSplineSet
EndChar

StartChar: uni002E
Encoding: 46 46 14
Width: 240
Flags: W
LayerCount: 2
Fore
SplineSet
119 155 m 0
 167 155 205 116 205 70 c 0
 205 23 167 -16 119 -16 c 0
 72 -16 34 23 34 70 c 0
 34 116 72 155 119 155 c 0
EndSplineSet
EndChar

StartChar: uni002F
Encoding: 47 47 15
Width: 520
Flags: W
LayerCount: 2
Fore
SplineSet
316 814 m 1
 439 786 l 1
 205 -110 l 1
 81 -81 l 1
 316 814 l 1
EndSplineSet
EndChar

StartChar: uni0030
Encoding: 48 48 16
Width: 579
Flags: W
LayerCount: 2
Fore
SplineSet
289 687 m 0
 452 687 537 562 537 336 c 0
 537 111 452 -16 289 -16 c 0
 127 -16 42 111 42 336 c 0
 42 562 127 687 289 687 c 0
289 581 m 0
 219 581 188 519 188 336 c 0
 188 153 219 91 289 91 c 0
 359 91 391 150 391 336 c 0
 391 523 359 581 289 581 c 0
EndSplineSet
EndChar

StartChar: uni0031
Encoding: 49 49 17
Width: 456
Flags: W
LayerCount: 2
Fore
SplineSet
367 674 m 1
 367 0 l 1
 228 0 l 1
 228 534 l 1
 80 443 l 1
 18 539 l 1
 242 674 l 1
 367 674 l 1
EndSplineSet
EndChar

StartChar: uni0032
Encoding: 50 50 18
Width: 512
Flags: W
LayerCount: 2
Fore
SplineSet
236 687 m 0
 380 687 461 601 461 496 c 0
 461 387 402 306 193 110 c 1
 476 110 l 1
 460 0 l 1
 31 0 l 1
 31 103 l 1
 260 332 315 394 315 484 c 0
 315 542 278 577 223 577 c 0
 172 577 137 555 96 506 c 1
 11 574 l 1
 65 645 139 687 236 687 c 0
EndSplineSet
EndChar

StartChar: uni0033
Encoding: 51 51 19
Width: 515
Flags: W
LayerCount: 2
Fore
SplineSet
235 687 m 0
 378 687 454 610 454 516 c 0
 454 433 403 379 322 357 c 1
 406 348 476 297 476 191 c 0
 476 77 386 -16 225 -16 c 0
 128 -16 53 20 1 84 c 1
 78 158 l 1
 123 113 165 94 217 94 c 0
 285 94 330 133 330 200 c 0
 330 275 288 302 214 302 c 2
 159 302 l 1
 176 402 l 1
 213 402 l 2
 274 402 316 436 316 497 c 0
 316 549 279 580 221 580 c 0
 170 580 129 561 88 522 c 1
 17 599 l 1
 78 657 150 687 235 687 c 0
EndSplineSet
EndChar

StartChar: uni0034
Encoding: 52 52 20
Width: 557
Flags: W
LayerCount: 2
Fore
SplineSet
534 258 m 1
 534 150 l 1
 455 150 l 1
 455 0 l 1
 317 0 l 1
 316 150 l 1
 31 150 l 1
 31 246 l 1
 225 689 l 1
 345 644 l 1
 178 258 l 1
 318 258 l 1
 333 423 l 1
 455 423 l 1
 455 258 l 1
 534 258 l 1
EndSplineSet
EndChar

StartChar: uni0035
Encoding: 53 53 21
Width: 527
Flags: W
LayerCount: 2
Fore
SplineSet
463 674 m 1
 446 571 l 1
 197 571 l 1
 197 416 l 1
 231 432 266 439 299 439 c 0
 410 439 492 359 492 221 c 0
 492 81 390 -16 234 -16 c 0
 136 -16 68 24 16 82 c 1
 96 157 l 1
 132 116 174 93 230 93 c 0
 302 93 346 138 346 221 c 0
 346 309 303 340 244 340 c 0
 215 340 191 333 160 316 c 1
 61 316 l 1
 61 674 l 1
 463 674 l 1
EndSplineSet
EndChar

StartChar: uni0036
Encoding: 54 54 22
Width: 556
Flags: W
LayerCount: 2
Fore
SplineSet
336 451 m 0
 444 451 528 373 528 230 c 0
 528 90 434 -16 291 -16 c 0
 115 -16 42 116 42 310 c 0
 42 537 150 687 326 687 c 0
 387 687 438 670 476 644 c 1
 424 557 l 1
 395 574 365 584 329 584 c 0
 248 584 196 510 189 382 c 1
 231 430 282 451 336 451 c 0
292 88 m 0
 355 88 385 143 385 228 c 0
 385 320 353 351 299 351 c 0
 257 351 219 327 189 289 c 1
 191 146 220 88 292 88 c 0
EndSplineSet
EndChar

StartChar: uni0037
Encoding: 55 55 23
Width: 462
Flags: W
LayerCount: 2
Fore
SplineSet
441 674 m 1
 441 576 l 1
 193 -15 l 1
 64 28 l 1
 294 566 l 1
 16 566 l 1
 16 674 l 1
 441 674 l 1
EndSplineSet
EndChar

StartChar: uni0038
Encoding: 56 56 24
Width: 574
Flags: W
LayerCount: 2
Fore
SplineSet
404 362 m 1
 496 319 540 261 540 182 c 0
 540 72 444 -16 284 -16 c 0
 127 -16 33 71 33 179 c 0
 33 261 81 314 160 349 c 1
 88 390 60 444 60 508 c 0
 60 618 160 687 287 687 c 0
 413 687 514 626 514 514 c 0
 514 454 480 402 404 362 c 1
288 590 m 0
 233 590 198 561 198 506 c 0
 198 454 230 429 290 405 c 2
 310 398 l 1
 360 430 376 462 376 507 c 0
 376 556 346 590 288 590 c 0
288 88 m 0
 359 88 397 128 397 183 c 0
 397 242 366 269 283 299 c 2
 251 310 l 1
 201 284 176 241 176 185 c 0
 176 125 219 88 288 88 c 0
EndSplineSet
EndChar

StartChar: uni0039
Encoding: 57 57 25
Width: 552
Flags: W
LayerCount: 2
Fore
SplineSet
273 687 m 0
 434 687 516 580 516 426 c 0
 516 150 390 35 111 -27 c 1
 81 74 l 1
 251 116 342 177 364 305 c 1
 332 264 287 236 222 236 c 0
 117 236 31 320 31 457 c 0
 31 598 138 687 273 687 c 0
263 338 m 0
 306 338 343 361 371 402 c 1
 373 536 344 584 273 584 c 0
 212 584 173 542 173 461 c 0
 173 370 213 338 263 338 c 0
EndSplineSet
EndChar

StartChar: uni003A
Encoding: 58 58 26
Width: 240
Flags: W
LayerCount: 2
Fore
SplineSet
119 506 m 0
 167 506 205 467 205 421 c 0
 205 374 167 335 119 335 c 0
 72 335 34 374 34 421 c 0
 34 467 72 506 119 506 c 0
119 155 m 0
 167 155 205 116 205 70 c 0
 205 23 167 -16 119 -16 c 0
 72 -16 34 23 34 70 c 0
 34 116 72 155 119 155 c 0
EndSplineSet
EndChar

StartChar: uni003B
Encoding: 59 59 27
Width: 240
Flags: W
LayerCount: 2
Fore
SplineSet
119 506 m 0
 167 506 205 467 205 421 c 0
 205 374 167 335 119 335 c 0
 72 335 34 374 34 421 c 0
 34 467 72 506 119 506 c 0
119 155 m 0
 168 155 205 118 205 70 c 0
 205 42 196 16 177 -28 c 2
 112 -174 l 1
 29 -174 l 1
 71 0 l 1
 48 15 34 41 34 70 c 0
 34 118 71 155 119 155 c 0
EndSplineSet
EndChar

StartChar: uni003C
Encoding: 60 60 28
Width: 514
Flags: W
LayerCount: 2
Fore
SplineSet
430 570 m 1
 476 467 l 1
 157 333 l 1
 476 201 l 1
 430 96 l 1
 38 269 l 1
 38 397 l 1
 430 570 l 1
EndSplineSet
EndChar

StartChar: uni003D
Encoding: 61 61 29
Width: 514
Flags: W
LayerCount: 2
Fore
SplineSet
52 379 m 1
 52 490 l 1
 463 490 l 1
 463 379 l 1
 52 379 l 1
52 173 m 1
 52 284 l 1
 463 284 l 1
 463 173 l 1
 52 173 l 1
EndSplineSet
EndChar

StartChar: uni003E
Encoding: 62 62 30
Width: 514
Flags: W
LayerCount: 2
Fore
SplineSet
84 570 m 1
 476 397 l 1
 476 269 l 1
 84 96 l 1
 38 201 l 1
 357 333 l 1
 38 467 l 1
 84 570 l 1
EndSplineSet
EndChar

StartChar: uni003F
Encoding: 63 63 31
Width: 476
Flags: W
LayerCount: 2
Fore
SplineSet
246 708 m 0
 387 708 458 630 458 544 c 0
 458 382 278 396 278 279 c 2
 278 249 l 1
 147 249 l 1
 147 284 l 2
 147 456 309 443 309 531 c 0
 309 572 280 595 232 595 c 0
 189 595 147 575 110 532 c 1
 18 603 l 1
 75 669 147 708 246 708 c 0
214 155 m 0
 262 155 300 116 300 70 c 0
 300 23 262 -16 214 -16 c 0
 166 -16 129 23 129 70 c 0
 129 116 166 155 214 155 c 0
EndSplineSet
EndChar

StartChar: uni0040
Encoding: 64 64 32
Width: 1020
Flags: W
LayerCount: 2
Fore
SplineSet
527 500 m 0
 582 500 641 486 696 456 c 1
 696 207 l 2
 696 123 712 97 748 97 c 0
 801 97 837 151 837 312 c 0
 837 490 736 602 526 602 c 0
 309 602 184 453 184 242 c 0
 184 27 304 -113 527 -113 c 0
 597 -113 670 -97 722 -78 c 1
 757 -178 l 1
 693 -202 612 -220 526 -220 c 0
 241 -220 53 -40 53 241 c 0
 53 511 250 708 526 708 c 0
 809 708 967 520 967 314 c 0
 967 137 887 5 753 5 c 0
 673 5 632 60 622 107 c 1
 598 53 552 9 478 9 c 0
 356 9 298 103 298 232 c 0
 298 399 384 500 527 500 c 0
496 100 m 0
 541 100 564 134 575 160 c 1
 575 398 l 1
 558 405 544 409 523 409 c 0
 463 409 427 360 427 232 c 0
 427 138 449 100 496 100 c 0
EndSplineSet
EndChar

StartChar: uni0041
Encoding: 65 65 33
Width: 586
Flags: W
LayerCount: 2
Fore
SplineSet
439 0 m 1
 400 155 l 1
 183 155 l 1
 144 0 l 1
 -9 0 l 1
 204 692 l 1
 383 692 l 1
 595 0 l 1
 439 0 l 1
210 264 m 1
 372 264 l 1
 291 583 l 1
 210 264 l 1
EndSplineSet
EndChar

StartChar: uni0042
Encoding: 66 66 34
Width: 615
Flags: W
LayerCount: 2
Fore
SplineSet
427 366 m 1
 505 351 584 314 584 201 c 0
 584 46 459 0 289 0 c 2
 73 0 l 1
 73 692 l 1
 262 692 l 2
 443 692 554 643 554 515 c 0
 554 428 491 381 427 366 c 1
276 586 m 2
 220 586 l 1
 220 411 l 1
 292 411 l 2
 362 411 404 440 404 502 c 0
 404 566 361 586 276 586 c 2
290 109 m 2
 372 109 431 125 431 207 c 0
 431 284 377 311 303 311 c 2
 220 311 l 1
 220 109 l 1
 290 109 l 2
EndSplineSet
EndChar

StartChar: uni0043
Encoding: 67 67 35
Width: 571
Flags: W
LayerCount: 2
Fore
SplineSet
346 708 m 0
 436 708 495 681 553 633 c 1
 480 548 l 1
 441 580 401 597 354 597 c 0
 261 597 193 527 193 347 c 0
 193 173 259 100 355 100 c 0
 412 100 453 125 493 156 c 1
 561 71 l 1
 517 26 444 -16 349 -16 c 0
 164 -16 38 111 38 347 c 0
 38 580 172 708 346 708 c 0
EndSplineSet
EndChar

StartChar: uni0044
Encoding: 68 68 36
Width: 650
Flags: W
LayerCount: 2
Fore
SplineSet
254 692 m 2
 437 692 611 635 611 349 c 0
 611 70 441 0 271 0 c 2
 73 0 l 1
 73 692 l 1
 254 692 l 2
277 584 m 2
 220 584 l 1
 220 108 l 1
 280 108 l 2
 381 108 458 155 458 349 c 0
 458 547 377 584 277 584 c 2
EndSplineSet
EndChar

StartChar: uni0045
Encoding: 69 69 37
Width: 528
Flags: W
LayerCount: 2
Fore
SplineSet
486 692 m 1
 470 585 l 1
 220 585 l 1
 220 405 l 1
 438 405 l 1
 438 299 l 1
 220 299 l 1
 220 108 l 1
 488 108 l 1
 488 0 l 1
 73 0 l 1
 73 692 l 1
 486 692 l 1
EndSplineSet
EndChar

StartChar: uni0046
Encoding: 70 70 38
Width: 488
Flags: W
LayerCount: 2
Fore
SplineSet
73 0 m 1
 73 692 l 1
 475 692 l 1
 459 585 l 1
 220 585 l 1
 220 389 l 1
 428 389 l 1
 428 282 l 1
 220 282 l 1
 220 0 l 1
 73 0 l 1
EndSplineSet
EndChar

StartChar: uni0047
Encoding: 71 71 39
Width: 641
Flags: W
LayerCount: 2
Fore
SplineSet
362 708 m 0
 461 708 530 674 588 625 c 1
 511 545 l 1
 464 581 425 599 368 599 c 0
 270 599 192 526 192 346 c 0
 192 161 244 94 346 94 c 0
 383 94 418 102 449 119 c 1
 449 288 l 1
 352 288 l 1
 337 395 l 1
 592 395 l 1
 592 54 l 1
 522 11 437 -16 349 -16 c 0
 145 -16 38 109 38 347 c 0
 38 581 183 708 362 708 c 0
EndSplineSet
EndChar

StartChar: uni0048
Encoding: 72 72 40
Width: 669
Flags: W
LayerCount: 2
Fore
SplineSet
449 0 m 1
 449 303 l 1
 220 303 l 1
 220 0 l 1
 73 0 l 1
 73 692 l 1
 220 692 l 1
 220 419 l 1
 449 419 l 1
 449 692 l 1
 596 692 l 1
 596 0 l 1
 449 0 l 1
EndSplineSet
EndChar

StartChar: uni0049
Encoding: 73 73 41
Width: 294
Flags: W
LayerCount: 2
Fore
SplineSet
220 692 m 1
 220 0 l 1
 73 0 l 1
 73 692 l 1
 220 692 l 1
EndSplineSet
EndChar

StartChar: uni004A
Encoding: 74 74 42
Width: 314
Flags: W
LayerCount: 2
Fore
SplineSet
245 692 m 1
 245 103 l 2
 245 -65 148 -124 32 -162 c 1
 -7 -57 l 1
 83 -22 98 24 98 108 c 2
 98 692 l 1
 245 692 l 1
EndSplineSet
EndChar

StartChar: uni004B
Encoding: 75 75 43
Width: 622
Flags: W
LayerCount: 2
Fore
SplineSet
220 692 m 1
 220 0 l 1
 73 0 l 1
 73 692 l 1
 220 692 l 1
613 692 m 1
 382 380 l 1
 631 0 l 1
 459 0 l 1
 226 369 l 1
 456 692 l 1
 613 692 l 1
EndSplineSet
EndChar

StartChar: uni004C
Encoding: 76 76 44
Width: 509
Flags: W
LayerCount: 2
Fore
SplineSet
220 692 m 1
 220 118 l 1
 494 118 l 1
 478 0 l 1
 73 0 l 1
 73 692 l 1
 220 692 l 1
EndSplineSet
EndChar

StartChar: uni004D
Encoding: 77 77 45
Width: 784
Flags: W
LayerCount: 2
Fore
SplineSet
691 692 m 1
 744 0 l 1
 600 0 l 1
 585 281 l 2
 579 380 576 484 579 563 c 1
 462 74 l 1
 323 74 l 1
 198 564 l 1
 204 467 203 375 198 278 c 2
 183 0 l 1
 40 0 l 1
 94 692 l 1
 281 692 l 1
 395 215 l 1
 502 692 l 1
 691 692 l 1
EndSplineSet
EndChar

StartChar: uni004E
Encoding: 78 78 46
Width: 668
Flags: W
LayerCount: 2
Fore
SplineSet
595 692 m 1
 595 0 l 1
 406 0 l 1
 186 549 l 1
 194 487 206 397 206 269 c 2
 206 0 l 1
 73 0 l 1
 73 692 l 1
 258 692 l 1
 482 142 l 1
 475 189 462 285 462 388 c 2
 462 692 l 1
 595 692 l 1
EndSplineSet
EndChar

StartChar: uni004F
Encoding: 79 79 47
Width: 691
Flags: W
LayerCount: 2
Fore
SplineSet
346 708 m 0
 536 708 653 578 653 346 c 0
 653 119 536 -16 346 -16 c 0
 156 -16 38 115 38 346 c 0
 38 572 156 708 346 708 c 0
346 598 m 0
 248 598 193 527 193 346 c 0
 193 165 250 94 346 94 c 0
 445 94 498 165 498 346 c 0
 498 527 445 598 346 598 c 0
EndSplineSet
EndChar

StartChar: uni0050
Encoding: 80 80 48
Width: 595
Flags: W
LayerCount: 2
Fore
SplineSet
287 692 m 2
 463 692 571 620 571 469 c 0
 571 309 457 236 299 236 c 2
 220 236 l 1
 220 0 l 1
 73 0 l 1
 73 692 l 1
 287 692 l 2
287 344 m 2
 368 344 419 375 419 469 c 0
 419 550 371 586 285 586 c 2
 220 586 l 1
 220 344 l 1
 287 344 l 2
EndSplineSet
EndChar

StartChar: uni0051
Encoding: 81 81 49
Width: 691
Flags: W
LayerCount: 2
Fore
SplineSet
491 43 m 1
 578 43 638 19 691 -19 c 1
 602 -136 l 1
 534 -65 466 -13 337 -13 c 0
 156 -13 38 115 38 346 c 0
 38 572 156 708 346 708 c 0
 536 708 653 578 653 346 c 0
 653 178 579 92 491 43 c 1
193 346 m 0
 193 165 250 94 346 94 c 0
 445 94 498 165 498 346 c 0
 498 527 445 598 346 598 c 0
 248 598 193 527 193 346 c 0
EndSplineSet
EndChar

StartChar: uni0052
Encoding: 82 82 50
Width: 614
Flags: W
LayerCount: 2
Fore
SplineSet
443 0 m 1
 295 271 l 1
 220 271 l 1
 220 0 l 1
 73 0 l 1
 73 692 l 1
 289 692 l 2
 474 692 568 625 568 485 c 0
 568 393 523 338 431 298 c 1
 610 0 l 1
 443 0 l 1
220 587 m 1
 220 375 l 1
 297 375 l 2
 374 375 416 407 416 485 c 0
 416 556 375 587 286 587 c 2
 220 587 l 1
EndSplineSet
EndChar

StartChar: uni0053
Encoding: 83 83 51
Width: 565
Flags: W
LayerCount: 2
Fore
SplineSet
284 708 m 0
 387 708 457 677 517 621 c 1
 447 540 l 1
 398 580 350 598 294 598 c 0
 234 598 193 572 193 523 c 0
 193 475 219 455 332 420 c 0
 457 380 537 328 537 200 c 0
 537 73 437 -16 269 -16 c 0
 154 -16 70 25 13 81 c 1
 88 164 l 1
 139 121 194 95 265 95 c 0
 336 95 384 129 384 190 c 0
 384 245 357 269 252 301 c 0
 102 348 42 408 42 513 c 0
 42 631 144 708 284 708 c 0
EndSplineSet
EndChar

StartChar: uni0054
Encoding: 84 84 52
Width: 534
Flags: W
LayerCount: 2
Fore
SplineSet
532 692 m 1
 516 577 l 1
 341 577 l 1
 341 0 l 1
 194 0 l 1
 194 577 l 1
 10 577 l 1
 10 692 l 1
 532 692 l 1
EndSplineSet
EndChar

StartChar: uni0055
Encoding: 85 85 53
Width: 654
Flags: W
LayerCount: 2
Fore
SplineSet
590 692 m 1
 590 228 l 2
 590 89 501 -16 326 -16 c 0
 151 -16 63 84 63 228 c 2
 63 692 l 1
 210 692 l 1
 210 235 l 2
 210 142 246 96 326 96 c 0
 407 96 443 142 443 235 c 2
 443 692 l 1
 590 692 l 1
EndSplineSet
EndChar

StartChar: uni0056
Encoding: 86 86 54
Width: 567
Flags: W
LayerCount: 2
Fore
SplineSet
575 692 m 1
 376 0 l 1
 197 0 l 1
 -9 692 l 1
 148 692 l 1
 289 122 l 1
 425 692 l 1
 575 692 l 1
EndSplineSet
EndChar

StartChar: uni0057
Encoding: 87 87 55
Width: 842
Flags: W
LayerCount: 2
Fore
SplineSet
828 692 m 1
 707 0 l 1
 516 0 l 1
 420 541 l 1
 319 0 l 1
 133 0 l 1
 13 692 l 1
 160 692 l 1
 239 114 l 1
 344 692 l 1
 499 692 l 1
 600 114 l 1
 689 692 l 1
 828 692 l 1
EndSplineSet
EndChar

StartChar: uni0058
Encoding: 88 88 56
Width: 571
Flags: W
LayerCount: 2
Fore
SplineSet
371 373 m 1
 573 0 l 1
 411 0 l 1
 282 274 l 1
 155 0 l 1
 -2 0 l 1
 195 368 l 1
 14 692 l 1
 175 692 l 1
 284 461 l 1
 398 692 l 1
 554 692 l 1
 371 373 l 1
EndSplineSet
EndChar

StartChar: uni0059
Encoding: 89 89 57
Width: 583
Flags: W
LayerCount: 2
Fore
SplineSet
587 692 m 1
 365 261 l 1
 365 0 l 1
 218 0 l 1
 218 260 l 1
 -4 692 l 1
 157 692 l 1
 295 378 l 1
 432 692 l 1
 587 692 l 1
EndSplineSet
EndChar

StartChar: uni005A
Encoding: 90 90 58
Width: 539
Flags: W
LayerCount: 2
Fore
SplineSet
503 692 m 1
 503 579 l 1
 193 119 l 1
 508 119 l 1
 492 0 l 1
 21 0 l 1
 21 111 l 1
 337 576 l 1
 53 576 l 1
 53 692 l 1
 503 692 l 1
EndSplineSet
EndChar

StartChar: uni005B
Encoding: 91 91 59
Width: 323
Flags: W
LayerCount: 2
Fore
SplineSet
292 821 m 1
 292 713 l 1
 176 713 l 1
 176 -14 l 1
 292 -14 l 1
 292 -121 l 1
 41 -121 l 1
 41 821 l 1
 292 821 l 1
EndSplineSet
EndChar

StartChar: uni005C
Encoding: 92 92 60
Width: 520
Flags: W
LayerCount: 2
Fore
SplineSet
204 814 m 1
 439 -81 l 1
 315 -110 l 1
 81 786 l 1
 204 814 l 1
EndSplineSet
EndChar

StartChar: uni005D
Encoding: 93 93 61
Width: 323
Flags: W
LayerCount: 2
Fore
SplineSet
282 821 m 1
 282 -121 l 1
 31 -121 l 1
 31 -14 l 1
 147 -14 l 1
 147 714 l 1
 31 714 l 1
 31 821 l 1
 282 821 l 1
EndSplineSet
EndChar

StartChar: uni005E
Encoding: 94 94 62
Width: 554
Flags: W
LayerCount: 2
Fore
SplineSet
342 843 m 1
 531 527 l 1
 390 527 l 1
 276 734 l 1
 166 527 l 1
 23 527 l 1
 212 843 l 1
 342 843 l 1
EndSplineSet
EndChar

StartChar: uni005F
Encoding: 95 95 63
Width: 520
Flags: W
LayerCount: 2
Fore
SplineSet
11 -164 m 1
 11 -51 l 1
 509 -51 l 1
 509 -164 l 1
 11 -164 l 1
EndSplineSet
EndChar

StartChar: uni0060
Encoding: 96 96 64
Width: 330
Flags: W
LayerCount: 2
Fore
SplineSet
87 827 m 1
 300 699 l 1
 260 626 l 1
 30 718 l 1
 87 827 l 1
EndSplineSet
EndChar

StartChar: uni0061
Encoding: 97 97 65
Width: 545
Flags: W
LayerCount: 2
Fore
SplineSet
473 147 m 2
 473 104 486 89 511 80 c 1
 481 -14 l 1
 421 -8 381 11 359 63 c 1
 321 6 263 -16 200 -16 c 0
 94 -16 28 52 28 148 c 0
 28 264 116 327 272 327 c 2
 333 327 l 1
 333 353 l 2
 333 419 305 440 239 440 c 0
 204 440 152 430 99 412 c 1
 66 507 l 1
 132 533 202 546 262 546 c 0
 409 546 473 481 473 361 c 2
 473 147 l 2
240 86 m 0
 280 86 312 107 333 145 c 1
 333 246 l 1
 287 246 l 2
 209 246 171 218 171 160 c 0
 171 113 195 86 240 86 c 0
EndSplineSet
EndChar

StartChar: uni0062
Encoding: 98 98 66
Width: 590
Flags: W
LayerCount: 2
Fore
SplineSet
355 546 m 0
 480 546 552 442 552 265 c 0
 552 101 473 -16 341 -16 c 0
 283 -16 235 10 202 53 c 1
 194 0 l 1
 68 0 l 1
 68 741 l 1
 210 757 l 1
 210 473 l 1
 243 518 295 546 355 546 c 0
301 89 m 0
 362 89 404 136 404 265 c 0
 404 403 364 441 308 441 c 0
 266 441 234 413 210 372 c 1
 210 146 l 1
 232 110 264 89 301 89 c 0
EndSplineSet
EndChar

StartChar: uni0063
Encoding: 99 99 67
Width: 478
Flags: W
LayerCount: 2
Fore
SplineSet
291 546 m 0
 362 546 417 525 467 482 c 1
 405 398 l 1
 371 424 340 436 301 436 c 0
 230 436 188 385 188 262 c 0
 188 139 233 98 300 98 c 0
 339 98 366 110 405 135 c 1
 467 46 l 1
 419 7 363 -16 293 -16 c 0
 135 -16 38 92 38 261 c 0
 38 429 136 546 291 546 c 0
EndSplineSet
EndChar

StartChar: uni0064
Encoding: 100 100 68
Width: 593
Flags: W
LayerCount: 2
Fore
SplineSet
382 757 m 1
 524 741 l 1
 524 0 l 1
 399 0 l 1
 391 65 l 1
 359 19 310 -16 239 -16 c 0
 106 -16 38 96 38 265 c 0
 38 429 122 546 253 546 c 0
 307 546 350 524 382 493 c 1
 382 757 l 1
281 90 m 0
 324 90 354 112 382 154 c 1
 382 391 l 1
 356 422 329 441 290 441 c 0
 228 441 186 389 186 265 c 0
 186 132 224 90 281 90 c 0
EndSplineSet
EndChar

StartChar: uni0065
Encoding: 101 101 69
Width: 552
Flags: W
LayerCount: 2
Fore
SplineSet
518 277 m 0
 518 259 516 237 515 222 c 1
 184 222 l 1
 194 120 242 90 310 90 c 0
 355 90 393 104 439 136 c 1
 498 56 l 1
 446 14 380 -16 297 -16 c 0
 127 -16 38 96 38 262 c 0
 38 422 124 546 279 546 c 0
 429 546 518 446 518 277 c 0
377 311 m 1
 377 317 l 2
 377 397 350 449 282 449 c 0
 226 449 192 412 184 311 c 1
 377 311 l 1
EndSplineSet
EndChar

StartChar: uni0066
Encoding: 102 102 70
Width: 351
Flags: W
LayerCount: 2
Fore
SplineSet
297 651 m 0
 249 651 230 629 230 579 c 2
 230 530 l 1
 356 530 l 1
 340 430 l 1
 230 430 l 1
 230 0 l 1
 88 0 l 1
 88 430 l 1
 4 430 l 1
 4 530 l 1
 88 530 l 1
 88 583 l 2
 88 681 153 757 282 757 c 0
 336 757 383 744 422 725 c 1
 383 631 l 1
 351 646 322 651 297 651 c 0
EndSplineSet
EndChar

StartChar: uni0067
Encoding: 103 103 71
Width: 544
Flags: W
LayerCount: 2
Fore
SplineSet
509 610 m 1
 544 501 l 1
 505 486 455 481 391 481 c 1
 456 452 489 412 489 345 c 0
 489 242 406 167 271 167 c 0
 248 167 228 169 209 174 c 1
 197 166 189 153 189 139 c 0
 189 121 198 104 250 104 c 2
 331 104 l 2
 451 104 528 40 528 -48 c 0
 528 -155 435 -220 258 -220 c 0
 64 -220 11 -157 11 -51 c 1
 138 -51 l 1
 138 -101 160 -123 261 -123 c 0
 359 -123 385 -96 385 -58 c 0
 385 -22 358 0 302 0 c 2
 224 0 l 2
 113 0 67 48 67 104 c 0
 67 142 91 179 129 203 c 1
 63 239 35 286 35 354 c 0
 35 471 128 546 261 546 c 0
 383 543 445 574 509 610 c 1
264 451 m 0
 210 451 177 414 177 356 c 0
 177 295 211 259 265 259 c 0
 322 259 352 293 352 358 c 0
 352 421 323 451 264 451 c 0
EndSplineSet
EndChar

StartChar: uni0068
Encoding: 104 104 72
Width: 575
Flags: W
LayerCount: 2
Fore
SplineSet
364 546 m 0
 457 546 513 486 513 386 c 2
 513 0 l 1
 371 0 l 1
 371 362 l 2
 371 423 347 440 312 440 c 0
 272 440 240 413 210 367 c 1
 210 0 l 1
 68 0 l 1
 68 741 l 1
 210 756 l 1
 210 469 l 1
 251 519 301 546 364 546 c 0
EndSplineSet
EndChar

StartChar: uni0069
Encoding: 105 105 73
Width: 279
Flags: W
LayerCount: 2
Fore
SplineSet
139 803 m 0
 190 803 226 767 226 720 c 0
 226 673 190 637 139 637 c 0
 88 637 53 673 53 720 c 0
 53 767 88 803 139 803 c 0
210 530 m 1
 210 0 l 1
 68 0 l 1
 68 530 l 1
 210 530 l 1
EndSplineSet
EndChar

StartChar: uni006A
Encoding: 106 106 74
Width: 279
Flags: W
LayerCount: 2
Fore
SplineSet
140 803 m 0
 191 803 227 767 227 720 c 0
 227 673 191 637 140 637 c 0
 89 637 54 673 54 720 c 0
 54 767 89 803 140 803 c 0
211 530 m 1
 211 53 l 2
 211 -114 130 -172 9 -219 c 1
 -38 -116 l 1
 30 -84 69 -56 69 44 c 2
 69 530 l 1
 211 530 l 1
EndSplineSet
EndChar

StartChar: uni006B
Encoding: 107 107 75
Width: 541
Flags: W
LayerCount: 2
Fore
SplineSet
210 757 m 1
 210 0 l 1
 68 0 l 1
 68 741 l 1
 210 757 l 1
532 530 m 1
 363 297 l 1
 548 0 l 1
 386 0 l 1
 215 290 l 1
 385 530 l 1
 532 530 l 1
EndSplineSet
EndChar

StartChar: uni006C
Encoding: 108 108 76
Width: 298
Flags: W
LayerCount: 2
Fore
SplineSet
199 -16 m 0
 113 -16 62 36 62 128 c 2
 62 741 l 1
 204 757 l 1
 204 132 l 2
 204 109 212 97 233 97 c 0
 244 97 253 99 261 103 c 1
 290 2 l 1
 267 -8 235 -16 199 -16 c 0
EndSplineSet
EndChar

StartChar: uni006D
Encoding: 109 109 77
Width: 843
Flags: W
LayerCount: 2
Fore
SplineSet
641 546 m 0
 724 546 781 486 781 386 c 2
 781 0 l 1
 639 0 l 1
 639 362 l 2
 639 423 615 440 587 440 c 0
 548 440 522 413 496 366 c 1
 496 0 l 1
 354 0 l 1
 354 362 l 2
 354 423 330 440 302 440 c 0
 263 440 236 413 210 366 c 1
 210 0 l 1
 68 0 l 1
 68 530 l 1
 192 530 l 1
 202 463 l 1
 241 516 290 546 356 546 c 0
 416 546 462 515 483 459 c 1
 524 515 573 546 641 546 c 0
EndSplineSet
EndChar

StartChar: uni006E
Encoding: 110 110 78
Width: 575
Flags: W
LayerCount: 2
Fore
SplineSet
364 546 m 0
 457 546 513 486 513 386 c 2
 513 0 l 1
 371 0 l 1
 371 362 l 2
 371 423 348 440 313 440 c 0
 272 440 240 413 210 366 c 1
 210 0 l 1
 68 0 l 1
 68 530 l 1
 192 530 l 1
 203 463 l 1
 245 516 297 546 364 546 c 0
EndSplineSet
EndChar

StartChar: uni006F
Encoding: 111 111 79
Width: 584
Flags: W
LayerCount: 2
Fore
SplineSet
293 546 m 0
 451 546 546 441 546 265 c 0
 546 97 451 -16 292 -16 c 0
 134 -16 38 89 38 265 c 0
 38 434 133 546 293 546 c 0
293 440 m 0
 222 440 186 386 186 265 c 0
 186 143 222 90 292 90 c 0
 362 90 398 144 398 265 c 0
 398 387 362 440 293 440 c 0
EndSplineSet
EndChar

StartChar: uni0070
Encoding: 112 112 80
Width: 590
Flags: W
LayerCount: 2
Fore
SplineSet
354 546 m 0
 492 546 552 437 552 266 c 0
 552 104 474 -16 342 -16 c 0
 288 -16 243 3 210 41 c 1
 210 -204 l 1
 68 -220 l 1
 68 530 l 1
 193 530 l 1
 201 469 l 1
 243 523 300 546 354 546 c 0
300 90 m 0
 365 90 404 141 404 265 c 0
 404 398 369 441 311 441 c 0
 269 441 235 413 210 372 c 1
 210 142 l 1
 233 107 263 90 300 90 c 0
EndSplineSet
EndChar

StartChar: uni0071
Encoding: 113 113 81
Width: 593
Flags: W
LayerCount: 2
Fore
SplineSet
401 530 m 1
 524 530 l 1
 524 -220 l 1
 382 -204 l 1
 382 54 l 1
 350 13 303 -16 239 -16 c 0
 106 -16 38 96 38 265 c 0
 38 429 121 546 253 546 c 0
 311 546 356 522 393 481 c 1
 401 530 l 1
281 90 m 0
 324 90 354 112 382 154 c 1
 382 391 l 1
 356 422 330 441 291 441 c 0
 228 441 186 389 186 265 c 0
 186 132 224 90 281 90 c 0
EndSplineSet
EndChar

StartChar: uni0072
Encoding: 114 114 82
Width: 396
Flags: W
LayerCount: 2
Fore
SplineSet
342 545 m 0
 361 545 378 542 395 537 c 1
 372 400 l 1
 355 404 342 407 324 407 c 0
 259 407 228 358 210 271 c 1
 210 0 l 1
 68 0 l 1
 68 530 l 1
 192 530 l 1
 204 427 l 1
 229 501 281 545 342 545 c 0
EndSplineSet
EndChar

StartChar: uni0073
Encoding: 115 115 83
Width: 477
Flags: W
LayerCount: 2
Fore
SplineSet
246 546 m 0
 323 546 388 522 438 482 c 1
 384 401 l 1
 341 428 298 443 252 443 c 0
 205 443 179 424 179 395 c 0
 179 364 197 350 290 323 c 0
 396 294 456 250 456 156 c 0
 456 46 353 -16 227 -16 c 0
 135 -16 61 15 11 61 c 1
 81 139 l 1
 121 108 170 87 223 87 c 0
 276 87 310 109 310 145 c 0
 310 185 291 198 193 225 c 0
 86 255 36 308 36 388 c 0
 36 478 118 546 246 546 c 0
EndSplineSet
EndChar

StartChar: uni0074
Encoding: 116 116 84
Width: 380
Flags: W
LayerCount: 2
Fore
SplineSet
338 115 m 1
 387 25 l 1
 348 -2 296 -16 249 -16 c 0
 139 -15 83 48 83 166 c 2
 83 430 l 1
 4 430 l 1
 4 530 l 1
 83 530 l 1
 83 646 l 1
 225 663 l 1
 225 530 l 1
 347 530 l 1
 333 430 l 1
 225 430 l 1
 225 169 l 2
 225 117 242 97 278 97 c 0
 297 97 316 103 338 115 c 1
EndSplineSet
EndChar

StartChar: uni0075
Encoding: 117 117 85
Width: 570
Flags: W
LayerCount: 2
Fore
SplineSet
501 530 m 1
 501 0 l 1
 378 0 l 1
 371 71 l 1
 332 12 281 -16 210 -16 c 0
 112 -16 62 47 62 149 c 2
 62 530 l 1
 204 530 l 1
 204 167 l 2
 204 109 223 90 262 90 c 0
 301 90 334 116 359 159 c 1
 359 530 l 1
 501 530 l 1
EndSplineSet
EndChar

StartChar: uni0076
Encoding: 118 118 86
Width: 508
Flags: W
LayerCount: 2
Fore
SplineSet
510 530 m 1
 340 0 l 1
 171 0 l 1
 -2 530 l 1
 152 530 l 1
 257 111 l 1
 364 530 l 1
 510 530 l 1
EndSplineSet
EndChar

StartChar: uni0077
Encoding: 119 119 87
Width: 741
Flags: W
LayerCount: 2
Fore
SplineSet
733 530 m 1
 620 0 l 1
 447 0 l 1
 371 403 l 1
 295 0 l 1
 124 0 l 1
 8 530 l 1
 151 530 l 1
 216 105 l 1
 304 530 l 1
 446 530 l 1
 525 105 l 1
 597 530 l 1
 733 530 l 1
EndSplineSet
EndChar

StartChar: uni0078
Encoding: 120 120 88
Width: 505
Flags: W
LayerCount: 2
Fore
SplineSet
338 284 m 1
 512 0 l 1
 349 0 l 1
 248 205 l 1
 149 0 l 1
 -7 0 l 1
 167 279 l 1
 11 530 l 1
 171 530 l 1
 254 354 l 1
 335 530 l 1
 487 530 l 1
 338 284 l 1
EndSplineSet
EndChar

StartChar: uni0079
Encoding: 121 121 89
Width: 512
Flags: W
LayerCount: 2
Fore
SplineSet
514 530 m 1
 343 -1 l 2
 302 -130 219 -209 57 -220 c 1
 42 -118 l 1
 147 -104 183 -72 212 0 c 1
 163 0 l 1
 -2 530 l 1
 149 530 l 1
 255 92 l 1
 367 530 l 1
 514 530 l 1
EndSplineSet
EndChar

StartChar: uni007A
Encoding: 122 122 90
Width: 449
Flags: W
LayerCount: 2
Fore
SplineSet
428 530 m 1
 428 429 l 1
 179 110 l 1
 433 110 l 1
 419 0 l 1
 16 0 l 1
 16 102 l 1
 265 421 l 1
 37 421 l 1
 37 530 l 1
 428 530 l 1
EndSplineSet
EndChar

StartChar: uni007B
Encoding: 123 123 91
Width: 323
Flags: W
LayerCount: 2
Fore
SplineSet
293 839 m 1
 293 738 l 1
 231 738 212 722 212 677 c 2
 212 478 l 2
 212 393 177 365 115 349 c 1
 176 334 213 307 213 222 c 2
 213 23 l 2
 213 -22 232 -38 293 -38 c 1
 293 -139 l 1
 124 -139 79 -85 79 22 c 2
 79 211 l 2
 79 269 65 291 13 291 c 1
 13 408 l 1
 65 408 79 431 79 489 c 2
 79 678 l 2
 79 786 124 839 293 839 c 1
EndSplineSet
EndChar

StartChar: uni007C
Encoding: 124 124 92
Width: 383
Flags: W
LayerCount: 2
Fore
SplineSet
257 809 m 1
 257 -104 l 1
 126 -104 l 1
 126 809 l 1
 257 809 l 1
EndSplineSet
EndChar

StartChar: uni007D
Encoding: 125 125 93
Width: 323
Flags: W
LayerCount: 2
Fore
SplineSet
31 839 m 1
 200 839 244 786 244 678 c 2
 244 489 l 2
 244 431 258 408 310 408 c 1
 310 291 l 1
 258 291 244 269 244 211 c 2
 244 22 l 2
 244 -85 200 -139 31 -139 c 1
 31 -38 l 1
 92 -38 111 -22 111 23 c 2
 111 222 l 2
 111 307 148 334 208 349 c 1
 147 365 111 393 111 478 c 2
 111 677 l 2
 111 722 92 738 31 738 c 1
 31 839 l 1
EndSplineSet
EndChar

StartChar: uni007E
Encoding: 126 126 94
Width: 508
Flags: W
LayerCount: 2
Fore
SplineSet
334 236 m 0
 247 236 215 297 168 297 c 0
 133 297 115 271 98 245 c 1
 21 284 l 1
 49 341 94 404 176 404 c 0
 261 404 293 343 342 343 c 0
 375 343 393 366 411 391 c 1
 487 353 l 1
 459 296 415 236 334 236 c 0
EndSplineSet
EndChar

StartChar: uni00A1
Encoding: 161 161 96
Width: 241
Flags: W
LayerCount: 2
Fore
SplineSet
121 506 m 0
 168 506 206 467 206 420 c 0
 206 374 168 335 121 335 c 0
 73 335 35 374 35 420 c 0
 35 467 73 506 121 506 c 0
179 238 m 1
 197 -208 l 1
 45 -208 l 1
 63 238 l 1
 179 238 l 1
EndSplineSet
EndChar

StartChar: uni00A2
Encoding: 162 162 97
Width: 478
Flags: W
LayerCount: 2
Fore
SplineSet
405 135 m 1
 467 46 l 1
 431 17 390 -4 342 -12 c 1
 342 -159 l 1
 236 -159 l 1
 236 -11 l 1
 112 12 38 113 38 261 c 0
 38 409 114 517 237 541 c 1
 237 690 l 1
 342 690 l 1
 342 542 l 1
 390 534 430 514 467 482 c 1
 405 398 l 1
 371 424 340 436 301 436 c 0
 230 436 188 385 188 262 c 0
 188 139 233 98 300 98 c 0
 339 98 366 110 405 135 c 1
EndSplineSet
EndChar

StartChar: uni00A3
Encoding: 163 163 98
Width: 535
Flags: W
LayerCount: 2
Fore
SplineSet
253 232 m 2
 253 174 242 138 190 110 c 1
 500 110 l 1
 484 0 l 1
 31 0 l 1
 31 104 l 1
 105 127 114 158 114 226 c 2
 114 314 l 1
 46 314 l 1
 46 390 l 1
 114 390 l 1
 114 485 l 2
 114 601 184 687 321 687 c 0
 408 687 470 656 519 592 c 1
 431 527 l 1
 403 565 374 579 334 579 c 0
 280 579 253 545 253 484 c 2
 253 390 l 1
 444 390 l 1
 444 314 l 1
 253 314 l 1
 253 232 l 2
EndSplineSet
EndChar

StartChar: uni00A4
Encoding: 164 164 99
Width: 560
Flags: W
LayerCount: 2
Fore
SplineSet
499 341 m 0
 499 297 487 255 465 221 c 1
 540 147 l 1
 474 80 l 1
 397 156 l 1
 364 137 324 126 279 126 c 0
 236 126 196 137 163 157 c 1
 85 80 l 1
 20 147 l 1
 97 223 l 1
 75 257 63 297 63 341 c 0
 63 385 75 425 96 459 c 1
 20 537 l 1
 86 603 l 1
 164 525 l 1
 197 545 236 556 279 556 c 0
 324 556 364 545 398 525 c 1
 475 603 l 1
 540 537 l 1
 465 461 l 1
 487 427 499 386 499 341 c 0
281 225 m 0
 350 225 385 268 385 342 c 0
 385 415 350 458 281 458 c 0
 214 458 178 415 178 342 c 0
 178 268 214 225 281 225 c 0
EndSplineSet
EndChar

StartChar: uni00A5
Encoding: 165 165 100
Width: 561
Flags: W
LayerCount: 2
Fore
SplineSet
565 674 m 1
 385 351 l 1
 486 351 l 1
 486 273 l 1
 352 273 l 1
 352 197 l 1
 486 197 l 1
 486 120 l 1
 352 120 l 1
 352 0 l 1
 210 0 l 1
 210 120 l 1
 76 120 l 1
 76 197 l 1
 210 197 l 1
 210 273 l 1
 76 273 l 1
 76 351 l 1
 176 351 l 1
 -4 674 l 1
 148 674 l 1
 284 390 l 1
 418 674 l 1
 565 674 l 1
EndSplineSet
EndChar

StartChar: uni00A6
Encoding: 166 166 101
Width: 383
Flags: W
LayerCount: 2
Fore
SplineSet
257 809 m 1
 257 443 l 1
 126 443 l 1
 126 809 l 1
 257 809 l 1
257 262 m 1
 257 -104 l 1
 126 -104 l 1
 126 262 l 1
 257 262 l 1
EndSplineSet
EndChar

StartChar: uni00A7
Encoding: 167 167 102
Width: 546
Flags: W
LayerCount: 2
Fore
SplineSet
411 180 m 1
 449 154 466 123 466 75 c 0
 466 -18 380 -80 251 -80 c 0
 174 -80 111 -59 65 -27 c 1
 112 58 l 1
 154 32 197 20 245 20 c 0
 297 20 330 38 330 69 c 0
 330 105 314 119 209 152 c 0
 112 182 57 218 57 301 c 0
 57 354 91 396 136 423 c 1
 98 451 82 484 82 530 c 0
 82 623 164 686 290 686 c 0
 363 686 428 664 477 631 c 1
 429 549 l 1
 386 574 343 586 296 586 c 0
 244 586 218 567 218 536 c 0
 218 501 234 486 335 454 c 0
 433 422 489 384 489 303 c 0
 489 249 455 208 411 180 c 1
265 245 m 0
 291 236 314 227 334 219 c 1
 352 240 363 264 363 284 c 0
 363 321 343 338 263 366 c 0
 243 373 225 379 209 385 c 1
 191 364 183 340 183 321 c 0
 183 284 200 267 265 245 c 0
EndSplineSet
EndChar

StartChar: uni00A8
Encoding: 168 168 103
Width: 437
Flags: W
LayerCount: 2
Fore
SplineSet
105 792 m 0
 147 792 179 759 179 718 c 0
 179 677 147 644 105 644 c 0
 63 644 29 677 29 718 c 0
 29 759 63 792 105 792 c 0
330 792 m 0
 373 792 406 759 406 718 c 0
 406 677 373 644 330 644 c 0
 289 644 256 677 256 718 c 0
 256 759 289 792 330 792 c 0
EndSplineSet
EndChar

StartChar: uni00A9
Encoding: 169 169 104
Width: 810
Flags: W
LayerCount: 2
Fore
SplineSet
406 762 m 0
 590 762 737 626 737 433 c 0
 737 240 590 104 406 104 c 0
 222 104 73 240 73 433 c 0
 73 626 222 762 406 762 c 0
406 689 m 0
 263 689 158 585 158 433 c 0
 158 280 263 178 406 178 c 0
 548 178 653 280 653 433 c 0
 653 585 548 689 406 689 c 0
408 629 m 0
 459 629 501 611 535 581 c 1
 490 523 l 1
 465 542 444 548 418 548 c 0
 374 548 339 517 339 434 c 0
 339 353 370 320 416 320 c 0
 449 320 473 330 498 350 c 1
 539 289 l 1
 506 259 463 238 409 238 c 0
 304 238 235 307 235 434 c 0
 235 557 310 629 408 629 c 0
EndSplineSet
EndChar

StartChar: uni00AA
Encoding: 170 170 105
Width: 500
Flags: W
LayerCount: 2
Fore
SplineSet
251 527 m 2
 293 527 l 1
 293 541 l 2
 293 586 273 599 222 599 c 0
 195 599 153 592 111 578 c 1
 81 662 l 1
 135 682 194 692 242 692 c 0
 367 692 419 643 419 549 c 2
 419 400 l 2
 419 370 428 359 448 352 c 1
 422 268 l 1
 372 272 339 287 318 324 c 1
 288 282 240 266 190 266 c 0
 105 266 51 318 51 392 c 0
 51 479 122 527 251 527 c 2
230 358 m 0
 257 358 279 370 293 389 c 1
 293 457 l 1
 264 457 l 2
 210 457 183 439 183 401 c 0
 183 374 199 358 230 358 c 0
56 111 m 1
 457 111 l 1
 457 0 l 1
 56 0 l 1
 56 111 l 1
EndSplineSet
EndChar

StartChar: uni00AB
Encoding: 171 171 106
Width: 615
Flags: W
LayerCount: 2
Fore
SplineSet
227 551 m 1
 314 493 l 1
 183 285 l 1
 314 77 l 1
 227 19 l 1
 41 239 l 1
 41 330 l 1
 227 551 l 1
487 551 m 1
 574 493 l 1
 444 285 l 1
 574 77 l 1
 487 19 l 1
 301 239 l 1
 301 330 l 1
 487 551 l 1
EndSplineSet
EndChar

StartChar: uni00AC
Encoding: 172 172 107
Width: 524
Flags: W
LayerCount: 2
Fore
SplineSet
472 383 m 1
 472 120 l 1
 353 120 l 1
 353 271 l 1
 52 271 l 1
 52 383 l 1
 472 383 l 1
EndSplineSet
EndChar

StartChar: uni00AD
Encoding: 173 173 108
Width: 406
Flags: W
LayerCount: 2
Fore
SplineSet
48 257 m 1
 48 369 l 1
 358 369 l 1
 358 257 l 1
 48 257 l 1
EndSplineSet
EndChar

StartChar: uni00AE
Encoding: 174 174 109
Width: 638
Flags: W
LayerCount: 2
Fore
SplineSet
319 757 m 0
 473 757 589 641 589 486 c 0
 589 332 473 218 319 218 c 0
 166 218 50 332 50 486 c 0
 50 641 166 757 319 757 c 0
319 281 m 0
 435 281 516 363 516 486 c 0
 516 610 435 694 319 694 c 0
 205 694 122 610 122 486 c 0
 122 363 205 281 319 281 c 0
431 547 m 0
 431 509 406 483 371 470 c 1
 445 353 l 1
 367 353 l 1
 308 457 l 1
 286 457 l 1
 286 353 l 1
 218 353 l 1
 218 634 l 1
 301 634 l 2
 388 634 431 606 431 547 c 0
286 583 m 1
 286 511 l 1
 315 511 l 2
 342 511 361 522 361 549 c 0
 361 572 345 583 314 583 c 2
 286 583 l 1
EndSplineSet
EndChar

StartChar: uni00AF
Encoding: 175 175 110
Width: 358
Flags: W
LayerCount: 2
Fore
SplineSet
328 658 m 1
 30 658 l 1
 30 758 l 1
 328 758 l 1
 328 658 l 1
EndSplineSet
EndChar

StartChar: uni00B0
Encoding: 176 176 111
Width: 521
Flags: W
LayerCount: 2
Fore
SplineSet
218 372 m 0
 131 372 43 435 43 541 c 0
 43 647 131 708 218 708 c 0
 305 708 393 647 393 540 c 0
 393 434 305 372 218 372 c 0
218 457 m 0
 261 457 292 488 292 540 c 0
 292 593 261 624 218 624 c 0
 175 624 144 594 144 541 c 0
 144 488 175 457 218 457 c 0
EndSplineSet
EndChar

StartChar: uni00B1
Encoding: 177 177 112
Width: 524
Flags: W
LayerCount: 2
Fore
SplineSet
322 602 m 1
 322 448 l 1
 472 448 l 1
 472 337 l 1
 322 337 l 1
 322 183 l 1
 202 183 l 1
 202 337 l 1
 52 337 l 1
 52 448 l 1
 202 448 l 1
 202 602 l 1
 322 602 l 1
56 0 m 1
 56 111 l 1
 467 111 l 1
 467 0 l 1
 56 0 l 1
EndSplineSet
EndChar

StartChar: uni00B2
Encoding: 178 178 113
Width: 400
Flags: W
LayerCount: 2
Fore
SplineSet
195 750 m 0
 296 750 349 693 349 626 c 0
 349 564 315 517 178 404 c 1
 358 404 l 1
 347 321 l 1
 57 321 l 1
 57 397 l 1
 203 532 237 570 237 617 c 0
 237 650 216 668 183 668 c 0
 152 668 129 655 104 626 c 1
 41 675 l 1
 76 720 128 750 195 750 c 0
EndSplineSet
EndChar

StartChar: uni00B3
Encoding: 179 179 114
Width: 400
Flags: W
LayerCount: 2
Fore
SplineSet
198 750 m 0
 296 750 348 702 348 641 c 0
 348 594 316 558 256 543 c 1
 317 538 363 507 363 441 c 0
 363 370 303 310 191 310 c 0
 123 310 72 335 37 375 c 1
 97 432 l 1
 124 404 151 392 184 392 c 0
 223 392 250 411 250 448 c 0
 250 488 226 503 180 503 c 2
 144 503 l 1
 156 577 l 1
 181 577 l 2
 219 577 242 595 242 626 c 0
 242 655 220 670 186 670 c 0
 154 670 126 658 101 635 c 1
 46 692 l 1
 88 730 138 750 198 750 c 0
EndSplineSet
EndChar

StartChar: uni00B4
Encoding: 180 180 115
Width: 330
Flags: W
LayerCount: 2
Fore
SplineSet
244 827 m 1
 300 718 l 1
 70 626 l 1
 30 699 l 1
 244 827 l 1
EndSplineSet
EndChar

StartChar: uni00B5
Encoding: 181 181 116
Width: 582
Flags: W
LayerCount: 2
Fore
SplineSet
530 0 m 1
 399 -16 l 1
 384 15 381 37 376 72 c 1
 348 25 309 -9 260 -9 c 0
 222 -9 194 2 170 35 c 1
 190 -6 204 -41 204 -109 c 2
 204 -204 l 1
 68 -219 l 1
 68 530 l 1
 210 530 l 1
 210 164 l 2
 210 113 234 97 268 97 c 0
 301 97 335 116 363 167 c 1
 363 530 l 1
 505 530 l 1
 505 182 l 2
 505 101 517 42 530 0 c 1
EndSplineSet
EndChar

StartChar: uni00B6
Encoding: 182 182 117
Width: 775
Flags: W
LayerCount: 2
Fore
SplineSet
330 692 m 2
 653 692 l 1
 653 -204 l 1
 528 -221 l 1
 528 591 l 1
 431 591 l 1
 431 -204 l 1
 306 -221 l 1
 306 268 l 1
 147 273 71 360 71 480 c 0
 71 613 168 692 330 692 c 2
EndSplineSet
EndChar

StartChar: uni00B7
Encoding: 183 183 118
Width: 240
Flags: W
LayerCount: 2
Fore
SplineSet
119 394 m 0
 167 394 205 355 205 309 c 0
 205 262 167 223 119 223 c 0
 72 223 34 262 34 309 c 0
 34 355 72 394 119 394 c 0
EndSplineSet
EndChar

StartChar: uni00B8
Encoding: 184 184 119
Width: 310
Flags: W
LayerCount: 2
Fore
SplineSet
179 16 m 1
 179 -50 l 1
 249 -57 280 -95 280 -146 c 0
 280 -213 222 -257 137 -257 c 0
 92 -257 54 -245 30 -228 c 1
 63 -160 l 1
 83 -171 102 -177 127 -177 c 0
 155 -177 175 -169 175 -145 c 0
 175 -120 148 -109 83 -109 c 1
 99 16 l 1
 179 16 l 1
EndSplineSet
EndChar

StartChar: uni00B9
Encoding: 185 185 120
Width: 400
Flags: W
LayerCount: 2
Fore
SplineSet
293 741 m 1
 293 321 l 1
 187 321 l 1
 187 638 l 1
 93 582 l 1
 46 654 l 1
 196 741 l 1
 293 741 l 1
EndSplineSet
EndChar

StartChar: uni00BA
Encoding: 186 186 121
Width: 500
Flags: W
LayerCount: 2
Fore
SplineSet
251 692 m 0
 380 692 459 615 459 479 c 0
 459 350 381 266 250 266 c 0
 121 266 41 343 41 480 c 0
 41 608 120 692 251 692 c 0
251 598 m 0
 200 598 175 562 175 480 c 0
 175 395 200 360 250 360 c 0
 301 360 325 396 325 479 c 0
 325 564 301 598 251 598 c 0
45 0 m 1
 45 111 l 1
 455 111 l 1
 455 0 l 1
 45 0 l 1
EndSplineSet
EndChar

StartChar: uni00BB
Encoding: 187 187 122
Width: 611
Flags: W
LayerCount: 2
Fore
SplineSet
128 551 m 1
 314 330 l 1
 314 239 l 1
 128 19 l 1
 41 77 l 1
 171 285 l 1
 41 493 l 1
 128 551 l 1
384 551 m 1
 570 330 l 1
 570 239 l 1
 384 19 l 1
 297 77 l 1
 427 285 l 1
 297 493 l 1
 384 551 l 1
EndSplineSet
EndChar

StartChar: uni00BC
Encoding: 188 188 123
Width: 960
Flags: W
LayerCount: 2
Fore
SplineSet
643 757 m 1
 727 715 l 1
 317 -84 l 1
 233 -42 l 1
 643 757 l 1
293 272 m 1
 187 272 l 1
 187 589 l 1
 93 533 l 1
 46 605 l 1
 196 692 l 1
 293 692 l 1
 293 272 l 1
930 167 m 1
 930 87 l 1
 882 87 l 1
 882 0 l 1
 779 0 l 1
 779 87 l 1
 589 87 l 1
 589 159 l 1
 712 429 l 1
 803 396 l 1
 700 167 l 1
 781 167 l 1
 798 264 l 1
 882 264 l 1
 882 167 l 1
 930 167 l 1
EndSplineSet
EndChar

StartChar: uni00BD
Encoding: 189 189 124
Width: 960
Flags: W
LayerCount: 2
Fore
SplineSet
643 757 m 1
 727 715 l 1
 317 -84 l 1
 233 -42 l 1
 643 757 l 1
293 692 m 1
 293 272 l 1
 187 272 l 1
 187 589 l 1
 93 533 l 1
 46 605 l 1
 196 692 l 1
 293 692 l 1
755 429 m 0
 856 429 909 372 909 305 c 0
 909 243 875 196 738 83 c 1
 918 83 l 1
 907 0 l 1
 617 0 l 1
 617 76 l 1
 763 211 797 249 797 296 c 0
 797 329 776 347 743 347 c 0
 712 347 689 334 664 305 c 1
 601 354 l 1
 636 399 688 429 755 429 c 0
EndSplineSet
EndChar

StartChar: uni00BE
Encoding: 190 190 125
Width: 960
Flags: W
LayerCount: 2
Fore
SplineSet
643 757 m 1
 727 715 l 1
 317 -84 l 1
 233 -42 l 1
 643 757 l 1
363 392 m 0
 363 321 303 261 191 261 c 0
 123 261 72 286 37 326 c 1
 97 383 l 1
 124 355 151 343 184 343 c 0
 223 343 250 362 250 399 c 0
 250 439 226 454 180 454 c 2
 144 454 l 1
 156 528 l 1
 181 528 l 2
 219 528 242 546 242 577 c 0
 242 606 220 621 186 621 c 0
 154 621 126 609 101 586 c 1
 46 643 l 1
 88 681 138 701 198 701 c 0
 296 701 348 653 348 592 c 0
 348 545 316 509 256 494 c 1
 317 489 363 458 363 392 c 0
930 167 m 1
 930 87 l 1
 882 87 l 1
 882 0 l 1
 779 0 l 1
 779 87 l 1
 589 87 l 1
 589 159 l 1
 712 429 l 1
 803 396 l 1
 700 167 l 1
 781 167 l 1
 798 264 l 1
 882 264 l 1
 882 167 l 1
 930 167 l 1
EndSplineSet
EndChar

StartChar: uni00BF
Encoding: 191 191 126
Width: 476
Flags: W
LayerCount: 2
Fore
SplineSet
262 335 m 0
 214 335 176 374 176 420 c 0
 176 467 214 506 262 506 c 0
 310 506 347 467 347 420 c 0
 347 374 310 335 262 335 c 0
230 -221 m 0
 89 -221 18 -143 18 -56 c 0
 18 106 198 92 198 206 c 2
 198 239 l 1
 329 239 l 1
 329 201 l 2
 329 31 167 44 167 -44 c 0
 167 -85 196 -108 244 -108 c 0
 287 -108 329 -87 366 -44 c 1
 458 -116 l 1
 401 -182 329 -221 230 -221 c 0
EndSplineSet
EndChar

StartChar: uni00C0
Encoding: 192 192 127
Width: 586
Flags: W
LayerCount: 2
Fore
SplineSet
207 945 m 1
 423 825 l 1
 387 752 l 1
 153 837 l 1
 207 945 l 1
439 0 m 1
 400 155 l 1
 183 155 l 1
 144 0 l 1
 -9 0 l 1
 204 692 l 1
 383 692 l 1
 595 0 l 1
 439 0 l 1
210 264 m 1
 372 264 l 1
 291 583 l 1
 210 264 l 1
EndSplineSet
EndChar

StartChar: uni00C1
Encoding: 193 193 128
Width: 586
Flags: W
LayerCount: 2
Fore
SplineSet
429 837 m 1
 195 752 l 1
 159 825 l 1
 375 945 l 1
 429 837 l 1
439 0 m 1
 400 155 l 1
 183 155 l 1
 144 0 l 1
 -9 0 l 1
 204 692 l 1
 383 692 l 1
 595 0 l 1
 439 0 l 1
211 264 m 1
 372 264 l 1
 291 583 l 1
 211 264 l 1
EndSplineSet
EndChar

StartChar: uni00C2
Encoding: 194 194 129
Width: 586
Flags: W
LayerCount: 2
Fore
SplineSet
162 756 m 1
 109 816 l 1
 249 940 l 1
 337 940 l 1
 477 816 l 1
 425 756 l 1
 293 839 l 1
 162 756 l 1
439 0 m 1
 400 155 l 1
 183 155 l 1
 144 0 l 1
 -9 0 l 1
 204 692 l 1
 383 692 l 1
 595 0 l 1
 439 0 l 1
210 264 m 1
 372 264 l 1
 291 583 l 1
 210 264 l 1
EndSplineSet
EndChar

StartChar: uni00C3
Encoding: 195 195 130
Width: 586
Flags: W
LayerCount: 2
Fore
SplineSet
352 766 m 0
 324 766 304 776 285 790 c 0
 267 803 254 812 237 812 c 0
 214 812 200 796 184 767 c 1
 111 803 l 1
 135 863 178 914 235 914 c 0
 266 914 285 903 305 889 c 0
 322 877 335 868 351 868 c 0
 373 868 387 883 404 912 c 1
 477 876 l 1
 451 811 408 766 352 766 c 0
439 0 m 1
 400 155 l 1
 183 155 l 1
 144 0 l 1
 -9 0 l 1
 204 692 l 1
 383 692 l 1
 595 0 l 1
 439 0 l 1
210 264 m 1
 372 264 l 1
 291 583 l 1
 210 264 l 1
EndSplineSet
EndChar

StartChar: uni00C4
Encoding: 196 196 131
Width: 586
Flags: W
LayerCount: 2
Fore
SplineSet
179 918 m 0
 222 918 254 885 254 844 c 0
 254 803 222 770 179 770 c 0
 137 770 104 803 104 844 c 0
 104 885 137 918 179 918 c 0
405 918 m 0
 448 918 481 885 481 844 c 0
 481 803 448 770 405 770 c 0
 364 770 331 803 331 844 c 0
 331 885 364 918 405 918 c 0
439 0 m 1
 400 155 l 1
 183 155 l 1
 144 0 l 1
 -9 0 l 1
 204 692 l 1
 383 692 l 1
 595 0 l 1
 439 0 l 1
210 264 m 1
 372 264 l 1
 291 583 l 1
 210 264 l 1
EndSplineSet
EndChar

StartChar: uni00C5
Encoding: 197 197 132
Width: 586
Flags: W
LayerCount: 2
Fore
SplineSet
294 986 m 0
 375 986 427 929 427 861 c 0
 427 793 375 735 294 735 c 0
 213 735 161 793 161 861 c 0
 161 929 213 986 294 986 c 0
294 912 m 0
 266 912 247 894 247 861 c 0
 247 827 266 809 294 809 c 0
 322 809 341 827 341 861 c 0
 341 894 322 912 294 912 c 0
439 0 m 1
 400 155 l 1
 183 155 l 1
 144 0 l 1
 -9 0 l 1
 204 692 l 1
 383 692 l 1
 595 0 l 1
 439 0 l 1
210 264 m 1
 372 264 l 1
 291 583 l 1
 210 264 l 1
EndSplineSet
EndChar

StartChar: uni00C6
Encoding: 198 198 133
Width: 838
Flags: W
LayerCount: 2
Fore
SplineSet
570 108 m 1
 800 108 l 1
 800 0 l 1
 448 0 l 1
 419 155 l 1
 190 155 l 1
 136 0 l 1
 -20 0 l 1
 252 692 l 1
 762 692 l 1
 746 585 l 1
 467 585 l 1
 506 403 l 1
 753 403 l 1
 753 297 l 1
 529 297 l 1
 570 108 l 1
227 264 m 1
 398 264 l 1
 338 583 l 1
 227 264 l 1
EndSplineSet
EndChar

StartChar: uni00C7
Encoding: 199 199 134
Width: 571
Flags: W
LayerCount: 2
Fore
SplineSet
561 71 m 1
 522 31 461 -6 382 -14 c 1
 382 -50 l 1
 452 -57 483 -95 483 -146 c 0
 483 -213 425 -257 340 -257 c 0
 295 -257 257 -245 233 -228 c 1
 266 -160 l 1
 286 -171 305 -177 330 -177 c 0
 358 -177 378 -169 378 -145 c 0
 378 -120 351 -109 286 -109 c 1
 298 -13 l 1
 141 9 38 133 38 347 c 0
 38 580 172 708 346 708 c 0
 436 708 495 681 553 633 c 1
 480 548 l 1
 441 580 401 597 354 597 c 0
 261 597 193 527 193 347 c 0
 193 173 259 100 355 100 c 0
 412 100 453 125 493 156 c 1
 561 71 l 1
EndSplineSet
EndChar

StartChar: uni00C8
Encoding: 200 200 135
Width: 528
Flags: W
LayerCount: 2
Fore
SplineSet
195 945 m 1
 411 825 l 1
 375 752 l 1
 141 837 l 1
 195 945 l 1
486 692 m 1
 470 585 l 1
 220 585 l 1
 220 405 l 1
 438 405 l 1
 438 299 l 1
 220 299 l 1
 220 108 l 1
 488 108 l 1
 488 0 l 1
 73 0 l 1
 73 692 l 1
 486 692 l 1
EndSplineSet
EndChar

StartChar: uni00C9
Encoding: 201 201 136
Width: 528
Flags: W
LayerCount: 2
Fore
SplineSet
362 945 m 1
 416 837 l 1
 182 752 l 1
 146 825 l 1
 362 945 l 1
486 692 m 1
 470 585 l 1
 220 585 l 1
 220 405 l 1
 438 405 l 1
 438 299 l 1
 220 299 l 1
 220 108 l 1
 488 108 l 1
 488 0 l 1
 73 0 l 1
 73 692 l 1
 486 692 l 1
EndSplineSet
EndChar

StartChar: uni00CA
Encoding: 202 202 137
Width: 528
Flags: W
LayerCount: 2
Fore
SplineSet
150 756 m 1
 97 816 l 1
 237 940 l 1
 325 940 l 1
 465 816 l 1
 413 756 l 1
 281 839 l 1
 150 756 l 1
486 692 m 1
 470 585 l 1
 220 585 l 1
 220 405 l 1
 438 405 l 1
 438 299 l 1
 220 299 l 1
 220 108 l 1
 488 108 l 1
 488 0 l 1
 73 0 l 1
 73 692 l 1
 486 692 l 1
EndSplineSet
EndChar

StartChar: uni00CB
Encoding: 203 203 138
Width: 528
Flags: W
LayerCount: 2
Fore
SplineSet
167 918 m 0
 210 918 242 885 242 844 c 0
 242 803 210 770 167 770 c 0
 125 770 92 803 92 844 c 0
 92 885 125 918 167 918 c 0
393 918 m 0
 436 918 469 885 469 844 c 0
 469 803 436 770 393 770 c 0
 352 770 319 803 319 844 c 0
 319 885 352 918 393 918 c 0
486 692 m 1
 470 585 l 1
 220 585 l 1
 220 405 l 1
 438 405 l 1
 438 299 l 1
 220 299 l 1
 220 108 l 1
 488 108 l 1
 488 0 l 1
 73 0 l 1
 73 692 l 1
 486 692 l 1
EndSplineSet
EndChar

StartChar: uni00CC
Encoding: 204 204 139
Width: 294
Flags: W
LayerCount: 2
Fore
SplineSet
60 945 m 1
 276 825 l 1
 240 752 l 1
 6 837 l 1
 60 945 l 1
220 692 m 1
 220 0 l 1
 73 0 l 1
 73 692 l 1
 220 692 l 1
EndSplineSet
EndChar

StartChar: uni00CD
Encoding: 205 205 140
Width: 294
Flags: W
LayerCount: 2
Fore
SplineSet
227 945 m 1
 281 837 l 1
 47 752 l 1
 11 825 l 1
 227 945 l 1
220 692 m 1
 220 0 l 1
 73 0 l 1
 73 692 l 1
 220 692 l 1
EndSplineSet
EndChar

StartChar: uni00CE
Encoding: 206 206 141
Width: 294
Flags: W
LayerCount: 2
Fore
SplineSet
15 756 m 1
 -38 816 l 1
 102 940 l 1
 190 940 l 1
 330 816 l 1
 278 756 l 1
 146 839 l 1
 15 756 l 1
220 692 m 1
 220 0 l 1
 73 0 l 1
 73 692 l 1
 220 692 l 1
EndSplineSet
EndChar

StartChar: uni00CF
Encoding: 207 207 142
Width: 294
Flags: W
LayerCount: 2
Fore
SplineSet
32 918 m 0
 75 918 107 885 107 844 c 0
 107 803 75 770 32 770 c 0
 -10 770 -43 803 -43 844 c 0
 -43 885 -10 918 32 918 c 0
258 918 m 0
 301 918 334 885 334 844 c 0
 334 803 301 770 258 770 c 0
 217 770 184 803 184 844 c 0
 184 885 217 918 258 918 c 0
220 692 m 1
 220 0 l 1
 73 0 l 1
 73 692 l 1
 220 692 l 1
EndSplineSet
EndChar

StartChar: uni00D0
Encoding: 208 208 143
Width: 663
Flags: W
LayerCount: 2
Fore
SplineSet
268 692 m 2
 451 692 625 635 625 349 c 0
 625 70 455 0 285 0 c 2
 87 0 l 1
 87 307 l 1
 15 307 l 1
 15 399 l 1
 87 399 l 1
 87 692 l 1
 268 692 l 2
294 108 m 2
 395 108 471 155 471 349 c 0
 471 547 390 584 291 584 c 2
 234 584 l 1
 234 399 l 1
 374 399 l 1
 374 307 l 1
 234 307 l 1
 234 108 l 1
 294 108 l 2
EndSplineSet
EndChar

StartChar: uni00D1
Encoding: 209 209 144
Width: 668
Flags: W
LayerCount: 2
Fore
SplineSet
398 766 m 0
 370 766 350 776 331 790 c 0
 313 803 300 812 283 812 c 0
 260 812 246 796 230 767 c 1
 157 803 l 1
 181 863 224 914 281 914 c 0
 312 914 331 903 351 889 c 0
 368 877 381 868 397 868 c 0
 419 868 433 883 450 912 c 1
 523 876 l 1
 497 811 454 766 398 766 c 0
595 692 m 1
 595 0 l 1
 406 0 l 1
 186 549 l 1
 194 487 206 397 206 269 c 2
 206 0 l 1
 73 0 l 1
 73 692 l 1
 258 692 l 1
 482 142 l 1
 475 189 462 285 462 388 c 2
 462 692 l 1
 595 692 l 1
EndSplineSet
EndChar

StartChar: uni00D2
Encoding: 210 210 145
Width: 691
Flags: W
LayerCount: 2
Fore
SplineSet
259 945 m 1
 475 825 l 1
 439 752 l 1
 205 837 l 1
 259 945 l 1
346 708 m 0
 536 708 653 578 653 346 c 0
 653 119 536 -16 346 -16 c 0
 156 -16 38 115 38 346 c 0
 38 572 156 708 346 708 c 0
346 598 m 0
 248 598 193 527 193 346 c 0
 193 165 250 94 346 94 c 0
 445 94 498 165 498 346 c 0
 498 527 445 598 346 598 c 0
EndSplineSet
EndChar

StartChar: uni00D3
Encoding: 211 211 146
Width: 691
Flags: W
LayerCount: 2
Fore
SplineSet
426 945 m 1
 480 837 l 1
 246 752 l 1
 210 825 l 1
 426 945 l 1
346 708 m 0
 536 708 653 578 653 346 c 0
 653 119 536 -16 346 -16 c 0
 156 -16 38 115 38 346 c 0
 38 572 156 708 346 708 c 0
346 598 m 0
 248 598 193 527 193 346 c 0
 193 165 250 94 346 94 c 0
 445 94 498 165 498 346 c 0
 498 527 445 598 346 598 c 0
EndSplineSet
EndChar

StartChar: uni00D4
Encoding: 212 212 147
Width: 691
Flags: W
LayerCount: 2
Fore
SplineSet
214 756 m 1
 161 816 l 1
 301 940 l 1
 389 940 l 1
 529 816 l 1
 477 756 l 1
 345 839 l 1
 214 756 l 1
346 708 m 0
 536 708 653 578 653 346 c 0
 653 119 536 -16 346 -16 c 0
 156 -16 38 115 38 346 c 0
 38 572 156 708 346 708 c 0
346 598 m 0
 248 598 193 527 193 346 c 0
 193 165 250 94 346 94 c 0
 445 94 498 165 498 346 c 0
 498 527 445 598 346 598 c 0
EndSplineSet
EndChar

StartChar: uni00D5
Encoding: 213 213 148
Width: 691
Flags: W
LayerCount: 2
Fore
SplineSet
403 766 m 0
 375 766 355 776 336 790 c 0
 318 803 305 812 288 812 c 0
 265 812 251 796 235 767 c 1
 162 803 l 1
 186 863 229 914 286 914 c 0
 317 914 336 903 356 889 c 0
 373 877 386 868 402 868 c 0
 424 868 438 883 455 912 c 1
 528 876 l 1
 502 811 459 766 403 766 c 0
346 708 m 0
 536 708 653 578 653 346 c 0
 653 119 536 -16 346 -16 c 0
 156 -16 38 115 38 346 c 0
 38 572 156 708 346 708 c 0
346 598 m 0
 248 598 193 527 193 346 c 0
 193 165 250 94 346 94 c 0
 445 94 498 165 498 346 c 0
 498 527 445 598 346 598 c 0
EndSplineSet
EndChar

StartChar: uni00D6
Encoding: 214 214 149
Width: 691
Flags: W
LayerCount: 2
Fore
SplineSet
231 918 m 0
 274 918 306 885 306 844 c 0
 306 803 274 770 231 770 c 0
 189 770 156 803 156 844 c 0
 156 885 189 918 231 918 c 0
457 918 m 0
 500 918 533 885 533 844 c 0
 533 803 500 770 457 770 c 0
 416 770 383 803 383 844 c 0
 383 885 416 918 457 918 c 0
346 708 m 0
 536 708 653 578 653 346 c 0
 653 119 536 -16 346 -16 c 0
 156 -16 38 115 38 346 c 0
 38 572 156 708 346 708 c 0
346 598 m 0
 248 598 193 527 193 346 c 0
 193 165 250 94 346 94 c 0
 445 94 498 165 498 346 c 0
 498 527 445 598 346 598 c 0
EndSplineSet
EndChar

StartChar: uni00D7
Encoding: 215 215 150
Width: 514
Flags: W
LayerCount: 2
Fore
SplineSet
375 504 m 1
 454 424 l 1
 337 309 l 1
 454 189 l 1
 375 109 l 1
 259 231 l 1
 139 109 l 1
 60 189 l 1
 176 304 l 1
 60 424 l 1
 139 504 l 1
 255 382 l 1
 375 504 l 1
EndSplineSet
EndChar

StartChar: uni00D8
Encoding: 216 216 151
Width: 691
Flags: W
LayerCount: 2
Fore
SplineSet
507 667 m 1
 600 612 653 502 653 346 c 0
 653 119 536 -16 346 -16 c 0
 327 -16 309 -15 292 -12 c 1
 256 -133 l 1
 143 -103 l 1
 183 26 l 1
 91 81 38 191 38 346 c 0
 38 572 156 708 346 708 c 0
 364 708 382 707 399 704 c 1
 436 826 l 1
 548 796 l 1
 507 667 l 1
346 598 m 0
 248 598 193 527 193 346 c 0
 193 236 210 171 241 134 c 1
 380 596 l 1
 369 597 358 598 346 598 c 0
346 94 m 0
 445 94 498 165 498 346 c 0
 498 458 481 524 449 560 c 1
 310 97 l 1
 322 95 333 94 346 94 c 0
EndSplineSet
EndChar

StartChar: uni00D9
Encoding: 217 217 152
Width: 654
Flags: W
LayerCount: 2
Fore
SplineSet
240 945 m 1
 456 825 l 1
 420 752 l 1
 186 837 l 1
 240 945 l 1
590 692 m 1
 590 228 l 2
 590 89 501 -16 326 -16 c 0
 151 -16 63 84 63 228 c 2
 63 692 l 1
 210 692 l 1
 210 235 l 2
 210 142 246 96 326 96 c 0
 407 96 443 142 443 235 c 2
 443 692 l 1
 590 692 l 1
EndSplineSet
EndChar

StartChar: uni00DA
Encoding: 218 218 153
Width: 654
Flags: W
LayerCount: 2
Fore
SplineSet
408 945 m 1
 462 837 l 1
 228 752 l 1
 192 825 l 1
 408 945 l 1
590 692 m 1
 590 228 l 2
 590 89 501 -16 326 -16 c 0
 151 -16 63 84 63 228 c 2
 63 692 l 1
 210 692 l 1
 210 235 l 2
 210 142 246 96 326 96 c 0
 407 96 443 142 443 235 c 2
 443 692 l 1
 590 692 l 1
EndSplineSet
EndChar

StartChar: uni00DB
Encoding: 219 219 154
Width: 654
Flags: W
LayerCount: 2
Fore
SplineSet
195 756 m 1
 142 816 l 1
 282 940 l 1
 370 940 l 1
 510 816 l 1
 458 756 l 1
 326 839 l 1
 195 756 l 1
590 692 m 1
 590 228 l 2
 590 89 501 -16 326 -16 c 0
 151 -16 63 84 63 228 c 2
 63 692 l 1
 210 692 l 1
 210 235 l 2
 210 142 246 96 326 96 c 0
 407 96 443 142 443 235 c 2
 443 692 l 1
 590 692 l 1
EndSplineSet
EndChar

StartChar: uni00DC
Encoding: 220 220 155
Width: 654
Flags: W
LayerCount: 2
Fore
SplineSet
212 918 m 0
 255 918 287 885 287 844 c 0
 287 803 255 770 212 770 c 0
 170 770 137 803 137 844 c 0
 137 885 170 918 212 918 c 0
438 918 m 0
 481 918 514 885 514 844 c 0
 514 803 481 770 438 770 c 0
 397 770 364 803 364 844 c 0
 364 885 397 918 438 918 c 0
590 692 m 1
 590 228 l 2
 590 89 501 -16 326 -16 c 0
 151 -16 63 84 63 228 c 2
 63 692 l 1
 210 692 l 1
 210 235 l 2
 210 142 246 96 326 96 c 0
 407 96 443 142 443 235 c 2
 443 692 l 1
 590 692 l 1
EndSplineSet
EndChar

StartChar: uni00DD
Encoding: 221 221 156
Width: 583
Flags: W
LayerCount: 2
Fore
SplineSet
372 945 m 1
 426 837 l 1
 192 752 l 1
 156 825 l 1
 372 945 l 1
587 692 m 1
 365 261 l 1
 365 0 l 1
 218 0 l 1
 218 260 l 1
 -4 692 l 1
 157 692 l 1
 295 378 l 1
 432 692 l 1
 587 692 l 1
EndSplineSet
EndChar

StartChar: uni00DE
Encoding: 222 222 157
Width: 595
Flags: W
LayerCount: 2
Fore
SplineSet
287 581 m 2
 463 581 571 509 571 356 c 0
 571 190 457 117 299 117 c 2
 220 117 l 1
 220 0 l 1
 73 0 l 1
 73 692 l 1
 220 692 l 1
 220 581 l 1
 287 581 l 2
287 225 m 2
 368 225 419 256 419 355 c 0
 419 439 371 475 285 475 c 2
 220 475 l 1
 220 225 l 1
 287 225 l 2
EndSplineSet
EndChar

StartChar: uni00DF
Encoding: 223 223 158
Width: 601
Flags: W
LayerCount: 2
Fore
SplineSet
296 757 m 0
 425 757 496 688 496 609 c 0
 496 507 393 491 393 430 c 0
 393 353 578 340 578 165 c 0
 578 52 490 -16 382 -16 c 0
 335 -16 297 -5 267 10 c 1
 309 107 l 1
 324 99 340 95 364 95 c 0
 405 95 431 119 431 167 c 0
 431 282 268 280 268 409 c 0
 268 512 362 508 362 593 c 0
 362 632 333 655 293 655 c 0
 238 655 210 616 210 538 c 2
 210 0 l 1
 68 0 l 1
 68 535 l 2
 68 673 149 757 296 757 c 0
EndSplineSet
EndChar

StartChar: uni00E0
Encoding: 224 224 159
Width: 545
Flags: W
LayerCount: 2
Fore
SplineSet
198 827 m 1
 411 699 l 1
 371 626 l 1
 141 718 l 1
 198 827 l 1
473 147 m 2
 473 104 486 89 511 80 c 1
 481 -14 l 1
 421 -8 381 11 359 63 c 1
 321 6 263 -16 200 -16 c 0
 94 -16 28 52 28 148 c 0
 28 264 116 327 272 327 c 2
 333 327 l 1
 333 353 l 2
 333 419 305 440 239 440 c 0
 204 440 152 430 99 412 c 1
 66 507 l 1
 132 533 202 546 262 546 c 0
 409 546 473 481 473 361 c 2
 473 147 l 2
240 86 m 0
 280 86 312 107 333 145 c 1
 333 246 l 1
 287 246 l 2
 209 246 171 218 171 160 c 0
 171 113 195 86 240 86 c 0
EndSplineSet
EndChar

StartChar: uni00E1
Encoding: 225 225 160
Width: 545
Flags: W
LayerCount: 2
Fore
SplineSet
396 718 m 1
 166 626 l 1
 126 699 l 1
 340 827 l 1
 396 718 l 1
473 147 m 2
 473 104 486 89 511 80 c 1
 481 -14 l 1
 421 -9 381 11 359 64 c 1
 321 6 264 -16 200 -16 c 0
 94 -16 28 52 28 148 c 0
 28 264 116 327 272 327 c 2
 333 327 l 1
 333 353 l 2
 333 419 305 440 239 440 c 0
 204 440 152 430 99 412 c 1
 66 507 l 1
 132 533 202 546 262 546 c 0
 409 546 473 481 473 361 c 2
 473 147 l 2
240 86 m 0
 281 86 312 107 333 144 c 1
 333 246 l 1
 287 246 l 2
 209 246 171 218 171 160 c 0
 171 113 195 86 240 86 c 0
EndSplineSet
EndChar

StartChar: uni00E2
Encoding: 226 226 161
Width: 545
Flags: W
LayerCount: 2
Fore
SplineSet
134 624 m 1
 82 684 l 1
 222 815 l 1
 310 815 l 1
 450 684 l 1
 397 624 l 1
 266 713 l 1
 134 624 l 1
473 147 m 2
 473 104 486 89 511 80 c 1
 481 -14 l 1
 421 -8 381 11 359 63 c 1
 321 6 263 -16 200 -16 c 0
 94 -16 28 52 28 148 c 0
 28 264 116 327 272 327 c 2
 333 327 l 1
 333 353 l 2
 333 419 305 440 239 440 c 0
 204 440 152 430 99 412 c 1
 66 507 l 1
 132 533 202 546 262 546 c 0
 409 546 473 481 473 361 c 2
 473 147 l 2
240 86 m 0
 280 86 312 107 333 145 c 1
 333 246 l 1
 287 246 l 2
 209 246 171 218 171 160 c 0
 171 113 195 86 240 86 c 0
EndSplineSet
EndChar

StartChar: uni00E3
Encoding: 227 227 162
Width: 545
Flags: W
LayerCount: 2
Fore
SplineSet
324 640 m 0
 296 640 276 650 257 664 c 0
 239 677 226 686 209 686 c 0
 186 686 172 670 156 641 c 1
 83 677 l 1
 107 737 150 788 207 788 c 0
 238 788 257 777 277 763 c 0
 294 751 307 742 323 742 c 0
 345 742 359 757 376 786 c 1
 449 750 l 1
 423 685 380 640 324 640 c 0
473 147 m 2
 473 104 486 89 511 80 c 1
 481 -14 l 1
 421 -8 381 11 359 63 c 1
 321 6 263 -16 200 -16 c 0
 94 -16 28 52 28 148 c 0
 28 264 116 327 272 327 c 2
 333 327 l 1
 333 353 l 2
 333 419 305 440 239 440 c 0
 204 440 152 430 99 412 c 1
 66 507 l 1
 132 533 202 546 262 546 c 0
 409 546 473 481 473 361 c 2
 473 147 l 2
240 86 m 0
 280 86 312 107 333 145 c 1
 333 246 l 1
 287 246 l 2
 209 246 171 218 171 160 c 0
 171 113 195 86 240 86 c 0
EndSplineSet
EndChar

StartChar: uni00E4
Encoding: 228 228 163
Width: 545
Flags: W
LayerCount: 2
Fore
SplineSet
152 792 m 0
 195 792 227 759 227 718 c 0
 227 677 195 644 152 644 c 0
 110 644 77 677 77 718 c 0
 77 759 110 792 152 792 c 0
378 792 m 0
 421 792 454 759 454 718 c 0
 454 677 421 644 378 644 c 0
 337 644 304 677 304 718 c 0
 304 759 337 792 378 792 c 0
473 147 m 2
 473 104 486 89 511 80 c 1
 481 -14 l 1
 421 -8 381 11 359 63 c 1
 321 6 263 -16 200 -16 c 0
 94 -16 28 52 28 148 c 0
 28 264 116 327 272 327 c 2
 333 327 l 1
 333 353 l 2
 333 419 305 440 239 440 c 0
 204 440 152 430 99 412 c 1
 66 507 l 1
 132 533 202 546 262 546 c 0
 409 546 473 481 473 361 c 2
 473 147 l 2
240 86 m 0
 280 86 312 107 333 145 c 1
 333 246 l 1
 287 246 l 2
 209 246 171 218 171 160 c 0
 171 113 195 86 240 86 c 0
EndSplineSet
EndChar

StartChar: uni00E5
Encoding: 229 229 164
Width: 545
Flags: W
LayerCount: 2
Fore
SplineSet
266 860 m 0
 347 860 399 803 399 735 c 0
 399 667 347 609 266 609 c 0
 185 609 133 667 133 735 c 0
 133 803 185 860 266 860 c 0
266 786 m 0
 238 786 219 768 219 735 c 0
 219 701 238 683 266 683 c 0
 294 683 313 701 313 735 c 0
 313 768 294 786 266 786 c 0
473 147 m 2
 473 104 486 89 511 80 c 1
 481 -14 l 1
 421 -8 381 11 359 63 c 1
 321 6 263 -16 200 -16 c 0
 94 -16 28 52 28 148 c 0
 28 264 116 327 272 327 c 2
 333 327 l 1
 333 353 l 2
 333 419 305 440 239 440 c 0
 204 440 152 430 99 412 c 1
 66 507 l 1
 132 533 202 546 262 546 c 0
 409 546 473 481 473 361 c 2
 473 147 l 2
240 86 m 0
 280 86 312 107 333 145 c 1
 333 246 l 1
 287 246 l 2
 209 246 171 218 171 160 c 0
 171 113 195 86 240 86 c 0
EndSplineSet
EndChar

StartChar: uni00E6
Encoding: 230 230 165
Width: 852
Flags: W
LayerCount: 2
Fore
SplineSet
818 277 m 0
 818 259 816 237 815 222 c 1
 485 222 l 1
 495 120 542 90 610 90 c 0
 656 90 694 104 740 136 c 1
 798 56 l 1
 746 14 680 -16 597 -16 c 0
 504 -16 435 19 392 76 c 1
 344 8 279 -16 203 -16 c 0
 95 -16 28 52 28 148 c 0
 28 264 117 327 278 327 c 2
 339 327 l 1
 339 352 l 2
 339 418 311 439 244 439 c 0
 209 439 158 429 104 411 c 1
 72 507 l 1
 138 533 207 546 267 546 c 0
 348 546 398 519 428 475 c 1
 467 519 518 546 589 546 c 0
 729 546 818 446 818 277 c 0
678 311 m 1
 678 317 l 2
 677 397 651 449 583 449 c 0
 526 449 492 411 485 311 c 1
 678 311 l 1
247 86 m 0
 290 86 322 111 352 157 c 1
 345 183 341 211 340 240 c 2
 340 243 l 1
 293 243 l 2
 217 243 179 217 179 158 c 0
 179 113 202 86 247 86 c 0
EndSplineSet
EndChar

StartChar: uni00E7
Encoding: 231 231 166
Width: 478
Flags: W
LayerCount: 2
Fore
SplineSet
467 46 m 1
 425 12 378 -10 320 -15 c 1
 320 -50 l 1
 390 -57 421 -95 421 -146 c 0
 421 -213 363 -257 278 -257 c 0
 233 -257 195 -245 171 -228 c 1
 204 -160 l 1
 224 -171 243 -177 268 -177 c 0
 296 -177 316 -169 316 -145 c 0
 316 -120 289 -109 224 -109 c 1
 237 -11 l 1
 112 12 38 113 38 261 c 0
 38 429 136 546 291 546 c 0
 362 546 417 525 467 482 c 1
 405 398 l 1
 371 424 340 436 301 436 c 0
 230 436 188 385 188 262 c 0
 188 139 233 98 300 98 c 0
 339 98 366 110 405 135 c 1
 467 46 l 1
EndSplineSet
EndChar

StartChar: uni00E8
Encoding: 232 232 167
Width: 552
Flags: W
LayerCount: 2
Fore
SplineSet
214 827 m 1
 427 699 l 1
 387 626 l 1
 157 718 l 1
 214 827 l 1
518 277 m 0
 518 259 516 237 515 222 c 1
 184 222 l 1
 194 120 242 90 310 90 c 0
 355 90 393 104 439 136 c 1
 498 56 l 1
 446 14 380 -16 297 -16 c 0
 127 -16 38 96 38 262 c 0
 38 422 124 546 279 546 c 0
 429 546 518 446 518 277 c 0
377 311 m 1
 377 317 l 2
 377 397 350 449 282 449 c 0
 226 449 192 412 184 311 c 1
 377 311 l 1
EndSplineSet
EndChar

StartChar: uni00E9
Encoding: 233 233 168
Width: 552
Flags: W
LayerCount: 2
Fore
SplineSet
412 718 m 1
 182 626 l 1
 142 699 l 1
 356 827 l 1
 412 718 l 1
518 277 m 0
 518 259 516 237 515 222 c 1
 184 222 l 1
 194 120 242 90 310 90 c 0
 355 90 393 104 439 136 c 1
 498 56 l 1
 446 14 380 -16 297 -16 c 0
 127 -16 38 96 38 262 c 0
 38 422 124 546 279 546 c 0
 429 546 518 446 518 277 c 0
377 311 m 1
 377 317 l 2
 377 397 350 449 282 449 c 0
 226 449 191 411 184 311 c 1
 377 311 l 1
EndSplineSet
EndChar

StartChar: uni00EA
Encoding: 234 234 169
Width: 552
Flags: W
LayerCount: 2
Fore
SplineSet
282 713 m 1
 150 624 l 1
 98 684 l 1
 238 815 l 1
 326 815 l 1
 466 684 l 1
 413 624 l 1
 282 713 l 1
518 277 m 0
 518 259 516 237 515 222 c 1
 184 222 l 1
 194 120 242 90 310 90 c 0
 355 90 393 104 439 136 c 1
 498 56 l 1
 446 14 380 -16 297 -16 c 0
 127 -16 38 96 38 262 c 0
 38 422 124 546 279 546 c 0
 429 546 518 446 518 277 c 0
377 311 m 1
 377 317 l 2
 377 397 350 449 282 449 c 0
 226 449 191 411 184 311 c 1
 377 311 l 1
EndSplineSet
EndChar

StartChar: uni00EB
Encoding: 235 235 170
Width: 552
Flags: W
LayerCount: 2
Fore
SplineSet
168 792 m 0
 211 792 243 759 243 718 c 0
 243 677 211 644 168 644 c 0
 126 644 93 677 93 718 c 0
 93 759 126 792 168 792 c 0
394 792 m 0
 437 792 470 759 470 718 c 0
 470 677 437 644 394 644 c 0
 353 644 320 677 320 718 c 0
 320 759 353 792 394 792 c 0
518 277 m 0
 518 259 516 237 515 222 c 1
 184 222 l 1
 194 120 242 90 310 90 c 0
 355 90 393 104 439 136 c 1
 498 56 l 1
 446 14 380 -16 297 -16 c 0
 127 -16 38 96 38 262 c 0
 38 422 124 546 279 546 c 0
 429 546 518 446 518 277 c 0
377 311 m 1
 377 317 l 2
 377 397 350 449 282 449 c 0
 226 449 192 412 184 311 c 1
 377 311 l 1
EndSplineSet
EndChar

StartChar: uni00EC
Encoding: 236 236 171
Width: 279
Flags: W
LayerCount: 2
Fore
SplineSet
71 827 m 1
 284 699 l 1
 244 626 l 1
 14 718 l 1
 71 827 l 1
210 530 m 1
 210 0 l 1
 68 0 l 1
 68 530 l 1
 210 530 l 1
EndSplineSet
EndChar

StartChar: uni00ED
Encoding: 237 237 172
Width: 279
Flags: W
LayerCount: 2
Fore
SplineSet
214 827 m 1
 270 718 l 1
 40 626 l 1
 0 699 l 1
 214 827 l 1
210 530 m 1
 210 0 l 1
 68 0 l 1
 68 530 l 1
 210 530 l 1
EndSplineSet
EndChar

StartChar: uni00EE
Encoding: 238 238 173
Width: 279
Flags: W
LayerCount: 2
Fore
SplineSet
7 624 m 1
 -45 684 l 1
 95 815 l 1
 183 815 l 1
 323 684 l 1
 270 624 l 1
 139 713 l 1
 7 624 l 1
210 530 m 1
 210 0 l 1
 68 0 l 1
 68 530 l 1
 210 530 l 1
EndSplineSet
EndChar

StartChar: uni00EF
Encoding: 239 239 174
Width: 279
Flags: W
LayerCount: 2
Fore
SplineSet
25 792 m 0
 68 792 100 759 100 718 c 0
 100 677 68 644 25 644 c 0
 -17 644 -50 677 -50 718 c 0
 -50 759 -17 792 25 792 c 0
251 792 m 0
 294 792 327 759 327 718 c 0
 327 677 294 644 251 644 c 0
 210 644 177 677 177 718 c 0
 177 759 210 792 251 792 c 0
210 530 m 1
 210 0 l 1
 68 0 l 1
 68 530 l 1
 210 530 l 1
EndSplineSet
EndChar

StartChar: uni00F0
Encoding: 240 240 175
Width: 577
Flags: W
LayerCount: 2
Fore
SplineSet
353 668 m 1
 488 572 533 445 533 274 c 0
 533 109 440 -16 282 -16 c 0
 145 -16 38 76 38 234 c 0
 38 366 120 478 244 478 c 0
 303 478 344 459 380 427 c 1
 363 492 333 542 274 588 c 1
 215 529 l 1
 124 572 l 1
 185 636 l 1
 150 648 119 655 89 661 c 1
 117 756 l 1
 167 747 210 737 263 716 c 1
 336 793 l 1
 411 728 l 1
 353 668 l 1
283 89 m 0
 352 89 389 145 389 258 c 0
 389 282 388 304 388 327 c 1
 361 359 326 377 280 377 c 0
 208 377 183 319 183 237 c 0
 183 135 222 89 283 89 c 0
EndSplineSet
EndChar

StartChar: uni00F1
Encoding: 241 241 176
Width: 575
Flags: W
LayerCount: 2
Fore
SplineSet
236 686 m 0
 213 686 199 670 183 641 c 1
 110 677 l 1
 134 737 177 788 234 788 c 0
 265 788 284 777 304 763 c 0
 321 751 334 742 350 742 c 0
 372 742 386 757 403 786 c 1
 476 750 l 1
 450 685 407 640 351 640 c 0
 323 640 303 650 284 664 c 0
 266 677 253 686 236 686 c 0
364 546 m 0
 457 546 513 486 513 386 c 2
 513 0 l 1
 371 0 l 1
 371 362 l 2
 371 423 348 440 313 440 c 0
 272 440 240 413 210 366 c 1
 210 0 l 1
 68 0 l 1
 68 530 l 1
 192 530 l 1
 203 463 l 1
 245 516 297 546 364 546 c 0
EndSplineSet
EndChar

StartChar: uni00F2
Encoding: 242 242 177
Width: 584
Flags: W
LayerCount: 2
Fore
SplineSet
224 827 m 1
 437 699 l 1
 397 626 l 1
 167 718 l 1
 224 827 l 1
293 546 m 0
 451 546 546 441 546 265 c 0
 546 97 451 -16 292 -16 c 0
 134 -16 38 89 38 265 c 0
 38 434 133 546 293 546 c 0
293 440 m 0
 222 440 186 386 186 265 c 0
 186 143 222 90 292 90 c 0
 362 90 398 144 398 265 c 0
 398 387 362 440 293 440 c 0
EndSplineSet
EndChar

StartChar: uni00F3
Encoding: 243 243 178
Width: 584
Flags: W
LayerCount: 2
Fore
SplineSet
366 827 m 1
 422 718 l 1
 192 626 l 1
 152 699 l 1
 366 827 l 1
293 546 m 0
 451 546 546 441 546 265 c 0
 546 97 451 -16 292 -16 c 0
 134 -16 38 89 38 265 c 0
 38 434 133 546 293 546 c 0
293 440 m 0
 222 440 186 386 186 265 c 0
 186 143 222 90 292 90 c 0
 362 90 398 144 398 265 c 0
 398 387 362 440 293 440 c 0
EndSplineSet
EndChar

StartChar: uni00F4
Encoding: 244 244 179
Width: 584
Flags: W
LayerCount: 2
Fore
SplineSet
160 624 m 1
 108 684 l 1
 248 815 l 1
 336 815 l 1
 476 684 l 1
 423 624 l 1
 292 713 l 1
 160 624 l 1
293 546 m 0
 451 546 546 441 546 265 c 0
 546 97 451 -16 292 -16 c 0
 134 -16 38 89 38 265 c 0
 38 434 133 546 293 546 c 0
293 440 m 0
 222 440 186 386 186 265 c 0
 186 143 222 90 292 90 c 0
 362 90 398 144 398 265 c 0
 398 387 362 440 293 440 c 0
EndSplineSet
EndChar

StartChar: uni00F5
Encoding: 245 245 180
Width: 584
Flags: W
LayerCount: 2
Fore
SplineSet
350 640 m 0
 322 640 302 650 283 664 c 0
 265 677 252 686 235 686 c 0
 212 686 198 670 182 641 c 1
 109 677 l 1
 133 737 176 788 233 788 c 0
 264 788 283 777 303 763 c 0
 320 751 333 742 349 742 c 0
 371 742 385 757 402 786 c 1
 475 750 l 1
 449 685 406 640 350 640 c 0
293 546 m 0
 451 546 546 441 546 265 c 0
 546 97 451 -16 292 -16 c 0
 134 -16 38 89 38 265 c 0
 38 434 133 546 293 546 c 0
293 440 m 0
 222 440 186 386 186 265 c 0
 186 143 222 90 292 90 c 0
 362 90 398 144 398 265 c 0
 398 387 362 440 293 440 c 0
EndSplineSet
EndChar

StartChar: uni00F6
Encoding: 246 246 181
Width: 584
Flags: W
LayerCount: 2
Fore
SplineSet
178 792 m 0
 221 792 253 759 253 718 c 0
 253 677 221 644 178 644 c 0
 136 644 103 677 103 718 c 0
 103 759 136 792 178 792 c 0
404 792 m 0
 447 792 480 759 480 718 c 0
 480 677 447 644 404 644 c 0
 363 644 330 677 330 718 c 0
 330 759 363 792 404 792 c 0
293 546 m 0
 451 546 546 441 546 265 c 0
 546 97 451 -16 292 -16 c 0
 134 -16 38 89 38 265 c 0
 38 434 133 546 293 546 c 0
293 440 m 0
 222 440 186 386 186 265 c 0
 186 143 222 90 292 90 c 0
 362 90 398 144 398 265 c 0
 398 387 362 440 293 440 c 0
EndSplineSet
EndChar

StartChar: uni00F7
Encoding: 247 247 182
Width: 514
Flags: W
LayerCount: 2
Fore
SplineSet
257 656 m 0
 305 656 343 617 343 571 c 0
 343 524 305 485 257 485 c 0
 210 485 172 524 172 571 c 0
 172 617 210 656 257 656 c 0
52 277 m 1
 52 388 l 1
 463 388 l 1
 463 277 l 1
 52 277 l 1
257 180 m 0
 305 180 343 141 343 95 c 0
 343 48 305 9 257 9 c 0
 210 9 172 48 172 95 c 0
 172 141 210 180 257 180 c 0
EndSplineSet
EndChar

StartChar: uni00F8
Encoding: 248 248 183
Width: 584
Flags: W
LayerCount: 2
Fore
SplineSet
433 509 m 1
 506 465 546 380 546 265 c 0
 546 97 451 -16 292 -16 c 0
 279 -16 267 -15 254 -14 c 1
 217 -134 l 1
 111 -103 l 1
 151 21 l 1
 79 65 38 150 38 265 c 0
 38 434 133 546 293 546 c 0
 306 546 318 545 330 544 c 1
 369 664 l 1
 475 633 l 1
 433 509 l 1
293 440 m 0
 218 440 177 386 177 265 c 0
 177 191 187 147 207 121 c 1
 313 439 l 1
 307 440 300 440 293 440 c 0
292 90 m 0
 367 90 407 144 407 265 c 0
 407 339 397 383 377 408 c 1
 272 91 l 1
 278 90 285 90 292 90 c 0
EndSplineSet
EndChar

StartChar: uni00F9
Encoding: 249 249 184
Width: 570
Flags: W
LayerCount: 2
Fore
SplineSet
214 827 m 1
 427 699 l 1
 387 626 l 1
 157 718 l 1
 214 827 l 1
501 530 m 1
 501 0 l 1
 378 0 l 1
 371 71 l 1
 332 12 281 -16 210 -16 c 0
 112 -16 62 47 62 149 c 2
 62 530 l 1
 204 530 l 1
 204 167 l 2
 204 109 223 90 262 90 c 0
 301 90 334 116 359 159 c 1
 359 530 l 1
 501 530 l 1
EndSplineSet
EndChar

StartChar: uni00FA
Encoding: 250 250 185
Width: 570
Flags: W
LayerCount: 2
Fore
SplineSet
356 827 m 1
 412 718 l 1
 182 626 l 1
 142 699 l 1
 356 827 l 1
501 530 m 1
 501 0 l 1
 378 0 l 1
 371 71 l 1
 332 12 281 -16 210 -16 c 0
 112 -16 62 47 62 149 c 2
 62 530 l 1
 204 530 l 1
 204 167 l 2
 204 109 223 90 262 90 c 0
 301 90 334 116 359 159 c 1
 359 530 l 1
 501 530 l 1
EndSplineSet
EndChar

StartChar: uni00FB
Encoding: 251 251 186
Width: 570
Flags: W
LayerCount: 2
Fore
SplineSet
150 624 m 1
 98 684 l 1
 238 815 l 1
 326 815 l 1
 466 684 l 1
 413 624 l 1
 282 713 l 1
 150 624 l 1
501 530 m 1
 501 0 l 1
 378 0 l 1
 371 71 l 1
 332 12 281 -16 210 -16 c 0
 112 -16 62 47 62 149 c 2
 62 530 l 1
 204 530 l 1
 204 167 l 2
 204 109 223 90 262 90 c 0
 301 90 334 116 359 159 c 1
 359 530 l 1
 501 530 l 1
EndSplineSet
EndChar

StartChar: uni00FC
Encoding: 252 252 187
Width: 570
Flags: W
LayerCount: 2
Fore
SplineSet
168 792 m 0
 211 792 243 759 243 718 c 0
 243 677 211 644 168 644 c 0
 126 644 93 677 93 718 c 0
 93 759 126 792 168 792 c 0
394 792 m 0
 437 792 470 759 470 718 c 0
 470 677 437 644 394 644 c 0
 353 644 320 677 320 718 c 0
 320 759 353 792 394 792 c 0
501 530 m 1
 501 0 l 1
 378 0 l 1
 371 71 l 1
 332 12 281 -16 210 -16 c 0
 112 -16 62 47 62 149 c 2
 62 530 l 1
 204 530 l 1
 204 167 l 2
 204 109 223 90 262 90 c 0
 301 90 334 116 359 159 c 1
 359 530 l 1
 501 530 l 1
EndSplineSet
EndChar

StartChar: uni00FD
Encoding: 253 253 188
Width: 512
Flags: W
LayerCount: 2
Fore
SplineSet
330 827 m 1
 386 718 l 1
 156 626 l 1
 116 699 l 1
 330 827 l 1
514 530 m 1
 343 -1 l 2
 302 -130 219 -209 57 -220 c 1
 42 -118 l 1
 147 -104 183 -72 212 0 c 1
 163 0 l 1
 -2 530 l 1
 149 530 l 1
 255 92 l 1
 367 530 l 1
 514 530 l 1
EndSplineSet
EndChar

StartChar: uni00FE
Encoding: 254 254 189
Width: 590
Flags: W
LayerCount: 2
Fore
SplineSet
352 546 m 0
 492 546 552 437 552 266 c 0
 552 104 474 -16 342 -16 c 0
 288 -16 243 3 210 41 c 1
 210 -202 l 1
 68 -220 l 1
 68 741 l 1
 210 757 l 1
 210 477 l 1
 251 527 304 546 352 546 c 0
300 90 m 0
 365 90 404 141 404 265 c 0
 404 398 369 441 309 441 c 0
 269 441 235 413 210 372 c 1
 210 142 l 1
 233 107 263 90 300 90 c 0
EndSplineSet
EndChar

StartChar: uni00FF
Encoding: 255 255 190
Width: 512
Flags: W
LayerCount: 2
Fore
SplineSet
142 792 m 0
 185 792 217 759 217 718 c 0
 217 677 185 644 142 644 c 0
 100 644 67 677 67 718 c 0
 67 759 100 792 142 792 c 0
368 792 m 0
 411 792 444 759 444 718 c 0
 444 677 411 644 368 644 c 0
 327 644 294 677 294 718 c 0
 294 759 327 792 368 792 c 0
514 530 m 1
 343 -1 l 2
 302 -130 219 -209 57 -220 c 1
 42 -118 l 1
 147 -104 183 -72 212 0 c 1
 163 0 l 1
 -2 530 l 1
 149 530 l 1
 255 92 l 1
 367 530 l 1
 514 530 l 1
EndSplineSet
EndChar

StartChar: uni0100
Encoding: 256 256 191
Width: 586
Flags: W
LayerCount: 2
Fore
SplineSet
442 784 m 1
 144 784 l 1
 144 884 l 1
 442 884 l 1
 442 784 l 1
439 0 m 1
 400 155 l 1
 183 155 l 1
 144 0 l 1
 -9 0 l 1
 204 692 l 1
 383 692 l 1
 595 0 l 1
 439 0 l 1
210 264 m 1
 372 264 l 1
 291 583 l 1
 210 264 l 1
EndSplineSet
EndChar

StartChar: uni0101
Encoding: 257 257 192
Width: 545
Flags: W
LayerCount: 2
Fore
SplineSet
415 658 m 1
 117 658 l 1
 117 758 l 1
 415 758 l 1
 415 658 l 1
473 147 m 2
 473 104 486 89 511 80 c 1
 481 -14 l 1
 421 -8 381 11 359 63 c 1
 321 6 263 -16 200 -16 c 0
 94 -16 28 52 28 148 c 0
 28 264 116 327 272 327 c 2
 333 327 l 1
 333 353 l 2
 333 419 305 440 239 440 c 0
 204 440 152 430 99 412 c 1
 66 507 l 1
 132 533 202 546 262 546 c 0
 409 546 473 481 473 361 c 2
 473 147 l 2
240 86 m 0
 280 86 312 107 333 145 c 1
 333 246 l 1
 287 246 l 2
 209 246 171 218 171 160 c 0
 171 113 195 86 240 86 c 0
EndSplineSet
EndChar

StartChar: uni0102
Encoding: 258 258 193
Width: 586
Flags: W
LayerCount: 2
Fore
SplineSet
293 752 m 0
 194 752 134 823 126 905 c 1
 207 920 l 1
 219 881 246 853 293 853 c 0
 339 853 367 881 380 920 c 1
 461 905 l 1
 453 823 392 752 293 752 c 0
439 0 m 1
 400 155 l 1
 183 155 l 1
 144 0 l 1
 -9 0 l 1
 204 692 l 1
 383 692 l 1
 595 0 l 1
 439 0 l 1
211 264 m 1
 372 264 l 1
 291 583 l 1
 211 264 l 1
EndSplineSet
EndChar

StartChar: uni0103
Encoding: 259 259 194
Width: 545
Flags: W
LayerCount: 2
Fore
SplineSet
265 635 m 0
 166 635 106 705 98 798 c 1
 179 813 l 1
 191 764 218 735 265 735 c 0
 311 735 339 764 352 813 c 1
 433 798 l 1
 425 705 364 635 265 635 c 0
473 147 m 2
 473 104 486 89 511 80 c 1
 481 -14 l 1
 421 -9 381 11 359 64 c 1
 321 6 264 -16 200 -16 c 0
 94 -16 28 52 28 148 c 0
 28 264 116 327 272 327 c 2
 333 327 l 1
 333 353 l 2
 333 419 305 440 239 440 c 0
 204 440 152 430 99 412 c 1
 66 507 l 1
 132 533 202 546 262 546 c 0
 409 546 473 481 473 361 c 2
 473 147 l 2
240 86 m 0
 281 86 312 107 333 144 c 1
 333 246 l 1
 287 246 l 2
 209 246 171 218 171 160 c 0
 171 113 195 86 240 86 c 0
EndSplineSet
EndChar

StartChar: uni0104
Encoding: 260 260 195
Width: 586
Flags: W
LayerCount: 2
Fore
SplineSet
522 0 m 1
 423 -38 402 -75 402 -105 c 0
 402 -135 419 -151 456 -151 c 0
 476 -151 494 -149 517 -144 c 1
 507 -235 l 1
 486 -239 465 -242 439 -242 c 0
 355 -242 297 -198 297 -130 c 0
 297 -58 347 -10 433 24 c 1
 400 155 l 1
 183 155 l 1
 144 0 l 1
 -9 0 l 1
 204 692 l 1
 383 692 l 1
 595 0 l 1
 522 0 l 1
210 264 m 1
 372 264 l 1
 291 583 l 1
 210 264 l 1
EndSplineSet
EndChar

StartChar: uni0105
Encoding: 261 261 196
Width: 545
Flags: W
LayerCount: 2
Fore
SplineSet
482 -14 m 1
 383 -52 362 -89 362 -119 c 0
 362 -149 379 -165 416 -165 c 0
 436 -165 454 -163 477 -158 c 1
 467 -249 l 1
 446 -253 425 -256 399 -256 c 0
 315 -256 257 -212 257 -144 c 0
 257 -71 309 -22 398 12 c 1
 382 24 369 40 359 63 c 1
 321 6 263 -16 200 -16 c 0
 94 -16 28 52 28 148 c 0
 28 264 116 327 272 327 c 2
 333 327 l 1
 333 353 l 2
 333 419 305 440 239 440 c 0
 204 440 152 430 99 412 c 1
 66 507 l 1
 132 533 202 546 262 546 c 0
 409 546 473 481 473 361 c 2
 473 147 l 2
 473 104 486 89 511 80 c 1
 481 -13 l 1
 482 -14 l 1
333 145 m 1
 333 246 l 1
 287 246 l 2
 209 246 171 218 171 160 c 0
 171 113 195 86 240 86 c 0
 280 86 312 107 333 145 c 1
EndSplineSet
EndChar

StartChar: uni0106
Encoding: 262 262 197
Width: 571
Flags: W
LayerCount: 2
Fore
SplineSet
433 945 m 1
 487 837 l 1
 253 752 l 1
 217 825 l 1
 433 945 l 1
346 708 m 0
 436 708 495 681 553 633 c 1
 480 548 l 1
 441 580 401 597 354 597 c 0
 261 597 193 527 193 347 c 0
 193 173 259 100 355 100 c 0
 412 100 453 125 493 156 c 1
 561 71 l 1
 517 26 444 -16 349 -16 c 0
 164 -16 38 111 38 347 c 0
 38 580 172 708 346 708 c 0
EndSplineSet
EndChar

StartChar: uni0107
Encoding: 263 263 198
Width: 478
Flags: W
LayerCount: 2
Fore
SplineSet
365 827 m 1
 421 718 l 1
 191 626 l 1
 151 699 l 1
 365 827 l 1
291 546 m 0
 362 546 417 525 467 482 c 1
 405 398 l 1
 371 424 340 436 301 436 c 0
 230 436 188 385 188 262 c 0
 188 139 233 98 300 98 c 0
 339 98 366 110 405 135 c 1
 467 46 l 1
 419 7 363 -16 293 -16 c 0
 135 -16 38 92 38 261 c 0
 38 429 136 546 291 546 c 0
EndSplineSet
EndChar

StartChar: uni010C
Encoding: 268 268 199
Width: 571
Flags: W
LayerCount: 2
Fore
SplineSet
484 935 m 1
 536 875 l 1
 396 751 l 1
 308 751 l 1
 168 875 l 1
 221 935 l 1
 352 852 l 1
 484 935 l 1
346 708 m 0
 436 708 495 681 553 633 c 1
 480 548 l 1
 441 580 401 597 354 597 c 0
 261 597 193 527 193 347 c 0
 193 173 259 100 355 100 c 0
 412 100 453 125 493 156 c 1
 561 71 l 1
 517 26 444 -16 349 -16 c 0
 164 -16 38 111 38 347 c 0
 38 580 172 708 346 708 c 0
EndSplineSet
EndChar

StartChar: uni010D
Encoding: 269 269 200
Width: 478
Flags: W
LayerCount: 2
Fore
SplineSet
422 806 m 1
 474 746 l 1
 334 615 l 1
 246 615 l 1
 106 746 l 1
 159 806 l 1
 290 717 l 1
 422 806 l 1
291 546 m 0
 362 546 417 525 467 482 c 1
 405 398 l 1
 371 424 340 436 301 436 c 0
 230 436 188 385 188 262 c 0
 188 139 233 98 300 98 c 0
 339 98 366 110 405 135 c 1
 467 46 l 1
 419 7 363 -16 293 -16 c 0
 135 -16 38 92 38 261 c 0
 38 429 136 546 291 546 c 0
EndSplineSet
EndChar

StartChar: uni010E
Encoding: 270 270 201
Width: 650
Flags: W
LayerCount: 2
Fore
SplineSet
429 935 m 1
 481 875 l 1
 341 751 l 1
 253 751 l 1
 113 875 l 1
 166 935 l 1
 297 852 l 1
 429 935 l 1
254 692 m 2
 437 692 611 635 611 349 c 0
 611 70 441 0 271 0 c 2
 73 0 l 1
 73 692 l 1
 254 692 l 2
277 584 m 2
 220 584 l 1
 220 108 l 1
 280 108 l 2
 381 108 458 155 458 349 c 0
 458 547 377 584 277 584 c 2
EndSplineSet
EndChar

StartChar: uni010F
Encoding: 271 271 202
Width: 665
Flags: W
LayerCount: 2
Fore
SplineSet
382 493 m 1
 382 757 l 1
 524 741 l 1
 524 0 l 1
 399 0 l 1
 391 65 l 1
 359 19 310 -16 239 -16 c 0
 106 -16 38 96 38 265 c 0
 38 429 122 546 253 546 c 0
 307 546 350 524 382 493 c 1
592 756 m 1
 702 741 l 1
 648 533 l 1
 569 545 l 1
 592 756 l 1
281 90 m 0
 324 90 354 112 382 154 c 1
 382 391 l 1
 356 422 329 441 290 441 c 0
 228 441 186 389 186 265 c 0
 186 132 224 90 281 90 c 0
EndSplineSet
EndChar

StartChar: uni0110
Encoding: 272 272 203
Width: 663
Flags: W
LayerCount: 2
Fore
SplineSet
268 692 m 2
 451 692 625 635 625 349 c 0
 625 70 455 0 285 0 c 2
 87 0 l 1
 87 307 l 1
 15 307 l 1
 15 399 l 1
 87 399 l 1
 87 692 l 1
 268 692 l 2
294 108 m 2
 395 108 471 155 471 349 c 0
 471 547 390 584 291 584 c 2
 234 584 l 1
 234 399 l 1
 374 399 l 1
 374 307 l 1
 234 307 l 1
 234 108 l 1
 294 108 l 2
EndSplineSet
EndChar

StartChar: uni0111
Encoding: 273 273 204
Width: 607
Flags: W
LayerCount: 2
Fore
SplineSet
524 685 m 1
 596 685 l 1
 596 598 l 1
 524 598 l 1
 524 0 l 1
 399 0 l 1
 391 65 l 1
 359 19 310 -16 239 -16 c 0
 106 -16 38 96 38 265 c 0
 38 429 122 546 253 546 c 0
 307 546 350 524 382 493 c 1
 382 598 l 1
 245 598 l 1
 245 685 l 1
 382 685 l 1
 382 757 l 1
 524 741 l 1
 524 685 l 1
281 90 m 0
 324 90 354 112 382 154 c 1
 382 391 l 1
 356 422 329 441 290 441 c 0
 228 441 186 389 186 265 c 0
 186 132 224 90 281 90 c 0
EndSplineSet
EndChar

StartChar: uni0112
Encoding: 274 274 205
Width: 528
Flags: W
LayerCount: 2
Fore
SplineSet
430 784 m 1
 132 784 l 1
 132 884 l 1
 430 884 l 1
 430 784 l 1
486 692 m 1
 470 585 l 1
 220 585 l 1
 220 405 l 1
 438 405 l 1
 438 299 l 1
 220 299 l 1
 220 108 l 1
 488 108 l 1
 488 0 l 1
 73 0 l 1
 73 692 l 1
 486 692 l 1
EndSplineSet
EndChar

StartChar: uni0113
Encoding: 275 275 206
Width: 552
Flags: W
LayerCount: 2
Fore
SplineSet
431 658 m 1
 133 658 l 1
 133 758 l 1
 431 758 l 1
 431 658 l 1
518 277 m 0
 518 259 516 237 515 222 c 1
 184 222 l 1
 194 120 242 90 310 90 c 0
 355 90 393 104 439 136 c 1
 498 56 l 1
 446 14 380 -16 297 -16 c 0
 127 -16 38 96 38 262 c 0
 38 422 124 546 279 546 c 0
 429 546 518 446 518 277 c 0
377 311 m 1
 377 317 l 2
 377 397 350 449 282 449 c 0
 226 449 192 412 184 311 c 1
 377 311 l 1
EndSplineSet
EndChar

StartChar: uni0116
Encoding: 278 278 207
Width: 528
Flags: W
LayerCount: 2
Fore
SplineSet
281 929 m 0
 332 929 368 893 368 846 c 0
 368 799 332 763 281 763 c 0
 230 763 195 799 195 846 c 0
 195 893 230 929 281 929 c 0
486 692 m 1
 470 585 l 1
 220 585 l 1
 220 405 l 1
 438 405 l 1
 438 299 l 1
 220 299 l 1
 220 108 l 1
 488 108 l 1
 488 0 l 1
 73 0 l 1
 73 692 l 1
 486 692 l 1
EndSplineSet
EndChar

StartChar: uni0117
Encoding: 279 279 208
Width: 552
Flags: W
LayerCount: 2
Fore
SplineSet
281 803 m 0
 332 803 368 767 368 720 c 0
 368 673 332 637 281 637 c 0
 230 637 195 673 195 720 c 0
 195 767 230 803 281 803 c 0
518 277 m 0
 518 259 516 237 515 222 c 1
 184 222 l 1
 194 120 242 90 310 90 c 0
 355 90 393 104 439 136 c 1
 498 56 l 1
 446 14 380 -16 297 -16 c 0
 127 -16 38 96 38 262 c 0
 38 422 124 546 279 546 c 0
 429 546 518 446 518 277 c 0
377 311 m 1
 377 317 l 2
 377 397 350 449 282 449 c 0
 226 449 192 412 184 311 c 1
 377 311 l 1
EndSplineSet
EndChar

StartChar: uni0118
Encoding: 280 280 209
Width: 528
Flags: W
LayerCount: 2
Fore
SplineSet
220 108 m 1
 488 108 l 1
 488 0 l 1
 448 0 l 1
 349 -38 328 -75 328 -105 c 0
 328 -135 345 -151 382 -151 c 0
 402 -151 420 -149 443 -144 c 1
 433 -235 l 1
 412 -239 391 -242 365 -242 c 0
 281 -242 223 -198 223 -130 c 0
 223 -73 254 -32 309 0 c 1
 73 0 l 1
 73 692 l 1
 486 692 l 1
 470 585 l 1
 220 585 l 1
 220 405 l 1
 438 405 l 1
 438 299 l 1
 220 299 l 1
 220 108 l 1
EndSplineSet
EndChar

StartChar: uni0119
Encoding: 281 281 210
Width: 552
Flags: W
LayerCount: 2
Fore
SplineSet
518 277 m 0
 518 259 516 237 515 222 c 1
 184 222 l 1
 194 120 242 90 310 90 c 0
 355 90 393 104 439 136 c 1
 498 56 l 1
 467 31 431 10 390 -2 c 1
 313 -37 296 -70 296 -97 c 0
 296 -127 313 -143 349 -143 c 0
 369 -143 387 -141 410 -136 c 1
 400 -227 l 1
 379 -231 358 -234 332 -234 c 0
 249 -234 190 -190 190 -122 c 0
 190 -75 218 -39 262 -14 c 1
 115 0 38 108 38 262 c 0
 38 422 124 546 279 546 c 0
 429 546 518 446 518 277 c 0
377 311 m 1
 377 317 l 2
 377 397 350 449 282 449 c 0
 226 449 192 412 184 311 c 1
 377 311 l 1
EndSplineSet
EndChar

StartChar: uni011A
Encoding: 282 282 211
Width: 528
Flags: W
LayerCount: 2
Fore
SplineSet
414 935 m 1
 466 875 l 1
 326 751 l 1
 238 751 l 1
 98 875 l 1
 151 935 l 1
 282 852 l 1
 414 935 l 1
486 692 m 1
 470 585 l 1
 220 585 l 1
 220 405 l 1
 438 405 l 1
 438 299 l 1
 220 299 l 1
 220 108 l 1
 488 108 l 1
 488 0 l 1
 73 0 l 1
 73 692 l 1
 486 692 l 1
EndSplineSet
EndChar

StartChar: uni011B
Encoding: 283 283 212
Width: 552
Flags: W
LayerCount: 2
Fore
SplineSet
326 615 m 1
 238 615 l 1
 98 746 l 1
 151 806 l 1
 282 717 l 1
 414 806 l 1
 466 746 l 1
 326 615 l 1
518 277 m 0
 518 259 516 237 515 222 c 1
 184 222 l 1
 194 120 242 90 310 90 c 0
 355 90 393 104 439 136 c 1
 498 56 l 1
 446 14 380 -16 297 -16 c 0
 127 -16 38 96 38 262 c 0
 38 422 124 546 279 546 c 0
 429 546 518 446 518 277 c 0
377 311 m 1
 377 317 l 2
 377 397 350 449 282 449 c 0
 226 449 191 411 184 311 c 1
 377 311 l 1
EndSplineSet
EndChar

StartChar: uni011E
Encoding: 286 286 213
Width: 641
Flags: W
LayerCount: 2
Fore
SplineSet
352 752 m 0
 253 752 193 823 185 905 c 1
 266 920 l 1
 278 881 305 853 352 853 c 0
 398 853 426 881 439 920 c 1
 520 905 l 1
 512 823 451 752 352 752 c 0
362 708 m 0
 461 708 530 674 588 625 c 1
 511 545 l 1
 464 581 425 599 368 599 c 0
 270 599 192 526 192 346 c 0
 192 161 244 94 346 94 c 0
 383 94 418 102 449 119 c 1
 449 288 l 1
 352 288 l 1
 337 395 l 1
 592 395 l 1
 592 54 l 1
 522 11 437 -16 349 -16 c 0
 145 -16 38 109 38 347 c 0
 38 581 183 708 362 708 c 0
EndSplineSet
EndChar

StartChar: uni011F
Encoding: 287 287 214
Width: 544
Flags: W
LayerCount: 2
Fore
SplineSet
271 635 m 0
 172 635 112 705 104 798 c 1
 185 813 l 1
 197 764 224 735 271 735 c 0
 317 735 345 764 358 813 c 1
 439 798 l 1
 431 705 370 635 271 635 c 0
509 610 m 1
 544 501 l 1
 505 486 455 481 391 481 c 1
 456 452 489 412 489 345 c 0
 489 242 406 167 271 167 c 0
 248 167 228 169 209 174 c 1
 197 166 189 153 189 139 c 0
 189 121 198 104 250 104 c 2
 331 104 l 2
 451 104 528 40 528 -48 c 0
 528 -155 435 -220 258 -220 c 0
 64 -220 11 -157 11 -51 c 1
 138 -51 l 1
 138 -101 160 -123 261 -123 c 0
 359 -123 385 -96 385 -58 c 0
 385 -22 358 0 302 0 c 2
 224 0 l 2
 113 0 67 48 67 104 c 0
 67 142 91 179 129 203 c 1
 63 239 35 286 35 354 c 0
 35 471 128 546 261 546 c 0
 383 543 445 574 509 610 c 1
264 451 m 0
 210 451 177 414 177 356 c 0
 177 295 211 259 265 259 c 0
 322 259 352 293 352 358 c 0
 352 421 323 451 264 451 c 0
EndSplineSet
EndChar

StartChar: uni0122
Encoding: 290 290 215
Width: 641
Flags: W
LayerCount: 2
Fore
SplineSet
362 708 m 0
 461 708 530 674 588 625 c 1
 511 545 l 1
 464 581 425 599 368 599 c 0
 270 599 192 526 192 346 c 0
 192 161 244 94 346 94 c 0
 383 94 418 102 449 119 c 1
 449 288 l 1
 352 288 l 1
 337 395 l 1
 592 395 l 1
 592 54 l 1
 522 11 437 -16 349 -16 c 0
 145 -16 38 109 38 347 c 0
 38 581 183 708 362 708 c 0
348 -70 m 0
 390 -70 421 -101 421 -142 c 0
 421 -166 414 -185 395 -225 c 2
 349 -318 l 1
 277 -318 l 1
 304 -203 l 1
 286 -188 274 -169 274 -142 c 0
 274 -102 305 -70 348 -70 c 0
EndSplineSet
EndChar

StartChar: uni0123
Encoding: 291 291 216
Width: 544
Flags: W
LayerCount: 2
Fore
SplineSet
270 578 m 0
 227 578 196 609 196 651 c 0
 196 674 203 693 222 733 c 2
 268 826 l 1
 340 826 l 1
 313 711 l 1
 331 697 344 677 344 651 c 0
 344 611 312 578 270 578 c 0
509 610 m 1
 544 501 l 1
 505 486 455 481 391 481 c 1
 456 452 489 412 489 345 c 0
 489 242 406 167 271 167 c 0
 248 167 228 169 209 174 c 1
 197 166 189 153 189 139 c 0
 189 121 198 104 250 104 c 2
 331 104 l 2
 451 104 528 40 528 -48 c 0
 528 -155 435 -220 258 -220 c 0
 64 -220 11 -157 11 -51 c 1
 138 -51 l 1
 138 -101 160 -123 261 -123 c 0
 359 -123 385 -96 385 -58 c 0
 385 -22 358 0 302 0 c 2
 224 0 l 2
 113 0 67 48 67 104 c 0
 67 142 91 179 129 203 c 1
 63 239 35 286 35 354 c 0
 35 471 128 546 261 546 c 0
 383 543 445 574 509 610 c 1
264 451 m 0
 210 451 177 414 177 356 c 0
 177 295 211 259 265 259 c 0
 322 259 352 293 352 358 c 0
 352 421 323 451 264 451 c 0
EndSplineSet
EndChar

StartChar: uni012A
Encoding: 298 298 217
Width: 294
Flags: W
LayerCount: 2
Fore
SplineSet
295 784 m 1
 -3 784 l 1
 -3 884 l 1
 295 884 l 1
 295 784 l 1
220 692 m 1
 220 0 l 1
 73 0 l 1
 73 692 l 1
 220 692 l 1
EndSplineSet
EndChar

StartChar: uni012B
Encoding: 299 299 218
Width: 279
Flags: W
LayerCount: 2
Fore
SplineSet
288 658 m 1
 -10 658 l 1
 -10 758 l 1
 288 758 l 1
 288 658 l 1
210 530 m 1
 210 0 l 1
 68 0 l 1
 68 530 l 1
 210 530 l 1
EndSplineSet
EndChar

StartChar: uni012E
Encoding: 302 302 219
Width: 294
Flags: W
LayerCount: 2
Fore
SplineSet
73 692 m 1
 220 692 l 1
 220 0 l 1
 199 0 l 1
 100 -38 79 -75 79 -105 c 0
 79 -135 96 -151 133 -151 c 0
 153 -151 171 -149 194 -144 c 1
 184 -235 l 1
 163 -239 142 -242 116 -242 c 0
 32 -242 -26 -198 -26 -130 c 0
 -26 -69 10 -26 73 7 c 1
 73 692 l 1
EndSplineSet
EndChar

StartChar: uni012F
Encoding: 303 303 220
Width: 279
Flags: W
LayerCount: 2
Fore
SplineSet
139 637 m 0
 88 637 53 673 53 720 c 0
 53 767 88 803 139 803 c 0
 190 803 226 767 226 720 c 0
 226 673 190 637 139 637 c 0
68 8 m 1
 68 530 l 1
 210 530 l 1
 210 0 l 1
 192 0 l 1
 93 -38 72 -75 72 -105 c 0
 72 -135 89 -151 126 -151 c 0
 146 -151 164 -149 187 -144 c 1
 177 -235 l 1
 156 -239 135 -242 109 -242 c 0
 25 -242 -33 -198 -33 -130 c 0
 -33 -69 4 -25 68 8 c 1
EndSplineSet
EndChar

StartChar: uni0130
Encoding: 304 304 221
Width: 294
Flags: W
LayerCount: 2
Fore
SplineSet
146 929 m 0
 197 929 233 893 233 846 c 0
 233 799 197 763 146 763 c 0
 95 763 60 799 60 846 c 0
 60 893 95 929 146 929 c 0
220 692 m 1
 220 0 l 1
 73 0 l 1
 73 692 l 1
 220 692 l 1
EndSplineSet
EndChar

StartChar: uni0131
Encoding: 305 305 222
Width: 279
Flags: W
LayerCount: 2
Fore
SplineSet
210 530 m 1
 210 0 l 1
 68 0 l 1
 68 530 l 1
 210 530 l 1
EndSplineSet
EndChar

StartChar: uni0136
Encoding: 310 310 223
Width: 622
Flags: W
LayerCount: 2
Fore
SplineSet
220 692 m 1
 220 0 l 1
 73 0 l 1
 73 692 l 1
 220 692 l 1
613 692 m 1
 382 380 l 1
 631 0 l 1
 459 0 l 1
 226 369 l 1
 456 692 l 1
 613 692 l 1
324 -70 m 0
 366 -70 397 -101 397 -142 c 0
 397 -166 390 -185 371 -225 c 2
 325 -318 l 1
 253 -318 l 1
 280 -203 l 1
 262 -188 250 -169 250 -142 c 0
 250 -102 281 -70 324 -70 c 0
EndSplineSet
EndChar

StartChar: uni0137
Encoding: 311 311 224
Width: 541
Flags: W
LayerCount: 2
Fore
SplineSet
210 757 m 1
 210 0 l 1
 68 0 l 1
 68 741 l 1
 210 757 l 1
532 530 m 1
 363 297 l 1
 548 0 l 1
 386 0 l 1
 215 290 l 1
 385 530 l 1
 532 530 l 1
271 -70 m 0
 313 -70 344 -101 344 -142 c 0
 344 -166 337 -185 318 -225 c 2
 272 -318 l 1
 200 -318 l 1
 227 -203 l 1
 209 -188 197 -169 197 -142 c 0
 197 -102 228 -70 271 -70 c 0
EndSplineSet
EndChar

StartChar: uni0139
Encoding: 313 313 225
Width: 509
Flags: W
LayerCount: 2
Fore
SplineSet
228 945 m 1
 282 837 l 1
 48 752 l 1
 12 825 l 1
 228 945 l 1
220 692 m 1
 220 118 l 1
 494 118 l 1
 478 0 l 1
 73 0 l 1
 73 692 l 1
 220 692 l 1
EndSplineSet
EndChar

StartChar: uni013A
Encoding: 314 314 226
Width: 298
Flags: W
LayerCount: 2
Fore
SplineSet
214 994 m 1
 268 886 l 1
 34 801 l 1
 -2 874 l 1
 214 994 l 1
199 -16 m 0
 113 -16 62 36 62 128 c 2
 62 741 l 1
 204 757 l 1
 204 132 l 2
 204 109 212 97 233 97 c 0
 244 97 253 99 261 103 c 1
 290 2 l 1
 267 -8 235 -16 199 -16 c 0
EndSplineSet
EndChar

StartChar: uni013B
Encoding: 315 315 227
Width: 509
Flags: W
LayerCount: 2
Fore
SplineSet
220 692 m 1
 220 118 l 1
 494 118 l 1
 478 0 l 1
 73 0 l 1
 73 692 l 1
 220 692 l 1
278 -70 m 0
 320 -70 351 -101 351 -142 c 0
 351 -166 344 -185 325 -225 c 2
 279 -318 l 1
 207 -318 l 1
 234 -203 l 1
 216 -188 204 -169 204 -142 c 0
 204 -102 235 -70 278 -70 c 0
EndSplineSet
EndChar

StartChar: uni013C
Encoding: 316 316 228
Width: 298
Flags: W
LayerCount: 2
Fore
SplineSet
199 -16 m 0
 113 -16 62 36 62 128 c 2
 62 741 l 1
 204 757 l 1
 204 132 l 2
 204 109 212 97 233 97 c 0
 244 97 253 99 261 103 c 1
 290 2 l 1
 267 -8 235 -16 199 -16 c 0
181 -70 m 0
 223 -70 254 -101 254 -142 c 0
 254 -166 247 -185 228 -225 c 2
 182 -318 l 1
 110 -318 l 1
 137 -203 l 1
 119 -188 107 -169 107 -142 c 0
 107 -102 138 -70 181 -70 c 0
EndSplineSet
EndChar

StartChar: uni013D
Encoding: 317 317 229
Width: 509
Flags: W
LayerCount: 2
Fore
SplineSet
345 484 m 1
 398 692 l 1
 288 707 l 1
 266 496 l 1
 345 484 l 1
220 692 m 1
 220 118 l 1
 494 118 l 1
 478 0 l 1
 73 0 l 1
 73 692 l 1
 220 692 l 1
EndSplineSet
EndChar

StartChar: uni013E
Encoding: 318 318 230
Width: 351
Flags: W
LayerCount: 2
Fore
SplineSet
199 -16 m 0
 113 -16 62 36 62 128 c 2
 62 741 l 1
 204 757 l 1
 204 132 l 2
 204 109 212 97 233 97 c 0
 244 97 253 99 261 103 c 1
 290 2 l 1
 267 -8 235 -16 199 -16 c 0
324 533 m 1
 378 741 l 1
 268 756 l 1
 245 545 l 1
 324 533 l 1
EndSplineSet
EndChar

StartChar: uni0141
Encoding: 321 321 231
Width: 543
Flags: W
LayerCount: 2
Fore
SplineSet
254 118 m 1
 528 118 l 1
 512 0 l 1
 107 0 l 1
 107 232 l 1
 61 204 l 1
 12 284 l 1
 107 343 l 1
 107 692 l 1
 254 692 l 1
 254 434 l 1
 390 518 l 1
 440 438 l 1
 254 323 l 1
 254 118 l 1
EndSplineSet
EndChar

StartChar: uni0142
Encoding: 322 322 232
Width: 347
Flags: W
LayerCount: 2
Fore
SplineSet
256 97 m 0
 267 97 276 99 284 103 c 1
 313 2 l 1
 290 -8 258 -16 222 -16 c 0
 136 -16 85 36 85 128 c 2
 85 274 l 1
 44 249 l 1
 -4 328 l 1
 85 384 l 1
 85 741 l 1
 227 757 l 1
 227 470 l 1
 303 516 l 1
 350 436 l 1
 227 361 l 1
 227 132 l 2
 227 109 235 97 256 97 c 0
EndSplineSet
EndChar

StartChar: uni0143
Encoding: 323 323 233
Width: 668
Flags: W
LayerCount: 2
Fore
SplineSet
421 945 m 1
 475 837 l 1
 241 752 l 1
 205 825 l 1
 421 945 l 1
595 692 m 1
 595 0 l 1
 406 0 l 1
 186 549 l 1
 194 487 206 397 206 269 c 2
 206 0 l 1
 73 0 l 1
 73 692 l 1
 258 692 l 1
 482 142 l 1
 475 189 462 285 462 388 c 2
 462 692 l 1
 595 692 l 1
EndSplineSet
EndChar

StartChar: uni0144
Encoding: 324 324 234
Width: 575
Flags: W
LayerCount: 2
Fore
SplineSet
423 718 m 1
 193 626 l 1
 153 699 l 1
 367 827 l 1
 423 718 l 1
364 546 m 0
 457 546 513 486 513 386 c 2
 513 0 l 1
 371 0 l 1
 371 362 l 2
 371 423 348 440 313 440 c 0
 272 440 240 413 210 366 c 1
 210 0 l 1
 68 0 l 1
 68 530 l 1
 192 530 l 1
 203 463 l 1
 245 516 297 546 364 546 c 0
EndSplineSet
EndChar

StartChar: uni0145
Encoding: 325 325 235
Width: 668
Flags: W
LayerCount: 2
Fore
SplineSet
595 692 m 1
 595 0 l 1
 406 0 l 1
 186 549 l 1
 194 487 206 397 206 269 c 2
 206 0 l 1
 73 0 l 1
 73 692 l 1
 258 692 l 1
 482 142 l 1
 475 189 462 285 462 388 c 2
 462 692 l 1
 595 692 l 1
337 -70 m 0
 379 -70 410 -101 410 -142 c 0
 410 -166 403 -185 384 -225 c 2
 338 -318 l 1
 266 -318 l 1
 293 -203 l 1
 275 -188 263 -169 263 -142 c 0
 263 -102 294 -70 337 -70 c 0
EndSplineSet
EndChar

StartChar: uni0146
Encoding: 326 326 236
Width: 575
Flags: W
LayerCount: 2
Fore
SplineSet
364 546 m 0
 457 546 513 486 513 386 c 2
 513 0 l 1
 371 0 l 1
 371 362 l 2
 371 423 348 440 313 440 c 0
 272 440 240 413 210 366 c 1
 210 0 l 1
 68 0 l 1
 68 530 l 1
 192 530 l 1
 203 463 l 1
 245 516 297 546 364 546 c 0
290 -70 m 0
 332 -70 363 -101 363 -142 c 0
 363 -166 356 -185 337 -225 c 2
 291 -318 l 1
 219 -318 l 1
 246 -203 l 1
 228 -188 216 -169 216 -142 c 0
 216 -102 247 -70 290 -70 c 0
EndSplineSet
EndChar

StartChar: uni0147
Encoding: 327 327 237
Width: 668
Flags: W
LayerCount: 2
Fore
SplineSet
472 935 m 1
 524 875 l 1
 384 751 l 1
 296 751 l 1
 156 875 l 1
 209 935 l 1
 340 852 l 1
 472 935 l 1
595 692 m 1
 595 0 l 1
 406 0 l 1
 186 549 l 1
 194 487 206 397 206 269 c 2
 206 0 l 1
 73 0 l 1
 73 692 l 1
 258 692 l 1
 482 142 l 1
 475 189 462 285 462 388 c 2
 462 692 l 1
 595 692 l 1
EndSplineSet
EndChar

StartChar: uni0148
Encoding: 328 328 238
Width: 575
Flags: W
LayerCount: 2
Fore
SplineSet
337 615 m 1
 249 615 l 1
 109 746 l 1
 162 806 l 1
 293 717 l 1
 425 806 l 1
 477 746 l 1
 337 615 l 1
364 546 m 0
 457 546 513 486 513 386 c 2
 513 0 l 1
 371 0 l 1
 371 362 l 2
 371 423 348 440 313 440 c 0
 272 440 240 413 210 366 c 1
 210 0 l 1
 68 0 l 1
 68 530 l 1
 192 530 l 1
 203 463 l 1
 245 516 297 546 364 546 c 0
EndSplineSet
EndChar

StartChar: uni014C
Encoding: 332 332 239
Width: 691
Flags: W
LayerCount: 2
Fore
SplineSet
494 784 m 1
 196 784 l 1
 196 884 l 1
 494 884 l 1
 494 784 l 1
346 708 m 0
 536 708 653 578 653 346 c 0
 653 119 536 -16 346 -16 c 0
 156 -16 38 115 38 346 c 0
 38 572 156 708 346 708 c 0
346 598 m 0
 248 598 193 527 193 346 c 0
 193 165 250 94 346 94 c 0
 445 94 498 165 498 346 c 0
 498 527 445 598 346 598 c 0
EndSplineSet
EndChar

StartChar: uni014D
Encoding: 333 333 240
Width: 584
Flags: W
LayerCount: 2
Fore
SplineSet
441 658 m 1
 143 658 l 1
 143 758 l 1
 441 758 l 1
 441 658 l 1
293 546 m 0
 451 546 546 441 546 265 c 0
 546 97 451 -16 292 -16 c 0
 134 -16 38 89 38 265 c 0
 38 434 133 546 293 546 c 0
293 440 m 0
 222 440 186 386 186 265 c 0
 186 143 222 90 292 90 c 0
 362 90 398 144 398 265 c 0
 398 387 362 440 293 440 c 0
EndSplineSet
EndChar

StartChar: uni0150
Encoding: 336 336 241
Width: 691
Flags: W
LayerCount: 2
Fore
SplineSet
315 948 m 1
 406 894 l 1
 281 739 l 1
 217 774 l 1
 315 948 l 1
481 940 m 1
 570 880 l 1
 436 732 l 1
 375 771 l 1
 481 940 l 1
346 708 m 0
 536 708 653 578 653 346 c 0
 653 119 536 -16 346 -16 c 0
 156 -16 38 115 38 346 c 0
 38 572 156 708 346 708 c 0
346 598 m 0
 248 598 193 527 193 346 c 0
 193 165 250 94 346 94 c 0
 445 94 498 165 498 346 c 0
 498 527 445 598 346 598 c 0
EndSplineSet
EndChar

StartChar: uni0151
Encoding: 337 337 242
Width: 584
Flags: W
LayerCount: 2
Fore
SplineSet
279 820 m 1
 370 766 l 1
 245 600 l 1
 181 636 l 1
 279 820 l 1
445 811 m 1
 534 752 l 1
 400 593 l 1
 339 633 l 1
 445 811 l 1
293 546 m 0
 451 546 546 441 546 265 c 0
 546 97 451 -16 292 -16 c 0
 134 -16 38 89 38 265 c 0
 38 434 133 546 293 546 c 0
293 440 m 0
 222 440 186 386 186 265 c 0
 186 143 222 90 292 90 c 0
 362 90 398 144 398 265 c 0
 398 387 362 440 293 440 c 0
EndSplineSet
EndChar

StartChar: uni0152
Encoding: 338 338 243
Width: 903
Flags: W
LayerCount: 2
Fore
SplineSet
863 108 m 1
 863 0 l 1
 420 0 l 1
 393 -11 362 -16 330 -16 c 0
 156 -16 38 115 38 346 c 0
 38 572 156 708 330 708 c 0
 364 708 396 703 424 692 c 1
 861 692 l 1
 845 585 l 1
 559 585 l 1
 598 537 622 475 630 405 c 1
 814 405 l 1
 814 299 l 1
 631 299 l 1
 623 225 598 158 556 108 c 1
 863 108 l 1
193 346 m 0
 193 165 250 94 336 94 c 0
 425 94 478 165 478 346 c 0
 478 527 425 598 336 598 c 0
 248 598 193 527 193 346 c 0
EndSplineSet
EndChar

StartChar: uni0153
Encoding: 339 339 244
Width: 910
Flags: W
LayerCount: 2
Fore
SplineSet
876 277 m 0
 876 259 875 237 873 222 c 1
 543 222 l 1
 553 120 600 90 668 90 c 0
 714 90 752 104 798 136 c 1
 857 56 l 1
 804 14 738 -16 656 -16 c 0
 571 -16 512 16 470 71 c 1
 429 16 371 -16 292 -16 c 0
 133 -16 38 89 38 265 c 0
 38 433 133 546 292 546 c 0
 370 546 429 515 471 462 c 1
 511 514 566 546 641 546 c 0
 788 546 876 446 876 277 c 0
736 311 m 1
 736 317 l 2
 736 397 709 449 644 449 c 0
 585 449 550 411 543 311 c 1
 736 311 l 1
292 90 m 0
 361 90 397 143 397 266 c 0
 397 386 361 440 292 440 c 0
 222 440 186 386 186 265 c 0
 186 143 222 90 292 90 c 0
EndSplineSet
EndChar

StartChar: uni0154
Encoding: 340 340 245
Width: 614
Flags: W
LayerCount: 2
Fore
SplineSet
435 837 m 1
 201 752 l 1
 165 825 l 1
 381 945 l 1
 435 837 l 1
443 0 m 1
 295 271 l 1
 220 271 l 1
 220 0 l 1
 73 0 l 1
 73 692 l 1
 289 692 l 2
 474 692 568 625 568 485 c 0
 568 393 523 338 431 298 c 1
 610 0 l 1
 443 0 l 1
220 587 m 1
 220 375 l 1
 297 375 l 2
 374 375 416 407 416 485 c 0
 416 556 375 587 286 587 c 2
 220 587 l 1
EndSplineSet
EndChar

StartChar: uni0155
Encoding: 341 341 246
Width: 396
Flags: W
LayerCount: 2
Fore
SplineSet
363 718 m 1
 133 626 l 1
 93 699 l 1
 307 827 l 1
 363 718 l 1
342 545 m 0
 361 545 378 542 395 537 c 1
 372 400 l 1
 355 404 342 407 324 407 c 0
 259 407 228 358 210 271 c 1
 210 0 l 1
 68 0 l 1
 68 530 l 1
 192 530 l 1
 204 427 l 1
 229 501 281 545 342 545 c 0
EndSplineSet
EndChar

StartChar: uni0156
Encoding: 342 342 247
Width: 614
Flags: W
LayerCount: 2
Fore
SplineSet
431 298 m 1
 610 0 l 1
 443 0 l 1
 295 271 l 1
 220 271 l 1
 220 0 l 1
 73 0 l 1
 73 692 l 1
 289 692 l 2
 474 692 568 625 568 485 c 0
 568 393 523 338 431 298 c 1
220 587 m 1
 220 375 l 1
 297 375 l 2
 374 375 416 407 416 485 c 0
 416 556 375 587 286 587 c 2
 220 587 l 1
312 -70 m 0
 354 -70 385 -101 385 -142 c 0
 385 -166 378 -185 359 -225 c 2
 313 -318 l 1
 241 -318 l 1
 268 -203 l 1
 250 -188 238 -169 238 -142 c 0
 238 -102 269 -70 312 -70 c 0
EndSplineSet
EndChar

StartChar: uni0157
Encoding: 343 343 248
Width: 396
Flags: W
LayerCount: 2
Fore
SplineSet
342 545 m 0
 361 545 378 542 395 537 c 1
 372 400 l 1
 355 404 342 407 324 407 c 0
 259 407 228 358 210 271 c 1
 210 0 l 1
 68 0 l 1
 68 530 l 1
 192 530 l 1
 204 427 l 1
 229 501 281 545 342 545 c 0
141 -70 m 0
 183 -70 214 -101 214 -142 c 0
 214 -166 207 -185 188 -225 c 2
 142 -318 l 1
 70 -318 l 1
 97 -203 l 1
 79 -188 67 -169 67 -142 c 0
 67 -102 98 -70 141 -70 c 0
EndSplineSet
EndChar

StartChar: uni0158
Encoding: 344 344 249
Width: 614
Flags: W
LayerCount: 2
Fore
SplineSet
344 751 m 1
 256 751 l 1
 116 875 l 1
 169 935 l 1
 300 852 l 1
 432 935 l 1
 484 875 l 1
 344 751 l 1
443 0 m 1
 295 271 l 1
 220 271 l 1
 220 0 l 1
 73 0 l 1
 73 692 l 1
 289 692 l 2
 474 692 568 625 568 485 c 0
 568 393 523 338 431 298 c 1
 610 0 l 1
 443 0 l 1
220 587 m 1
 220 375 l 1
 297 375 l 2
 374 375 416 407 416 485 c 0
 416 556 375 587 286 587 c 2
 220 587 l 1
EndSplineSet
EndChar

StartChar: uni0159
Encoding: 345 345 250
Width: 396
Flags: W
LayerCount: 2
Fore
SplineSet
277 615 m 1
 189 615 l 1
 49 746 l 1
 102 806 l 1
 233 717 l 1
 365 806 l 1
 417 746 l 1
 277 615 l 1
204 427 m 1
 229 501 281 545 342 545 c 0
 361 545 378 542 395 537 c 1
 372 400 l 1
 355 404 342 407 324 407 c 0
 259 407 228 358 210 271 c 1
 210 0 l 1
 68 0 l 1
 68 530 l 1
 192 530 l 1
 204 427 l 1
EndSplineSet
EndChar

StartChar: uni015A
Encoding: 346 346 251
Width: 565
Flags: W
LayerCount: 2
Fore
SplineSet
372 945 m 1
 426 837 l 1
 192 752 l 1
 156 825 l 1
 372 945 l 1
284 708 m 0
 387 708 457 677 517 621 c 1
 447 540 l 1
 398 580 350 598 294 598 c 0
 234 598 193 572 193 523 c 0
 193 475 219 455 332 420 c 0
 457 380 537 328 537 200 c 0
 537 73 437 -16 269 -16 c 0
 154 -16 70 25 13 81 c 1
 88 164 l 1
 139 121 194 95 265 95 c 0
 336 95 384 129 384 190 c 0
 384 245 357 269 252 301 c 0
 102 348 42 408 42 513 c 0
 42 631 144 708 284 708 c 0
EndSplineSet
EndChar

StartChar: uni015B
Encoding: 347 347 252
Width: 477
Flags: W
LayerCount: 2
Fore
SplineSet
322 827 m 1
 378 718 l 1
 148 626 l 1
 108 699 l 1
 322 827 l 1
246 546 m 0
 323 546 388 522 438 482 c 1
 384 401 l 1
 341 428 298 443 252 443 c 0
 205 443 179 424 179 395 c 0
 179 364 197 350 290 323 c 0
 396 294 456 250 456 156 c 0
 456 46 353 -16 227 -16 c 0
 135 -16 61 15 11 61 c 1
 81 139 l 1
 121 108 170 87 223 87 c 0
 276 87 310 109 310 145 c 0
 310 185 291 198 193 225 c 0
 86 255 36 308 36 388 c 0
 36 478 118 546 246 546 c 0
EndSplineSet
EndChar

StartChar: uni015E
Encoding: 350 350 253
Width: 565
Flags: W
LayerCount: 2
Fore
SplineSet
537 200 m 0
 537 86 456 2 318 -13 c 1
 318 -50 l 1
 388 -57 419 -95 419 -146 c 0
 419 -213 361 -257 276 -257 c 0
 231 -257 193 -245 169 -228 c 1
 202 -160 l 1
 222 -171 241 -177 266 -177 c 0
 294 -177 314 -169 314 -145 c 0
 314 -120 287 -109 222 -109 c 1
 234 -15 l 1
 137 -7 64 31 13 81 c 1
 88 164 l 1
 139 121 194 95 265 95 c 0
 336 95 384 129 384 190 c 0
 384 245 357 269 252 301 c 0
 102 348 42 408 42 513 c 0
 42 631 144 708 284 708 c 0
 387 708 457 677 517 621 c 1
 447 540 l 1
 398 580 350 598 294 598 c 0
 234 598 193 572 193 523 c 0
 193 475 219 455 332 420 c 0
 457 380 537 328 537 200 c 0
EndSplineSet
EndChar

StartChar: uni015F
Encoding: 351 351 254
Width: 477
Flags: W
LayerCount: 2
Fore
SplineSet
456 156 m 0
 456 62 380 3 279 -12 c 1
 279 -50 l 1
 349 -57 380 -95 380 -146 c 0
 380 -213 322 -257 237 -257 c 0
 192 -257 154 -245 130 -228 c 1
 163 -160 l 1
 183 -171 202 -177 227 -177 c 0
 255 -177 275 -169 275 -145 c 0
 275 -120 248 -109 183 -109 c 1
 195 -15 l 1
 118 -8 55 20 11 61 c 1
 81 139 l 1
 121 108 170 87 223 87 c 0
 276 87 310 109 310 145 c 0
 310 185 291 198 193 225 c 0
 86 255 36 308 36 388 c 0
 36 478 118 546 246 546 c 0
 323 546 388 522 438 482 c 1
 384 401 l 1
 341 428 298 443 252 443 c 0
 205 443 179 424 179 395 c 0
 179 364 197 350 290 323 c 0
 396 294 456 250 456 156 c 0
EndSplineSet
EndChar

StartChar: uni0160
Encoding: 352 352 255
Width: 565
Flags: W
LayerCount: 2
Fore
SplineSet
423 935 m 1
 475 875 l 1
 335 751 l 1
 247 751 l 1
 107 875 l 1
 160 935 l 1
 291 852 l 1
 423 935 l 1
284 708 m 0
 387 708 457 677 517 621 c 1
 447 540 l 1
 398 580 350 598 294 598 c 0
 234 598 193 572 193 523 c 0
 193 475 219 455 332 420 c 0
 457 380 537 328 537 200 c 0
 537 73 437 -16 269 -16 c 0
 154 -16 70 25 13 81 c 1
 88 164 l 1
 139 121 194 95 265 95 c 0
 336 95 384 129 384 190 c 0
 384 245 357 269 252 301 c 0
 102 348 42 408 42 513 c 0
 42 631 144 708 284 708 c 0
EndSplineSet
EndChar

StartChar: uni0161
Encoding: 353 353 256
Width: 477
Flags: W
LayerCount: 2
Fore
SplineSet
380 806 m 1
 432 746 l 1
 292 615 l 1
 204 615 l 1
 64 746 l 1
 117 806 l 1
 248 717 l 1
 380 806 l 1
246 546 m 0
 323 546 388 522 438 482 c 1
 384 401 l 1
 341 428 298 443 252 443 c 0
 205 443 179 424 179 395 c 0
 179 364 197 350 290 323 c 0
 396 294 456 250 456 156 c 0
 456 46 353 -16 227 -16 c 0
 135 -16 61 15 11 61 c 1
 81 139 l 1
 121 108 170 87 223 87 c 0
 276 87 310 109 310 145 c 0
 310 185 291 198 193 225 c 0
 86 255 36 308 36 388 c 0
 36 478 118 546 246 546 c 0
EndSplineSet
EndChar

StartChar: uni0162
Encoding: 354 354 257
Width: 534
Flags: W
LayerCount: 2
Fore
SplineSet
341 -50 m 1
 412 -57 444 -95 444 -146 c 0
 444 -213 385 -257 299 -257 c 0
 255 -257 217 -244 194 -228 c 1
 227 -160 l 1
 247 -171 265 -177 288 -177 c 0
 318 -177 339 -169 339 -144 c 0
 339 -120 312 -109 247 -109 c 1
 261 0 l 1
 194 0 l 1
 194 577 l 1
 10 577 l 1
 10 692 l 1
 532 692 l 1
 516 577 l 1
 341 577 l 1
 341 -50 l 1
EndSplineSet
EndChar

StartChar: uni0163
Encoding: 355 355 258
Width: 380
Flags: W
LayerCount: 2
Fore
SplineSet
273 -50 m 1
 343 -57 374 -95 374 -146 c 0
 374 -213 316 -257 231 -257 c 0
 186 -257 148 -245 124 -228 c 1
 157 -160 l 1
 177 -171 196 -177 221 -177 c 0
 249 -177 269 -169 269 -145 c 0
 269 -120 242 -109 177 -109 c 1
 190 -8 l 1
 119 12 83 71 83 166 c 2
 83 430 l 1
 4 430 l 1
 4 530 l 1
 83 530 l 1
 83 646 l 1
 225 663 l 1
 225 530 l 1
 347 530 l 1
 333 430 l 1
 225 430 l 1
 225 169 l 2
 225 117 242 97 278 97 c 0
 297 97 316 103 338 115 c 1
 387 25 l 1
 355 3 313 -11 273 -15 c 1
 273 -50 l 1
EndSplineSet
EndChar

StartChar: uni0164
Encoding: 356 356 259
Width: 534
Flags: W
LayerCount: 2
Fore
SplineSet
400 935 m 1
 452 875 l 1
 312 751 l 1
 224 751 l 1
 84 875 l 1
 137 935 l 1
 268 852 l 1
 400 935 l 1
532 692 m 1
 516 577 l 1
 341 577 l 1
 341 0 l 1
 194 0 l 1
 194 577 l 1
 10 577 l 1
 10 692 l 1
 532 692 l 1
EndSplineSet
EndChar

StartChar: uni0165
Encoding: 357 357 260
Width: 380
Flags: W
LayerCount: 2
Fore
SplineSet
381 772 m 1
 327 564 l 1
 249 576 l 1
 271 787 l 1
 381 772 l 1
338 115 m 1
 387 25 l 1
 348 -2 296 -16 249 -16 c 0
 139 -15 83 48 83 166 c 2
 83 430 l 1
 4 430 l 1
 4 530 l 1
 83 530 l 1
 83 646 l 1
 225 663 l 1
 225 530 l 1
 347 530 l 1
 333 430 l 1
 225 430 l 1
 225 169 l 2
 225 117 242 97 278 97 c 0
 297 97 316 103 338 115 c 1
EndSplineSet
EndChar

StartChar: uni016A
Encoding: 362 362 261
Width: 654
Flags: W
LayerCount: 2
Fore
SplineSet
475 784 m 1
 177 784 l 1
 177 884 l 1
 475 884 l 1
 475 784 l 1
590 692 m 1
 590 228 l 2
 590 89 501 -16 326 -16 c 0
 151 -16 63 84 63 228 c 2
 63 692 l 1
 210 692 l 1
 210 235 l 2
 210 142 246 96 326 96 c 0
 407 96 443 142 443 235 c 2
 443 692 l 1
 590 692 l 1
EndSplineSet
EndChar

StartChar: uni016B
Encoding: 363 363 262
Width: 570
Flags: W
LayerCount: 2
Fore
SplineSet
431 658 m 1
 133 658 l 1
 133 758 l 1
 431 758 l 1
 431 658 l 1
501 530 m 1
 501 0 l 1
 378 0 l 1
 371 71 l 1
 332 12 281 -16 210 -16 c 0
 112 -16 62 47 62 149 c 2
 62 530 l 1
 204 530 l 1
 204 167 l 2
 204 109 223 90 262 90 c 0
 301 90 334 116 359 159 c 1
 359 530 l 1
 501 530 l 1
EndSplineSet
EndChar

StartChar: uni016E
Encoding: 366 366 263
Width: 654
Flags: W
LayerCount: 2
Fore
SplineSet
327 986 m 0
 408 986 460 929 460 861 c 0
 460 793 408 735 327 735 c 0
 246 735 194 793 194 861 c 0
 194 929 246 986 327 986 c 0
327 912 m 0
 299 912 280 894 280 861 c 0
 280 827 299 809 327 809 c 0
 355 809 374 827 374 861 c 0
 374 894 355 912 327 912 c 0
590 692 m 1
 590 228 l 2
 590 89 501 -16 326 -16 c 0
 151 -16 63 84 63 228 c 2
 63 692 l 1
 210 692 l 1
 210 235 l 2
 210 142 246 96 326 96 c 0
 407 96 443 142 443 235 c 2
 443 692 l 1
 590 692 l 1
EndSplineSet
EndChar

StartChar: uni016F
Encoding: 367 367 264
Width: 570
Flags: W
LayerCount: 2
Fore
SplineSet
282 860 m 0
 363 860 415 803 415 735 c 0
 415 667 363 609 282 609 c 0
 201 609 149 667 149 735 c 0
 149 803 201 860 282 860 c 0
282 786 m 0
 254 786 235 768 235 735 c 0
 235 701 254 683 282 683 c 0
 310 683 329 701 329 735 c 0
 329 768 310 786 282 786 c 0
501 530 m 1
 501 0 l 1
 378 0 l 1
 371 71 l 1
 332 12 281 -16 210 -16 c 0
 112 -16 62 47 62 149 c 2
 62 530 l 1
 204 530 l 1
 204 167 l 2
 204 109 223 90 262 90 c 0
 301 90 334 116 359 159 c 1
 359 530 l 1
 501 530 l 1
EndSplineSet
EndChar

StartChar: uni0170
Encoding: 368 368 265
Width: 654
Flags: W
LayerCount: 2
Fore
SplineSet
297 948 m 1
 388 894 l 1
 263 739 l 1
 199 774 l 1
 297 948 l 1
463 940 m 1
 552 880 l 1
 418 732 l 1
 357 771 l 1
 463 940 l 1
590 692 m 1
 590 228 l 2
 590 89 501 -16 326 -16 c 0
 151 -16 63 84 63 228 c 2
 63 692 l 1
 210 692 l 1
 210 235 l 2
 210 142 246 96 326 96 c 0
 407 96 443 142 443 235 c 2
 443 692 l 1
 590 692 l 1
EndSplineSet
EndChar

StartChar: uni0171
Encoding: 369 369 266
Width: 570
Flags: W
LayerCount: 2
Fore
SplineSet
270 820 m 1
 361 766 l 1
 236 600 l 1
 172 636 l 1
 270 820 l 1
436 811 m 1
 525 752 l 1
 391 593 l 1
 330 633 l 1
 436 811 l 1
501 530 m 1
 501 0 l 1
 378 0 l 1
 371 71 l 1
 332 12 281 -16 210 -16 c 0
 112 -16 62 47 62 149 c 2
 62 530 l 1
 204 530 l 1
 204 167 l 2
 204 109 223 90 262 90 c 0
 301 90 334 116 359 159 c 1
 359 530 l 1
 501 530 l 1
EndSplineSet
EndChar

StartChar: uni0172
Encoding: 370 370 267
Width: 654
Flags: W
LayerCount: 2
Fore
SplineSet
443 692 m 1
 590 692 l 1
 590 228 l 2
 590 120 536 32 430 -1 c 1
 334 -39 314 -75 314 -105 c 0
 314 -135 331 -151 367 -151 c 0
 387 -151 405 -149 428 -144 c 1
 418 -235 l 1
 397 -239 376 -242 350 -242 c 0
 267 -242 208 -198 208 -130 c 0
 208 -78 242 -40 295 -15 c 1
 141 -4 63 93 63 228 c 2
 63 692 l 1
 210 692 l 1
 210 235 l 2
 210 142 246 96 326 96 c 0
 407 96 443 142 443 235 c 2
 443 692 l 1
EndSplineSet
EndChar

StartChar: uni0173
Encoding: 371 371 268
Width: 570
Flags: W
LayerCount: 2
Fore
SplineSet
382 -105 m 0
 382 -135 399 -151 436 -151 c 0
 456 -151 474 -149 497 -144 c 1
 487 -235 l 1
 466 -239 445 -242 419 -242 c 0
 335 -242 277 -198 277 -130 c 0
 277 -69 313 -25 377 8 c 1
 371 71 l 1
 332 12 281 -16 210 -16 c 0
 112 -16 62 47 62 149 c 2
 62 530 l 1
 204 530 l 1
 204 167 l 2
 204 109 223 90 262 90 c 0
 301 90 334 116 359 159 c 1
 359 530 l 1
 501 530 l 1
 501 2 l 1
 502 0 l 1
 403 -38 382 -75 382 -105 c 0
EndSplineSet
EndChar

StartChar: uni0178
Encoding: 376 376 269
Width: 583
Flags: W
LayerCount: 2
Fore
SplineSet
177 918 m 0
 220 918 252 885 252 844 c 0
 252 803 220 770 177 770 c 0
 135 770 102 803 102 844 c 0
 102 885 135 918 177 918 c 0
403 918 m 0
 446 918 479 885 479 844 c 0
 479 803 446 770 403 770 c 0
 362 770 329 803 329 844 c 0
 329 885 362 918 403 918 c 0
587 692 m 1
 365 261 l 1
 365 0 l 1
 218 0 l 1
 218 260 l 1
 -4 692 l 1
 157 692 l 1
 295 378 l 1
 432 692 l 1
 587 692 l 1
EndSplineSet
EndChar

StartChar: uni0179
Encoding: 377 377 270
Width: 539
Flags: W
LayerCount: 2
Fore
SplineSet
356 945 m 1
 410 837 l 1
 176 752 l 1
 140 825 l 1
 356 945 l 1
503 692 m 1
 503 579 l 1
 193 119 l 1
 508 119 l 1
 492 0 l 1
 21 0 l 1
 21 111 l 1
 337 576 l 1
 53 576 l 1
 53 692 l 1
 503 692 l 1
EndSplineSet
EndChar

StartChar: uni017A
Encoding: 378 378 271
Width: 449
Flags: W
LayerCount: 2
Fore
SplineSet
304 827 m 1
 360 718 l 1
 130 626 l 1
 90 699 l 1
 304 827 l 1
428 530 m 1
 428 429 l 1
 179 110 l 1
 433 110 l 1
 419 0 l 1
 16 0 l 1
 16 102 l 1
 265 421 l 1
 37 421 l 1
 37 530 l 1
 428 530 l 1
EndSplineSet
EndChar

StartChar: uni017B
Encoding: 379 379 272
Width: 539
Flags: W
LayerCount: 2
Fore
SplineSet
275 929 m 0
 326 929 362 893 362 846 c 0
 362 799 326 763 275 763 c 0
 224 763 189 799 189 846 c 0
 189 893 224 929 275 929 c 0
503 692 m 1
 503 579 l 1
 193 119 l 1
 508 119 l 1
 492 0 l 1
 21 0 l 1
 21 111 l 1
 337 576 l 1
 53 576 l 1
 53 692 l 1
 503 692 l 1
EndSplineSet
EndChar

StartChar: uni017C
Encoding: 380 380 273
Width: 449
Flags: W
LayerCount: 2
Fore
SplineSet
229 803 m 0
 280 803 316 767 316 720 c 0
 316 673 280 637 229 637 c 0
 178 637 143 673 143 720 c 0
 143 767 178 803 229 803 c 0
428 530 m 1
 428 429 l 1
 179 110 l 1
 433 110 l 1
 419 0 l 1
 16 0 l 1
 16 102 l 1
 265 421 l 1
 37 421 l 1
 37 530 l 1
 428 530 l 1
EndSplineSet
EndChar

StartChar: uni017D
Encoding: 381 381 274
Width: 539
Flags: W
LayerCount: 2
Fore
SplineSet
407 935 m 1
 459 875 l 1
 319 751 l 1
 231 751 l 1
 91 875 l 1
 144 935 l 1
 275 852 l 1
 407 935 l 1
503 692 m 1
 503 579 l 1
 193 119 l 1
 508 119 l 1
 492 0 l 1
 21 0 l 1
 21 111 l 1
 337 576 l 1
 53 576 l 1
 53 692 l 1
 503 692 l 1
EndSplineSet
EndChar

StartChar: uni017E
Encoding: 382 382 275
Width: 449
Flags: W
LayerCount: 2
Fore
SplineSet
361 806 m 1
 413 746 l 1
 273 615 l 1
 185 615 l 1
 45 746 l 1
 98 806 l 1
 229 717 l 1
 361 806 l 1
428 530 m 1
 428 429 l 1
 179 110 l 1
 433 110 l 1
 419 0 l 1
 16 0 l 1
 16 102 l 1
 265 421 l 1
 37 421 l 1
 37 530 l 1
 428 530 l 1
EndSplineSet
EndChar

StartChar: uni0192
Encoding: 402 402 276
Width: 364
Flags: W
LayerCount: 2
Fore
SplineSet
307 651 m 0
 252 651 235 629 235 579 c 2
 235 530 l 1
 362 530 l 1
 346 430 l 1
 235 430 l 1
 235 53 l 2
 235 -114 155 -172 33 -219 c 1
 -13 -116 l 1
 55 -84 93 -56 93 44 c 2
 93 430 l 1
 11 430 l 1
 11 530 l 1
 93 530 l 1
 93 583 l 2
 93 681 159 757 287 757 c 0
 346 757 393 744 435 725 c 1
 396 631 l 1
 362 646 333 651 307 651 c 0
EndSplineSet
EndChar

StartChar: uni0218
Encoding: 536 536 277
Width: 565
Flags: W
LayerCount: 2
Fore
SplineSet
284 708 m 0
 387 708 457 677 517 621 c 1
 447 540 l 1
 398 580 350 598 294 598 c 0
 234 598 193 572 193 523 c 0
 193 475 219 455 332 420 c 0
 457 380 537 328 537 200 c 0
 537 73 437 -16 269 -16 c 0
 154 -16 70 25 13 81 c 1
 88 164 l 1
 139 121 194 95 265 95 c 0
 336 95 384 129 384 190 c 0
 384 245 357 269 252 301 c 0
 102 348 42 408 42 513 c 0
 42 631 144 708 284 708 c 0
281 -70 m 0
 323 -70 354 -101 354 -142 c 0
 354 -166 347 -185 328 -225 c 2
 282 -318 l 1
 210 -318 l 1
 237 -203 l 1
 219 -188 207 -169 207 -142 c 0
 207 -102 238 -70 281 -70 c 0
EndSplineSet
EndChar

StartChar: uni0219
Encoding: 537 537 278
Width: 477
Flags: W
LayerCount: 2
Fore
SplineSet
246 546 m 0
 323 546 388 522 438 482 c 1
 384 401 l 1
 341 428 298 443 252 443 c 0
 205 443 179 424 179 395 c 0
 179 364 197 350 290 323 c 0
 396 294 456 250 456 156 c 0
 456 46 353 -16 227 -16 c 0
 135 -16 61 15 11 61 c 1
 81 139 l 1
 121 108 170 87 223 87 c 0
 276 87 310 109 310 145 c 0
 310 185 291 198 193 225 c 0
 86 255 36 308 36 388 c 0
 36 478 118 546 246 546 c 0
242 -70 m 0
 284 -70 315 -101 315 -142 c 0
 315 -166 308 -185 289 -225 c 2
 243 -318 l 1
 171 -318 l 1
 198 -203 l 1
 180 -188 168 -169 168 -142 c 0
 168 -102 199 -70 242 -70 c 0
EndSplineSet
EndChar

StartChar: uni021A
Encoding: 538 538 279
Width: 534
Flags: W
LayerCount: 2
Fore
SplineSet
532 692 m 1
 516 577 l 1
 341 577 l 1
 341 0 l 1
 194 0 l 1
 194 577 l 1
 10 577 l 1
 10 692 l 1
 532 692 l 1
269 -70 m 0
 311 -70 342 -101 342 -142 c 0
 342 -166 335 -185 316 -225 c 2
 270 -318 l 1
 198 -318 l 1
 225 -203 l 1
 207 -188 195 -169 195 -142 c 0
 195 -102 226 -70 269 -70 c 0
EndSplineSet
EndChar

StartChar: uni021B
Encoding: 539 539 280
Width: 380
Flags: W
LayerCount: 2
Fore
SplineSet
387 25 m 1
 348 -2 296 -16 249 -16 c 0
 139 -15 83 48 83 166 c 2
 83 430 l 1
 4 430 l 1
 4 530 l 1
 83 530 l 1
 83 646 l 1
 225 663 l 1
 225 530 l 1
 347 530 l 1
 333 430 l 1
 225 430 l 1
 225 169 l 2
 225 117 242 97 278 97 c 0
 297 97 316 103 338 115 c 1
 387 25 l 1
236 -70 m 0
 278 -70 309 -101 309 -142 c 0
 309 -166 302 -185 283 -225 c 2
 237 -318 l 1
 165 -318 l 1
 192 -203 l 1
 174 -188 162 -169 162 -142 c 0
 162 -102 193 -70 236 -70 c 0
EndSplineSet
EndChar

StartChar: uni0237
Encoding: 567 567 281
Width: 279
Flags: W
LayerCount: 2
Fore
SplineSet
211 530 m 1
 211 53 l 2
 211 -114 130 -172 9 -219 c 1
 -38 -116 l 1
 30 -84 69 -56 69 44 c 2
 69 530 l 1
 211 530 l 1
EndSplineSet
EndChar

StartChar: uni0300
Encoding: 768 768 282
Width: 0
Flags: W
LayerCount: 2
Fore
SplineSet
-243 827 m 1
 -30 699 l 1
 -70 626 l 1
 -300 718 l 1
 -243 827 l 1
EndSplineSet
EndChar

StartChar: uni0301
Encoding: 769 769 283
Width: 0
Flags: W
LayerCount: 2
Fore
SplineSet
-86 827 m 1
 -30 718 l 1
 -260 626 l 1
 -300 699 l 1
 -86 827 l 1
EndSplineSet
EndChar

StartChar: uni0302
Encoding: 770 770 284
Width: 0
Flags: W
LayerCount: 2
Fore
SplineSet
-346 624 m 1
 -398 684 l 1
 -258 815 l 1
 -170 815 l 1
 -30 684 l 1
 -83 624 l 1
 -214 713 l 1
 -346 624 l 1
EndSplineSet
EndChar

StartChar: uni0303
Encoding: 771 771 285
Width: 0
Flags: W
LayerCount: 2
Fore
SplineSet
-155 640 m 0
 -183 640 -203 650 -222 664 c 0
 -240 677 -253 686 -270 686 c 0
 -293 686 -307 670 -323 641 c 1
 -396 677 l 1
 -372 737 -329 788 -272 788 c 0
 -241 788 -222 777 -202 763 c 0
 -185 751 -172 742 -156 742 c 0
 -134 742 -120 757 -103 786 c 1
 -30 750 l 1
 -56 685 -99 640 -155 640 c 0
EndSplineSet
EndChar

StartChar: uni0304
Encoding: 772 772 286
Width: 0
Flags: W
LayerCount: 2
Fore
SplineSet
-30 658 m 1
 -328 658 l 1
 -328 758 l 1
 -30 758 l 1
 -30 658 l 1
EndSplineSet
EndChar

StartChar: uni0305
Encoding: 773 773 287
Width: 0
Flags: W
LayerCount: 2
Fore
SplineSet
-30 659 m 1
 -478 659 l 1
 -478 733 l 1
 -30 733 l 1
 -30 659 l 1
EndSplineSet
EndChar

StartChar: uni0306
Encoding: 774 774 288
Width: 0
Flags: W
LayerCount: 2
Fore
SplineSet
-198 635 m 0
 -297 635 -357 705 -365 798 c 1
 -284 813 l 1
 -272 764 -245 735 -198 735 c 0
 -152 735 -124 764 -111 813 c 1
 -30 798 l 1
 -38 705 -99 635 -198 635 c 0
EndSplineSet
EndChar

StartChar: uni0307
Encoding: 775 775 289
Width: 0
Flags: W
LayerCount: 2
Fore
SplineSet
-117 803 m 0
 -66 803 -30 767 -30 720 c 0
 -30 673 -66 637 -117 637 c 0
 -168 637 -203 673 -203 720 c 0
 -203 767 -168 803 -117 803 c 0
EndSplineSet
EndChar

StartChar: uni0308
Encoding: 776 776 290
Width: 0
Flags: W
LayerCount: 2
Fore
SplineSet
-332 792 m 0
 -289 792 -257 759 -257 718 c 0
 -257 677 -289 644 -332 644 c 0
 -374 644 -407 677 -407 718 c 0
 -407 759 -374 792 -332 792 c 0
-106 792 m 0
 -63 792 -30 759 -30 718 c 0
 -30 677 -63 644 -106 644 c 0
 -147 644 -180 677 -180 718 c 0
 -180 759 -147 792 -106 792 c 0
EndSplineSet
EndChar

StartChar: uni0309
Encoding: 777 777 291
Width: 0
Flags: W
LayerCount: 2
Fore
SplineSet
-197 606 m 1
 -197 705 l 1
 -149 708 -126 716 -126 744 c 0
 -126 765 -142 776 -166 776 c 0
 -190 776 -206 771 -226 763 c 1
 -251 825 l 1
 -224 841 -191 851 -146 851 c 0
 -68 851 -25 811 -25 752 c 0
 -25 700 -56 669 -109 660 c 1
 -109 606 l 1
 -197 606 l 1
EndSplineSet
EndChar

StartChar: uni030A
Encoding: 778 778 292
Width: 0
Flags: W
LayerCount: 2
Fore
SplineSet
-163 860 m 0
 -82 860 -30 803 -30 735 c 0
 -30 667 -82 609 -163 609 c 0
 -244 609 -296 667 -296 735 c 0
 -296 803 -244 860 -163 860 c 0
-163 786 m 0
 -191 786 -210 768 -210 735 c 0
 -210 701 -191 683 -163 683 c 0
 -135 683 -116 701 -116 735 c 0
 -116 768 -135 786 -163 786 c 0
EndSplineSet
EndChar

StartChar: uni030B
Encoding: 779 779 293
Width: 0
Flags: W
LayerCount: 2
Fore
SplineSet
-285 820 m 1
 -194 766 l 1
 -319 600 l 1
 -383 636 l 1
 -285 820 l 1
-119 811 m 1
 -30 752 l 1
 -164 593 l 1
 -225 633 l 1
 -119 811 l 1
EndSplineSet
EndChar

StartChar: uni030C
Encoding: 780 780 294
Width: 0
Flags: W
LayerCount: 2
Fore
SplineSet
-82 806 m 1
 -30 746 l 1
 -170 615 l 1
 -258 615 l 1
 -398 746 l 1
 -345 806 l 1
 -214 717 l 1
 -82 806 l 1
EndSplineSet
EndChar

StartChar: uni030D
Encoding: 781 781 295
Width: 0
Flags: W
LayerCount: 2
Fore
SplineSet
-156 621 m 1
 -156 876 l 1
 -30 876 l 1
 -30 621 l 1
 -156 621 l 1
EndSplineSet
EndChar

StartChar: uni030F
Encoding: 783 783 296
Width: 0
Flags: W
LayerCount: 2
Fore
SplineSet
-286 853 m 1
 -191 662 l 1
 -267 627 l 1
 -385 803 l 1
 -286 853 l 1
-116 853 m 1
 -30 664 l 1
 -107 632 l 1
 -216 805 l 1
 -116 853 l 1
EndSplineSet
EndChar

StartChar: uni0311
Encoding: 785 785 297
Width: 0
Flags: W
LayerCount: 2
Fore
SplineSet
-198 782 m 0
 -99 782 -38 712 -30 619 c 1
 -111 605 l 1
 -124 653 -152 682 -198 682 c 0
 -245 682 -272 653 -284 605 c 1
 -365 619 l 1
 -357 712 -297 782 -198 782 c 0
EndSplineSet
EndChar

StartChar: uni0312
Encoding: 786 786 298
Width: 0
Flags: W
LayerCount: 2
Fore
SplineSet
-106 578 m 0
 -149 578 -180 609 -180 651 c 0
 -180 674 -173 693 -154 733 c 2
 -108 826 l 1
 -36 826 l 1
 -63 711 l 1
 -45 697 -32 677 -32 651 c 0
 -32 611 -64 578 -106 578 c 0
EndSplineSet
EndChar

StartChar: uni0313
Encoding: 787 787 299
Width: 0
Flags: W
LayerCount: 2
Fore
SplineSet
-103 831 m 0
 -61 831 -30 800 -30 758 c 0
 -30 735 -37 716 -56 676 c 2
 -102 583 l 1
 -174 583 l 1
 -147 698 l 1
 -165 712 -177 732 -177 758 c 0
 -177 798 -146 831 -103 831 c 0
EndSplineSet
EndChar

StartChar: uni0316
Encoding: 790 790 300
Width: 0
Flags: W
LayerCount: 2
Fore
SplineSet
-246 -43 m 1
 -30 -164 l 1
 -66 -236 l 1
 -300 -151 l 1
 -246 -43 l 1
EndSplineSet
EndChar

StartChar: uni0317
Encoding: 791 791 301
Width: 0
Flags: W
LayerCount: 2
Fore
SplineSet
-84 -43 m 1
 -30 -151 l 1
 -264 -236 l 1
 -300 -164 l 1
 -84 -43 l 1
EndSplineSet
EndChar

StartChar: uni0318
Encoding: 792 792 302
Width: 0
Flags: W
LayerCount: 2
Fore
SplineSet
-117 -59 m 1
 -30 -59 l 1
 -30 -354 l 1
 -117 -354 l 1
 -117 -246 l 1
 -243 -246 l 1
 -243 -168 l 1
 -117 -168 l 1
 -117 -59 l 1
EndSplineSet
EndChar

StartChar: uni0319
Encoding: 793 793 303
Width: 0
Flags: W
LayerCount: 2
Fore
SplineSet
-156 -59 m 1
 -156 -168 l 1
 -30 -168 l 1
 -30 -246 l 1
 -156 -246 l 1
 -156 -354 l 1
 -244 -354 l 1
 -244 -59 l 1
 -156 -59 l 1
EndSplineSet
EndChar

StartChar: uni031A
Encoding: 794 794 304
Width: 0
Flags: W
LayerCount: 2
Fore
SplineSet
-234 796 m 1
 -30 796 l 1
 -30 595 l 1
 -117 595 l 1
 -117 718 l 1
 -234 718 l 1
 -234 796 l 1
EndSplineSet
EndChar

StartChar: uni031B
Encoding: 795 795 305
Width: 0
Flags: W
LayerCount: 2
Fore
SplineSet
-173 400 m 1
 -183 472 l 1
 -146 475 -131 491 -131 525 c 0
 -131 556 -136 574 -144 594 c 1
 -49 609 l 1
 -39 590 -30 563 -30 522 c 0
 -30 442 -84 402 -173 400 c 1
EndSplineSet
EndChar

StartChar: uni031C
Encoding: 796 796 306
Width: 0
Flags: W
LayerCount: 2
Fore
SplineSet
-30 -305 m 1
 -30 -231 l 1
 -58 -231 -77 -213 -77 -179 c 0
 -77 -146 -60 -128 -30 -128 c 1
 -30 -55 l 1
 -111 -55 -163 -111 -163 -179 c 0
 -163 -247 -111 -305 -30 -305 c 1
EndSplineSet
EndChar

StartChar: uni031D
Encoding: 797 797 307
Width: 0
Flags: W
LayerCount: 2
Fore
SplineSet
-30 -239 m 1
 -30 -319 l 1
 -349 -319 l 1
 -349 -239 l 1
 -236 -239 l 1
 -236 -88 l 1
 -144 -88 l 1
 -144 -239 l 1
 -30 -239 l 1
EndSplineSet
EndChar

StartChar: uni031E
Encoding: 798 798 308
Width: 0
Flags: W
LayerCount: 2
Fore
SplineSet
-30 -168 m 1
 -144 -168 l 1
 -144 -319 l 1
 -236 -319 l 1
 -236 -168 l 1
 -349 -168 l 1
 -349 -88 l 1
 -30 -88 l 1
 -30 -168 l 1
EndSplineSet
EndChar

StartChar: uni031F
Encoding: 799 799 309
Width: 0
Flags: W
LayerCount: 2
Fore
SplineSet
-121 -79 m 1
 -121 -167 l 1
 -30 -167 l 1
 -30 -249 l 1
 -121 -249 l 1
 -121 -335 l 1
 -216 -335 l 1
 -216 -249 l 1
 -307 -249 l 1
 -307 -167 l 1
 -216 -167 l 1
 -216 -79 l 1
 -121 -79 l 1
EndSplineSet
EndChar

StartChar: uni0320
Encoding: 800 800 310
Width: 0
Flags: W
LayerCount: 2
Fore
SplineSet
-307 -249 m 1
 -307 -167 l 1
 -30 -167 l 1
 -30 -249 l 1
 -307 -249 l 1
EndSplineSet
EndChar

StartChar: uni0321
Encoding: 801 801 311
Width: 0
Flags: W
LayerCount: 2
Fore
SplineSet
-216 -220 m 0
 -278 -220 -321 -201 -351 -178 c 1
 -302 -94 l 1
 -278 -106 -261 -114 -231 -114 c 0
 -194 -114 -172 -95 -172 -50 c 2
 -172 1 l 1
 -30 1 l 1
 -30 -38 l 2
 -30 -159 -105 -220 -216 -220 c 0
EndSplineSet
EndChar

StartChar: uni0323
Encoding: 803 803 312
Width: 0
Flags: W
LayerCount: 2
Fore
SplineSet
-116 -230 m 0
 -168 -230 -203 -194 -203 -146 c 0
 -203 -100 -168 -64 -116 -64 c 0
 -66 -64 -30 -100 -30 -146 c 0
 -30 -194 -66 -230 -116 -230 c 0
EndSplineSet
EndChar

StartChar: uni0324
Encoding: 804 804 313
Width: 0
Flags: W
LayerCount: 2
Fore
SplineSet
-332 -71 m 0
 -289 -71 -257 -104 -257 -145 c 0
 -257 -186 -289 -219 -332 -219 c 0
 -374 -219 -407 -186 -407 -145 c 0
 -407 -104 -374 -71 -332 -71 c 0
-106 -71 m 0
 -63 -71 -30 -104 -30 -145 c 0
 -30 -186 -63 -219 -106 -219 c 0
 -147 -219 -180 -186 -180 -145 c 0
 -180 -104 -147 -71 -106 -71 c 0
EndSplineSet
EndChar

StartChar: uni0325
Encoding: 805 805 314
Width: 0
Flags: W
LayerCount: 2
Fore
SplineSet
-163 -55 m 0
 -82 -55 -30 -111 -30 -179 c 0
 -30 -247 -82 -305 -163 -305 c 0
 -244 -305 -296 -247 -296 -179 c 0
 -296 -111 -244 -55 -163 -55 c 0
-163 -128 m 0
 -191 -128 -210 -146 -210 -179 c 0
 -210 -213 -191 -231 -163 -231 c 0
 -135 -231 -116 -213 -116 -179 c 0
 -116 -146 -135 -128 -163 -128 c 0
EndSplineSet
EndChar

StartChar: uni0326
Encoding: 806 806 315
Width: 0
Flags: W
LayerCount: 2
Fore
SplineSet
-103 -70 m 0
 -61 -70 -30 -101 -30 -142 c 0
 -30 -166 -37 -185 -56 -225 c 2
 -102 -318 l 1
 -174 -318 l 1
 -147 -203 l 1
 -165 -188 -177 -169 -177 -142 c 0
 -177 -102 -146 -70 -103 -70 c 0
EndSplineSet
EndChar

StartChar: uni0327
Encoding: 807 807 316
Width: 0
Flags: W
LayerCount: 2
Fore
SplineSet
-131 16 m 1
 -131 -50 l 1
 -61 -57 -30 -95 -30 -146 c 0
 -30 -213 -88 -257 -173 -257 c 0
 -218 -257 -256 -245 -280 -228 c 1
 -247 -160 l 1
 -227 -171 -208 -177 -183 -177 c 0
 -155 -177 -135 -169 -135 -145 c 0
 -135 -120 -162 -109 -227 -109 c 1
 -211 16 l 1
 -131 16 l 1
EndSplineSet
EndChar

StartChar: uni0328
Encoding: 808 808 317
Width: 0
Flags: W
LayerCount: 2
Fore
SplineSet
-52 46 m 1
 -30 0 l 1
 -129 -38 -150 -75 -150 -105 c 0
 -150 -135 -133 -151 -96 -151 c 0
 -76 -151 -58 -149 -35 -144 c 1
 -45 -235 l 1
 -66 -239 -87 -242 -113 -242 c 0
 -197 -242 -255 -198 -255 -130 c 0
 -255 -41 -178 11 -52 46 c 1
EndSplineSet
EndChar

StartChar: uni0329
Encoding: 809 809 318
Width: 0
Flags: W
LayerCount: 2
Fore
SplineSet
-162 -323 m 1
 -162 -68 l 1
 -36 -68 l 1
 -36 -323 l 1
 -162 -323 l 1
EndSplineSet
EndChar

StartChar: uni032A
Encoding: 810 810 319
Width: 0
Flags: W
LayerCount: 2
Fore
SplineSet
-329 -249 m 1
 -329 -88 l 1
 -30 -88 l 1
 -30 -249 l 1
 -117 -249 l 1
 -117 -164 l 1
 -242 -164 l 1
 -242 -249 l 1
 -329 -249 l 1
EndSplineSet
EndChar

StartChar: uni032B
Encoding: 811 811 320
Width: 0
Flags: W
LayerCount: 2
Fore
SplineSet
-91 -56 m 1
 -30 -63 l 1
 -35 -154 -75 -219 -142 -219 c 0
 -186 -219 -218 -190 -236 -143 c 1
 -255 -190 -287 -219 -331 -219 c 0
 -397 -219 -437 -154 -442 -63 c 1
 -382 -56 l 1
 -375 -100 -360 -124 -329 -124 c 0
 -298 -124 -282 -100 -275 -56 c 1
 -197 -56 l 1
 -190 -100 -175 -124 -144 -124 c 0
 -114 -124 -97 -100 -91 -56 c 1
EndSplineSet
EndChar

StartChar: uni032C
Encoding: 812 812 321
Width: 0
Flags: W
LayerCount: 2
Fore
SplineSet
-82 -63 m 1
 -30 -124 l 1
 -170 -248 l 1
 -258 -248 l 1
 -398 -124 l 1
 -345 -63 l 1
 -214 -147 l 1
 -82 -63 l 1
EndSplineSet
EndChar

StartChar: uni032D
Encoding: 813 813 322
Width: 0
Flags: W
LayerCount: 2
Fore
SplineSet
-346 -255 m 1
 -398 -195 l 1
 -258 -64 l 1
 -170 -64 l 1
 -30 -195 l 1
 -83 -255 l 1
 -214 -166 l 1
 -346 -255 l 1
EndSplineSet
EndChar

StartChar: uni032F
Encoding: 815 815 323
Width: 0
Flags: W
LayerCount: 2
Fore
SplineSet
-198 -47 m 0
 -99 -47 -38 -117 -30 -209 c 1
 -111 -224 l 1
 -124 -176 -152 -147 -198 -147 c 0
 -245 -147 -272 -176 -284 -224 c 1
 -365 -209 l 1
 -357 -117 -297 -47 -198 -47 c 0
EndSplineSet
EndChar

StartChar: uni0330
Encoding: 816 816 324
Width: 0
Flags: W
LayerCount: 2
Fore
SplineSet
-155 -205 m 0
 -183 -205 -203 -195 -222 -181 c 0
 -240 -168 -253 -159 -270 -159 c 0
 -293 -159 -307 -175 -323 -204 c 1
 -396 -168 l 1
 -372 -107 -329 -57 -272 -57 c 0
 -241 -57 -222 -68 -202 -82 c 0
 -185 -94 -172 -103 -156 -103 c 0
 -134 -103 -120 -88 -103 -59 c 1
 -30 -95 l 1
 -56 -160 -99 -205 -155 -205 c 0
EndSplineSet
EndChar

StartChar: uni0331
Encoding: 817 817 325
Width: 0
Flags: W
LayerCount: 2
Fore
SplineSet
-30 -187 m 1
 -328 -187 l 1
 -328 -87 l 1
 -30 -87 l 1
 -30 -187 l 1
EndSplineSet
EndChar

StartChar: uni0332
Encoding: 818 818 326
Width: 0
Flags: W
LayerCount: 2
Fore
SplineSet
-31 -187 m 1
 -477 -187 l 1
 -477 -87 l 1
 -31 -87 l 1
 -31 -187 l 1
EndSplineSet
EndChar

StartChar: uni0334
Encoding: 820 820 327
Width: 0
Flags: W
LayerCount: 2
Fore
SplineSet
-183 236 m 0
 -270 236 -302 297 -349 297 c 0
 -384 297 -402 271 -419 245 c 1
 -496 284 l 1
 -468 341 -423 404 -341 404 c 0
 -256 404 -224 343 -175 343 c 0
 -142 343 -124 366 -106 391 c 1
 -30 353 l 1
 -58 296 -102 236 -183 236 c 0
EndSplineSet
EndChar

StartChar: uni0335
Encoding: 821 821 328
Width: 0
Flags: W
LayerCount: 2
Fore
SplineSet
-358 257 m 1
 -358 369 l 1
 -48 369 l 1
 -48 257 l 1
 -358 257 l 1
EndSplineSet
EndChar

StartChar: uni0336
Encoding: 822 822 329
Width: 0
Flags: W
LayerCount: 2
Fore
SplineSet
-777 257 m 1
 -777 369 l 1
 -30 369 l 1
 -30 257 l 1
 -777 257 l 1
EndSplineSet
EndChar

StartChar: uni0339
Encoding: 825 825 330
Width: 0
Flags: W
LayerCount: 2
Fore
SplineSet
-162 -304 m 1
 -81 -304 -30 -246 -30 -178 c 0
 -30 -110 -81 -54 -162 -54 c 1
 -162 -127 l 1
 -133 -127 -116 -145 -116 -178 c 0
 -116 -212 -134 -230 -162 -230 c 1
 -162 -304 l 1
EndSplineSet
EndChar

StartChar: uni033A
Encoding: 826 826 331
Width: 0
Flags: W
LayerCount: 2
Fore
SplineSet
-329 -88 m 1
 -242 -88 l 1
 -242 -173 l 1
 -117 -173 l 1
 -117 -88 l 1
 -30 -88 l 1
 -30 -248 l 1
 -329 -248 l 1
 -329 -88 l 1
EndSplineSet
EndChar

StartChar: uni033B
Encoding: 827 827 332
Width: 0
Flags: W
LayerCount: 2
Fore
SplineSet
-329 -248 m 1
 -329 -63 l 1
 -30 -63 l 1
 -30 -248 l 1
 -329 -248 l 1
-257 -187 m 1
 -102 -187 l 1
 -102 -124 l 1
 -257 -124 l 1
 -257 -187 l 1
EndSplineSet
EndChar

StartChar: uni033C
Encoding: 828 828 333
Width: 0
Flags: W
LayerCount: 2
Fore
SplineSet
-142 -57 m 0
 -75 -57 -35 -122 -30 -213 c 1
 -91 -220 l 1
 -97 -176 -114 -152 -144 -152 c 0
 -175 -152 -190 -176 -197 -220 c 1
 -275 -220 l 1
 -282 -176 -298 -152 -329 -152 c 0
 -360 -152 -375 -176 -382 -220 c 1
 -442 -213 l 1
 -437 -122 -397 -57 -331 -57 c 0
 -287 -57 -255 -86 -236 -133 c 1
 -218 -86 -186 -57 -142 -57 c 0
EndSplineSet
EndChar

StartChar: uni033D
Encoding: 829 829 334
Width: 0
Flags: W
LayerCount: 2
Fore
SplineSet
-126 728 m 1
 -30 600 l 1
 -119 600 l 1
 -176 689 l 1
 -232 600 l 1
 -318 600 l 1
 -222 726 l 1
 -308 838 l 1
 -220 838 l 1
 -173 763 l 1
 -128 838 l 1
 -44 838 l 1
 -126 728 l 1
EndSplineSet
EndChar

StartChar: uni0342
Encoding: 834 834 335
Width: 0
Flags: W
LayerCount: 2
Fore
SplineSet
-155 640 m 0
 -183 640 -203 650 -222 664 c 0
 -240 677 -253 686 -270 686 c 0
 -293 686 -307 670 -323 641 c 1
 -396 677 l 1
 -372 737 -329 788 -272 788 c 0
 -241 788 -222 777 -202 763 c 0
 -185 751 -172 742 -156 742 c 0
 -134 742 -120 757 -103 786 c 1
 -30 750 l 1
 -56 685 -99 640 -155 640 c 0
EndSplineSet
EndChar

StartChar: uni0345
Encoding: 837 837 336
Width: 0
Flags: W
LayerCount: 2
Fore
SplineSet
-139 -200 m 0
 -221 -200 -266 -150 -266 -78 c 2
 -266 -41 l 1
 -162 -41 l 1
 -162 -75 l 2
 -162 -102 -148 -117 -121 -117 c 0
 -101 -117 -87 -111 -69 -101 c 1
 -30 -163 l 1
 -55 -183 -88 -200 -139 -200 c 0
EndSplineSet
EndChar

StartChar: uni035C
Encoding: 860 860 337
Width: 0
Flags: W
LayerCount: 2
Fore
SplineSet
339 -94 m 1
 254 -162 148 -221 0 -221 c 0
 -148 -221 -254 -162 -340 -94 c 1
 -292 -27 l 1
 -211 -73 -118 -103 0 -103 c 0
 118 -103 210 -73 291 -27 c 1
 339 -94 l 1
EndSplineSet
EndChar

StartChar: uni0361
Encoding: 865 865 338
Width: 0
Flags: W
LayerCount: 2
Fore
SplineSet
338 681 m 1
 290 614 l 1
 209 660 117 690 -1 690 c 0
 -119 690 -212 660 -293 614 c 1
 -341 680 l 1
 -255 749 -149 808 -1 808 c 0
 147 808 253 749 338 681 c 1
EndSplineSet
EndChar

StartChar: uni037E
Encoding: 894 894 339
Width: 240
Flags: W
LayerCount: 2
Fore
SplineSet
119 506 m 0
 167 506 205 467 205 421 c 0
 205 374 167 335 119 335 c 0
 72 335 34 374 34 421 c 0
 34 467 72 506 119 506 c 0
119 155 m 0
 168 155 205 118 205 70 c 0
 205 42 196 16 177 -28 c 2
 112 -174 l 1
 29 -174 l 1
 71 0 l 1
 48 15 34 41 34 70 c 0
 34 118 71 155 119 155 c 0
EndSplineSet
EndChar

StartChar: uni0384
Encoding: 900 900 340
Width: 202
Flags: W
LayerCount: 2
Fore
SplineSet
32 829 m 1
 172 818 l 1
 129 596 l 1
 36 596 l 1
 32 829 l 1
EndSplineSet
EndChar

StartChar: uni0385
Encoding: 901 901 341
Width: 460
Flags: W
LayerCount: 2
Fore
SplineSet
187 939 m 1
 308 930 l 1
 271 738 l 1
 191 738 l 1
 187 939 l 1
105 754 m 0
 147 754 180 721 180 681 c 0
 180 639 147 607 105 607 c 0
 63 607 30 639 30 681 c 0
 30 721 63 754 105 754 c 0
355 754 m 0
 397 754 430 721 430 681 c 0
 430 639 397 607 355 607 c 0
 313 607 280 639 280 681 c 0
 280 721 313 754 355 754 c 0
EndSplineSet
EndChar

StartChar: uni0386
Encoding: 902 902 342
Width: 668
Flags: W
LayerCount: 2
Fore
SplineSet
75 703 m 1
 215 692 l 1
 172 470 l 1
 80 470 l 1
 75 703 l 1
521 0 m 1
 482 155 l 1
 265 155 l 1
 226 0 l 1
 73 0 l 1
 286 692 l 1
 465 692 l 1
 677 0 l 1
 521 0 l 1
292 264 m 1
 454 264 l 1
 373 583 l 1
 292 264 l 1
EndSplineSet
EndChar

StartChar: uni0387
Encoding: 903 903 343
Width: 240
Flags: W
LayerCount: 2
Fore
SplineSet
119 394 m 0
 167 394 205 355 205 309 c 0
 205 262 167 223 119 223 c 0
 72 223 34 262 34 309 c 0
 34 355 72 394 119 394 c 0
EndSplineSet
EndChar

StartChar: uni0388
Encoding: 904 904 344
Width: 696
Flags: W
LayerCount: 2
Fore
SplineSet
69 703 m 1
 209 692 l 1
 166 470 l 1
 73 470 l 1
 69 703 l 1
654 692 m 1
 638 585 l 1
 389 585 l 1
 389 405 l 1
 607 405 l 1
 607 299 l 1
 389 299 l 1
 389 108 l 1
 656 108 l 1
 656 0 l 1
 242 0 l 1
 242 692 l 1
 654 692 l 1
EndSplineSet
EndChar

StartChar: uni0389
Encoding: 905 905 345
Width: 838
Flags: W
LayerCount: 2
Fore
SplineSet
69 703 m 1
 209 692 l 1
 166 470 l 1
 73 470 l 1
 69 703 l 1
617 0 m 1
 617 303 l 1
 389 303 l 1
 389 0 l 1
 242 0 l 1
 242 692 l 1
 389 692 l 1
 389 419 l 1
 617 419 l 1
 617 692 l 1
 764 692 l 1
 764 0 l 1
 617 0 l 1
EndSplineSet
EndChar

StartChar: uni038A
Encoding: 906 906 346
Width: 462
Flags: W
LayerCount: 2
Fore
SplineSet
69 703 m 1
 209 692 l 1
 166 470 l 1
 73 470 l 1
 69 703 l 1
389 692 m 1
 389 0 l 1
 242 0 l 1
 242 692 l 1
 389 692 l 1
EndSplineSet
EndChar

StartChar: uni038C
Encoding: 908 908 347
Width: 819
Flags: W
LayerCount: 2
Fore
SplineSet
473 708 m 0
 663 708 781 578 781 346 c 0
 781 119 663 -16 473 -16 c 0
 284 -16 166 115 166 346 c 0
 166 572 284 708 473 708 c 0
59 703 m 1
 199 692 l 1
 156 470 l 1
 63 470 l 1
 59 703 l 1
473 598 m 0
 376 598 321 527 321 346 c 0
 321 165 378 94 473 94 c 0
 573 94 626 165 626 346 c 0
 626 527 573 598 473 598 c 0
EndSplineSet
EndChar

StartChar: uni038E
Encoding: 910 910 348
Width: 817
Flags: W
LayerCount: 2
Fore
SplineSet
69 703 m 1
 209 692 l 1
 166 470 l 1
 73 470 l 1
 69 703 l 1
821 692 m 1
 599 261 l 1
 599 0 l 1
 451 0 l 1
 451 260 l 1
 229 692 l 1
 391 692 l 1
 528 378 l 1
 666 692 l 1
 821 692 l 1
EndSplineSet
EndChar

StartChar: uni038F
Encoding: 911 911 349
Width: 834
Flags: W
LayerCount: 2
Fore
SplineSet
488 708 m 0
 680 708 795 571 795 372 c 0
 795 244 755 162 661 109 c 1
 774 109 l 1
 774 0 l 1
 530 0 l 1
 530 105 l 1
 618 140 641 220 641 372 c 0
 641 525 587 598 488 598 c 0
 391 598 335 525 335 371 c 0
 335 212 362 141 446 105 c 1
 446 0 l 1
 202 0 l 1
 202 109 l 1
 311 109 l 1
 224 158 181 241 181 371 c 0
 181 568 299 708 488 708 c 0
59 703 m 1
 199 692 l 1
 156 470 l 1
 63 470 l 1
 59 703 l 1
EndSplineSet
EndChar

StartChar: uni0390
Encoding: 912 912 350
Width: 279
Flags: W
LayerCount: 2
Fore
SplineSet
89 939 m 1
 210 930 l 1
 173 738 l 1
 93 738 l 1
 89 939 l 1
7 754 m 0
 49 754 82 721 82 681 c 0
 82 639 49 607 7 607 c 0
 -35 607 -68 639 -68 681 c 0
 -68 721 -35 754 7 754 c 0
257 754 m 0
 299 754 332 721 332 681 c 0
 332 639 299 607 257 607 c 0
 215 607 182 639 182 681 c 0
 182 721 215 754 257 754 c 0
204 530 m 1
 204 170 l 2
 204 121 216 103 248 87 c 1
 206 -16 l 1
 110 3 62 49 62 152 c 2
 62 530 l 1
 204 530 l 1
EndSplineSet
EndChar

StartChar: uni0391
Encoding: 913 913 351
Width: 586
Flags: W
LayerCount: 2
Fore
SplineSet
439 0 m 1
 400 155 l 1
 183 155 l 1
 144 0 l 1
 -9 0 l 1
 204 692 l 1
 383 692 l 1
 595 0 l 1
 439 0 l 1
210 264 m 1
 372 264 l 1
 291 583 l 1
 210 264 l 1
EndSplineSet
EndChar

StartChar: uni0392
Encoding: 914 914 352
Width: 615
Flags: W
LayerCount: 2
Fore
SplineSet
427 366 m 1
 505 351 584 314 584 201 c 0
 584 46 459 0 289 0 c 2
 73 0 l 1
 73 692 l 1
 262 692 l 2
 443 692 554 643 554 515 c 0
 554 428 491 381 427 366 c 1
276 586 m 2
 220 586 l 1
 220 411 l 1
 292 411 l 2
 362 411 404 440 404 502 c 0
 404 566 361 586 276 586 c 2
290 109 m 2
 372 109 431 125 431 207 c 0
 431 284 377 311 303 311 c 2
 220 311 l 1
 220 109 l 1
 290 109 l 2
EndSplineSet
EndChar

StartChar: uni0393
Encoding: 915 915 353
Width: 509
Flags: W
LayerCount: 2
Fore
SplineSet
506 692 m 1
 490 574 l 1
 220 574 l 1
 220 0 l 1
 73 0 l 1
 73 692 l 1
 506 692 l 1
EndSplineSet
EndChar

StartChar: uni0394
Encoding: 916 916 354
Width: 595
Flags: W
LayerCount: 2
Fore
SplineSet
388 692 m 1
 604 0 l 1
 -9 0 l 1
 208 692 l 1
 388 692 l 1
296 581 m 1
 170 110 l 1
 421 110 l 1
 296 581 l 1
EndSplineSet
EndChar

StartChar: uni0395
Encoding: 917 917 355
Width: 528
Flags: W
LayerCount: 2
Fore
SplineSet
486 692 m 1
 470 585 l 1
 220 585 l 1
 220 405 l 1
 438 405 l 1
 438 299 l 1
 220 299 l 1
 220 108 l 1
 488 108 l 1
 488 0 l 1
 73 0 l 1
 73 692 l 1
 486 692 l 1
EndSplineSet
EndChar

StartChar: uni0396
Encoding: 918 918 356
Width: 539
Flags: W
LayerCount: 2
Fore
SplineSet
503 692 m 1
 503 579 l 1
 193 119 l 1
 508 119 l 1
 492 0 l 1
 21 0 l 1
 21 111 l 1
 337 576 l 1
 53 576 l 1
 53 692 l 1
 503 692 l 1
EndSplineSet
EndChar

StartChar: uni0397
Encoding: 919 919 357
Width: 669
Flags: W
LayerCount: 2
Fore
SplineSet
449 0 m 1
 449 303 l 1
 220 303 l 1
 220 0 l 1
 73 0 l 1
 73 692 l 1
 220 692 l 1
 220 419 l 1
 449 419 l 1
 449 692 l 1
 596 692 l 1
 596 0 l 1
 449 0 l 1
EndSplineSet
EndChar

StartChar: uni0398
Encoding: 920 920 358
Width: 691
Flags: W
LayerCount: 2
Fore
SplineSet
346 708 m 0
 536 708 653 578 653 346 c 0
 653 119 536 -16 346 -16 c 0
 156 -16 38 115 38 346 c 0
 38 572 156 708 346 708 c 0
346 598 m 0
 243 598 186 527 186 346 c 0
 186 165 245 94 346 94 c 0
 449 94 505 165 505 346 c 0
 505 527 449 598 346 598 c 0
451 397 m 1
 451 307 l 1
 240 307 l 1
 240 397 l 1
 451 397 l 1
EndSplineSet
EndChar

StartChar: uni0399
Encoding: 921 921 359
Width: 294
Flags: W
LayerCount: 2
Fore
SplineSet
220 692 m 1
 220 0 l 1
 73 0 l 1
 73 692 l 1
 220 692 l 1
EndSplineSet
EndChar

StartChar: uni039A
Encoding: 922 922 360
Width: 622
Flags: W
LayerCount: 2
Fore
SplineSet
220 692 m 1
 220 0 l 1
 73 0 l 1
 73 692 l 1
 220 692 l 1
613 692 m 1
 382 380 l 1
 631 0 l 1
 459 0 l 1
 226 369 l 1
 456 692 l 1
 613 692 l 1
EndSplineSet
EndChar

StartChar: uni039B
Encoding: 923 923 361
Width: 586
Flags: W
LayerCount: 2
Fore
SplineSet
383 692 m 1
 595 0 l 1
 439 0 l 1
 292 583 l 1
 144 0 l 1
 -9 0 l 1
 204 692 l 1
 383 692 l 1
EndSplineSet
EndChar

StartChar: uni039C
Encoding: 924 924 362
Width: 784
Flags: W
LayerCount: 2
Fore
SplineSet
691 692 m 1
 744 0 l 1
 600 0 l 1
 585 281 l 2
 579 380 576 484 579 563 c 1
 462 74 l 1
 323 74 l 1
 198 564 l 1
 204 467 203 375 198 278 c 2
 183 0 l 1
 40 0 l 1
 94 692 l 1
 281 692 l 1
 395 215 l 1
 502 692 l 1
 691 692 l 1
EndSplineSet
EndChar

StartChar: uni039D
Encoding: 925 925 363
Width: 668
Flags: W
LayerCount: 2
Fore
SplineSet
595 692 m 1
 595 0 l 1
 406 0 l 1
 186 549 l 1
 194 487 206 397 206 269 c 2
 206 0 l 1
 73 0 l 1
 73 692 l 1
 258 692 l 1
 482 142 l 1
 475 189 462 285 462 388 c 2
 462 692 l 1
 595 692 l 1
EndSplineSet
EndChar

StartChar: uni039E
Encoding: 926 926 364
Width: 521
Flags: W
LayerCount: 2
Fore
SplineSet
486 692 m 1
 468 568 l 1
 33 568 l 1
 33 692 l 1
 486 692 l 1
420 410 m 1
 420 292 l 1
 97 292 l 1
 97 410 l 1
 420 410 l 1
488 128 m 1
 488 0 l 1
 33 0 l 1
 33 128 l 1
 488 128 l 1
EndSplineSet
EndChar

StartChar: uni039F
Encoding: 927 927 365
Width: 691
Flags: W
LayerCount: 2
Fore
SplineSet
346 708 m 0
 536 708 653 578 653 346 c 0
 653 119 536 -16 346 -16 c 0
 156 -16 38 115 38 346 c 0
 38 572 156 708 346 708 c 0
346 598 m 0
 248 598 193 527 193 346 c 0
 193 165 250 94 346 94 c 0
 445 94 498 165 498 346 c 0
 498 527 445 598 346 598 c 0
EndSplineSet
EndChar

StartChar: uni03A0
Encoding: 928 928 366
Width: 667
Flags: W
LayerCount: 2
Fore
SplineSet
593 692 m 1
 593 0 l 1
 446 0 l 1
 446 577 l 1
 220 577 l 1
 220 0 l 1
 73 0 l 1
 73 692 l 1
 593 692 l 1
EndSplineSet
EndChar

StartChar: uni03A1
Encoding: 929 929 367
Width: 595
Flags: W
LayerCount: 2
Fore
SplineSet
287 692 m 2
 463 692 571 620 571 469 c 0
 571 309 457 236 299 236 c 2
 220 236 l 1
 220 0 l 1
 73 0 l 1
 73 692 l 1
 287 692 l 2
287 344 m 2
 368 344 419 375 419 469 c 0
 419 550 371 586 285 586 c 2
 220 586 l 1
 220 344 l 1
 287 344 l 2
EndSplineSet
EndChar

StartChar: uni03A3
Encoding: 931 931 368
Width: 503
Flags: W
LayerCount: 2
Fore
SplineSet
477 692 m 1
 477 583 l 1
 189 583 l 1
 364 374 l 1
 364 309 l 1
 188 111 l 1
 477 111 l 1
 477 0 l 1
 26 0 l 1
 26 109 l 1
 225 339 l 1
 26 583 l 1
 26 692 l 1
 477 692 l 1
EndSplineSet
EndChar

StartChar: uni03A4
Encoding: 932 932 369
Width: 534
Flags: W
LayerCount: 2
Fore
SplineSet
532 692 m 1
 516 577 l 1
 341 577 l 1
 341 0 l 1
 194 0 l 1
 194 577 l 1
 10 577 l 1
 10 692 l 1
 532 692 l 1
EndSplineSet
EndChar

StartChar: uni03A5
Encoding: 933 933 370
Width: 583
Flags: W
LayerCount: 2
Fore
SplineSet
587 692 m 1
 365 261 l 1
 365 0 l 1
 218 0 l 1
 218 260 l 1
 -4 692 l 1
 157 692 l 1
 295 378 l 1
 432 692 l 1
 587 692 l 1
EndSplineSet
EndChar

StartChar: uni03A6
Encoding: 934 934 371
Width: 835
Flags: W
LayerCount: 2
Fore
SplineSet
814 349 m 0
 814 174 685 81 489 73 c 1
 489 0 l 1
 346 0 l 1
 346 74 l 1
 145 83 21 179 21 345 c 0
 21 517 150 610 346 618 c 1
 346 692 l 1
 489 692 l 1
 489 617 l 1
 690 608 814 512 814 349 c 0
171 345 m 0
 171 237 228 172 352 165 c 1
 352 526 l 1
 225 517 171 453 171 345 c 0
483 165 m 1
 610 173 664 240 664 349 c 0
 664 454 607 518 483 525 c 1
 483 165 l 1
EndSplineSet
EndChar

StartChar: uni03A7
Encoding: 935 935 372
Width: 571
Flags: W
LayerCount: 2
Fore
SplineSet
371 373 m 1
 573 0 l 1
 411 0 l 1
 282 274 l 1
 155 0 l 1
 -2 0 l 1
 195 368 l 1
 14 692 l 1
 175 692 l 1
 284 461 l 1
 398 692 l 1
 554 692 l 1
 371 373 l 1
EndSplineSet
EndChar

StartChar: uni03A8
Encoding: 936 936 373
Width: 719
Flags: W
LayerCount: 2
Fore
SplineSet
554 692 m 1
 696 692 l 1
 696 430 l 2
 696 289 604 204 433 185 c 1
 433 0 l 1
 286 0 l 1
 286 185 l 1
 110 204 23 289 23 428 c 2
 23 692 l 1
 165 692 l 1
 165 428 l 2
 165 345 201 301 292 288 c 1
 292 692 l 1
 427 692 l 1
 427 289 l 1
 516 302 554 346 554 428 c 2
 554 692 l 1
EndSplineSet
EndChar

StartChar: uni03A9
Encoding: 937 937 374
Width: 691
Flags: W
LayerCount: 2
Fore
SplineSet
346 708 m 0
 538 708 653 571 653 372 c 0
 653 244 612 162 519 109 c 1
 631 109 l 1
 631 0 l 1
 387 0 l 1
 387 105 l 1
 475 140 498 220 498 372 c 0
 498 525 445 598 346 598 c 0
 248 598 193 525 193 371 c 0
 193 212 220 141 303 105 c 1
 303 0 l 1
 59 0 l 1
 59 109 l 1
 169 109 l 1
 81 158 38 241 38 371 c 0
 38 568 156 708 346 708 c 0
EndSplineSet
EndChar

StartChar: uni03AA
Encoding: 938 938 375
Width: 294
Flags: W
LayerCount: 2
Fore
SplineSet
32 918 m 0
 75 918 107 885 107 844 c 0
 107 803 75 770 32 770 c 0
 -10 770 -43 803 -43 844 c 0
 -43 885 -10 918 32 918 c 0
258 918 m 0
 301 918 334 885 334 844 c 0
 334 803 301 770 258 770 c 0
 217 770 184 803 184 844 c 0
 184 885 217 918 258 918 c 0
220 692 m 1
 220 0 l 1
 73 0 l 1
 73 692 l 1
 220 692 l 1
EndSplineSet
EndChar

StartChar: uni03AB
Encoding: 939 939 376
Width: 583
Flags: W
LayerCount: 2
Fore
SplineSet
177 918 m 0
 220 918 252 885 252 844 c 0
 252 803 220 770 177 770 c 0
 135 770 102 803 102 844 c 0
 102 885 135 918 177 918 c 0
403 918 m 0
 446 918 479 885 479 844 c 0
 479 803 446 770 403 770 c 0
 362 770 329 803 329 844 c 0
 329 885 362 918 403 918 c 0
587 692 m 1
 365 261 l 1
 365 0 l 1
 218 0 l 1
 218 260 l 1
 -4 692 l 1
 157 692 l 1
 295 378 l 1
 432 692 l 1
 587 692 l 1
EndSplineSet
EndChar

StartChar: uni03AC
Encoding: 940 940 377
Width: 596
Flags: W
LayerCount: 2
Fore
SplineSet
229 829 m 1
 369 818 l 1
 326 596 l 1
 233 596 l 1
 229 829 l 1
253 546 m 0
 340 546 392 499 412 401 c 1
 430 530 l 1
 553 530 l 1
 487 258 l 1
 514 145 l 2
 522 114 537 99 567 92 c 1
 521 -16 l 1
 464 -8 422 21 410 78 c 2
 403 119 l 1
 371 36 322 -16 238 -16 c 0
 116 -16 38 78 38 261 c 0
 38 427 115 546 253 546 c 0
270 441 m 0
 217 441 183 383 183 261 c 0
 183 137 216 89 266 89 c 0
 310 89 350 123 376 271 c 1
 352 402 322 441 270 441 c 0
EndSplineSet
EndChar

StartChar: uni03AD
Encoding: 941 941 378
Width: 473
Flags: W
LayerCount: 2
Fore
SplineSet
206 829 m 1
 346 818 l 1
 303 596 l 1
 210 596 l 1
 206 829 l 1
259 546 m 0
 337 546 398 527 451 489 c 1
 392 413 l 1
 355 434 322 446 277 446 c 0
 228 446 199 424 199 384 c 0
 199 346 228 321 280 321 c 2
 346 321 l 1
 331 226 l 1
 273 226 l 2
 207 226 182 203 182 158 c 0
 182 116 213 87 276 87 c 0
 323 87 362 101 407 129 c 1
 468 48 l 1
 415 8 343 -16 258 -16 c 0
 128 -16 34 41 34 147 c 0
 34 229 85 271 174 282 c 1
 94 298 55 338 55 400 c 0
 55 491 137 546 259 546 c 0
EndSplineSet
EndChar

StartChar: uni03AE
Encoding: 942 942 379
Width: 580
Flags: W
LayerCount: 2
Fore
SplineSet
338 596 m 1
 245 596 l 1
 241 829 l 1
 381 818 l 1
 338 596 l 1
369 546 m 0
 462 546 518 486 518 382 c 2
 518 -220 l 1
 376 -204 l 1
 376 362 l 2
 376 423 353 440 318 440 c 0
 277 440 246 414 217 369 c 1
 217 0 l 1
 75 0 l 1
 75 376 l 2
 75 438 66 484 52 526 c 1
 183 543 l 1
 193 525 201 501 208 464 c 1
 250 516 302 546 369 546 c 0
EndSplineSet
EndChar

StartChar: uni03AF
Encoding: 943 943 380
Width: 279
Flags: W
LayerCount: 2
Fore
SplineSet
83 829 m 1
 223 818 l 1
 180 596 l 1
 87 596 l 1
 83 829 l 1
204 530 m 1
 204 170 l 2
 204 121 216 103 248 87 c 1
 206 -16 l 1
 110 3 62 49 62 152 c 2
 62 530 l 1
 204 530 l 1
EndSplineSet
EndChar

StartChar: uni03B0
Encoding: 944 944 381
Width: 563
Flags: W
LayerCount: 2
Fore
SplineSet
235 939 m 1
 356 930 l 1
 319 738 l 1
 239 738 l 1
 235 939 l 1
153 754 m 0
 195 754 228 721 228 681 c 0
 228 639 195 607 153 607 c 0
 111 607 78 639 78 681 c 0
 78 721 111 754 153 754 c 0
403 754 m 0
 445 754 478 721 478 681 c 0
 478 639 445 607 403 607 c 0
 361 607 328 639 328 681 c 0
 328 721 361 754 403 754 c 0
486 530 m 1
 502 448 514 358 514 250 c 0
 514 60 385 -16 262 -16 c 0
 154 -16 62 44 62 176 c 2
 62 530 l 1
 204 530 l 1
 204 180 l 2
 204 116 229 90 271 90 c 0
 319 90 372 131 372 261 c 0
 372 342 363 436 345 530 c 1
 486 530 l 1
EndSplineSet
EndChar

StartChar: uni03B1
Encoding: 945 945 382
Width: 596
Flags: W
LayerCount: 2
Fore
SplineSet
253 546 m 0
 340 546 392 499 412 401 c 1
 430 530 l 1
 553 530 l 1
 487 258 l 1
 514 145 l 2
 522 114 537 99 567 92 c 1
 521 -16 l 1
 464 -8 422 21 410 78 c 2
 403 119 l 1
 371 36 322 -16 238 -16 c 0
 116 -16 38 78 38 261 c 0
 38 427 115 546 253 546 c 0
270 441 m 0
 217 441 183 383 183 261 c 0
 183 137 216 89 266 89 c 0
 310 89 350 123 376 271 c 1
 352 402 322 441 270 441 c 0
EndSplineSet
EndChar

StartChar: uni03B2
Encoding: 946 946 383
Width: 605
Flags: W
LayerCount: 2
Fore
SplineSet
377 405 m 1
 464 396 574 358 574 206 c 0
 574 73 475 -16 349 -16 c 0
 292 -16 246 2 206 30 c 1
 206 -201 l 1
 68 -220 l 1
 68 545 l 2
 68 679 161 757 296 757 c 0
 431 757 518 680 518 569 c 0
 518 479 465 423 377 405 c 1
316 94 m 0
 380 94 430 132 430 216 c 0
 430 312 377 349 292 349 c 2
 249 349 l 1
 259 447 l 1
 289 447 l 2
 343 447 381 482 381 557 c 0
 381 625 347 655 295 655 c 0
 238 655 206 620 206 546 c 2
 206 123 l 1
 235 104 268 94 316 94 c 0
EndSplineSet
EndChar

StartChar: uni03B3
Encoding: 947 947 384
Width: 501
Flags: W
LayerCount: 2
Fore
SplineSet
115 546 m 1
 162 488 218 363 251 147 c 1
 362 545 l 1
 503 515 l 1
 317 26 l 2
 287 -53 283 -109 300 -206 c 1
 187 -221 l 1
 146 -140 145 -80 181 11 c 1
 118 254 51 421 -14 500 c 1
 115 546 l 1
EndSplineSet
EndChar

StartChar: uni03B4
Encoding: 948 948 385
Width: 578
Flags: W
LayerCount: 2
Fore
SplineSet
336 514 m 0
 473 458 539 389 539 247 c 0
 539 93 444 -16 289 -16 c 0
 135 -16 38 80 38 241 c 0
 38 346 95 419 191 464 c 1
 111 508 92 550 92 605 c 0
 92 686 156 757 297 757 c 0
 380 757 440 731 485 697 c 1
 419 620 l 1
 384 644 351 656 308 656 c 0
 252 656 230 632 230 602 c 0
 230 567 245 551 336 514 c 0
288 90 m 0
 355 90 391 141 391 247 c 0
 391 345 368 383 267 429 c 1
 208 385 185 331 185 246 c 0
 185 142 218 90 288 90 c 0
EndSplineSet
EndChar

StartChar: uni03B5
Encoding: 949 949 386
Width: 473
Flags: W
LayerCount: 2
Fore
SplineSet
259 546 m 0
 337 546 398 527 451 489 c 1
 392 413 l 1
 355 434 322 446 277 446 c 0
 228 446 199 424 199 384 c 0
 199 346 228 321 280 321 c 2
 346 321 l 1
 331 226 l 1
 273 226 l 2
 207 226 182 203 182 158 c 0
 182 116 213 87 276 87 c 0
 323 87 362 101 407 129 c 1
 468 48 l 1
 415 8 343 -16 258 -16 c 0
 128 -16 34 41 34 147 c 0
 34 229 85 271 174 282 c 1
 94 298 55 338 55 400 c 0
 55 491 137 546 259 546 c 0
EndSplineSet
EndChar

StartChar: uni03B6
Encoding: 950 950 387
Width: 412
Flags: W
LayerCount: 2
Fore
SplineSet
420 741 m 1
 439 663 l 1
 231 489 173 367 173 259 c 0
 173 179 206 149 293 114 c 0
 373 81 428 48 428 -34 c 0
 428 -115 371 -170 252 -221 c 1
 198 -134 l 1
 247 -109 281 -87 281 -48 c 0
 281 -15 264 -2 194 27 c 0
 79 76 26 127 26 254 c 0
 26 382 128 539 313 654 c 1
 285 646 229 637 174 637 c 2
 33 637 l 1
 49 741 l 1
 420 741 l 1
EndSplineSet
EndChar

StartChar: uni03B7
Encoding: 951 951 388
Width: 580
Flags: W
LayerCount: 2
Fore
SplineSet
369 546 m 0
 462 546 518 486 518 382 c 2
 518 -220 l 1
 376 -204 l 1
 376 362 l 2
 376 423 353 440 318 440 c 0
 277 440 246 414 217 369 c 1
 217 0 l 1
 75 0 l 1
 75 376 l 2
 75 438 66 484 52 526 c 1
 183 543 l 1
 193 525 201 501 208 464 c 1
 250 516 302 546 369 546 c 0
EndSplineSet
EndChar

StartChar: uni03B8
Encoding: 952 952 389
Width: 566
Flags: W
LayerCount: 2
Fore
SplineSet
283 757 m 0
 442 757 527 622 527 372 c 0
 527 120 441 -16 283 -16 c 0
 124 -16 38 117 38 372 c 0
 38 619 125 757 283 757 c 0
283 652 m 0
 213 652 178 598 174 416 c 1
 390 416 l 1
 386 598 353 652 283 652 c 0
283 89 m 0
 352 89 385 143 390 329 c 1
 174 329 l 1
 180 142 215 89 283 89 c 0
EndSplineSet
EndChar

StartChar: uni03B9
Encoding: 953 953 390
Width: 279
Flags: W
LayerCount: 2
Fore
SplineSet
204 530 m 1
 204 170 l 2
 204 121 216 103 248 87 c 1
 206 -16 l 1
 110 3 62 49 62 152 c 2
 62 530 l 1
 204 530 l 1
EndSplineSet
EndChar

StartChar: uni03BA
Encoding: 954 954 391
Width: 545
Flags: W
LayerCount: 2
Fore
SplineSet
532 491 m 1
 373 285 l 1
 493 134 l 2
 512 110 529 99 552 90 c 1
 505 -16 l 1
 445 -10 407 12 367 74 c 2
 221 282 l 1
 415 545 l 1
 532 491 l 1
183 543 m 1
 202 506 217 455 217 344 c 2
 217 0 l 1
 75 0 l 1
 75 376 l 2
 75 438 64 489 52 526 c 1
 183 543 l 1
EndSplineSet
EndChar

StartChar: uni03BB
Encoding: 955 955 392
Width: 520
Flags: W
LayerCount: 2
Fore
SplineSet
81 757 m 1
 248 731 324 677 366 497 c 0
 431 219 466 124 537 30 c 1
 401 -16 l 1
 335 86 300 178 258 421 c 1
 151 -16 l 1
 11 17 l 1
 174 530 l 1
 226 530 l 1
 199 610 166 641 63 657 c 1
 81 757 l 1
EndSplineSet
EndChar

StartChar: uni03BC
Encoding: 956 956 393
Width: 582
Flags: W
LayerCount: 2
Fore
SplineSet
530 0 m 1
 399 -16 l 1
 384 15 381 37 376 72 c 1
 348 25 309 -9 260 -9 c 0
 222 -9 194 2 170 35 c 1
 190 -6 204 -41 204 -109 c 2
 204 -204 l 1
 68 -219 l 1
 68 530 l 1
 210 530 l 1
 210 164 l 2
 210 113 234 97 268 97 c 0
 301 97 335 116 363 167 c 1
 363 530 l 1
 505 530 l 1
 505 182 l 2
 505 101 517 42 530 0 c 1
EndSplineSet
EndChar

StartChar: uni03BD
Encoding: 957 957 394
Width: 501
Flags: W
LayerCount: 2
Fore
SplineSet
116 546 m 1
 164 486 212 347 248 115 c 1
 365 545 l 1
 503 515 l 1
 329 0 l 1
 162 0 l 1
 106 250 56 425 -14 500 c 1
 116 546 l 1
EndSplineSet
EndChar

StartChar: uni03BE
Encoding: 958 958 395
Width: 447
Flags: W
LayerCount: 2
Fore
SplineSet
278 757 m 0
 357 757 414 737 464 698 c 1
 401 620 l 1
 368 642 340 655 298 655 c 0
 243 655 216 623 216 573 c 0
 216 518 249 486 304 486 c 2
 368 486 l 1
 353 387 l 1
 300 387 l 2
 228 387 182 341 182 269 c 0
 182 190 215 163 321 119 c 0
 414 79 464 47 464 -34 c 0
 464 -115 407 -170 288 -221 c 1
 234 -134 l 1
 283 -109 317 -87 317 -49 c 0
 317 -15 300 -2 225 30 c 0
 113 80 33 121 33 259 c 0
 33 372 106 428 196 444 c 1
 120 465 72 512 72 590 c 0
 72 688 158 757 278 757 c 0
EndSplineSet
EndChar

StartChar: uni03BF
Encoding: 959 959 396
Width: 584
Flags: W
LayerCount: 2
Fore
SplineSet
293 546 m 0
 451 546 546 441 546 265 c 0
 546 97 451 -16 292 -16 c 0
 134 -16 38 89 38 265 c 0
 38 434 133 546 293 546 c 0
293 440 m 0
 222 440 186 386 186 265 c 0
 186 143 222 90 292 90 c 0
 362 90 398 144 398 265 c 0
 398 387 362 440 293 440 c 0
EndSplineSet
EndChar

StartChar: uni03C0
Encoding: 960 960 397
Width: 608
Flags: W
LayerCount: 2
Fore
SplineSet
584 423 m 1
 519 423 l 1
 519 169 l 2
 519 121 530 103 562 87 c 1
 520 -16 l 1
 423 2 377 48 377 151 c 2
 377 423 l 1
 243 422 l 1
 243 0 l 1
 103 0 l 1
 103 422 l 1
 69 421 55 419 28 411 c 1
 3 509 l 1
 40 525 71 530 141 530 c 2
 584 530 l 1
 584 423 l 1
EndSplineSet
EndChar

StartChar: uni03C1
Encoding: 961 961 398
Width: 583
Flags: W
LayerCount: 2
Fore
SplineSet
295 546 m 0
 454 546 540 448 540 266 c 0
 540 109 463 -16 330 -16 c 0
 279 -16 234 1 199 48 c 1
 199 -204 l 1
 57 -220 l 1
 57 274 l 2
 57 450 136 546 295 546 c 0
290 90 m 0
 354 90 392 145 392 265 c 0
 392 398 356 442 296 442 c 0
 224 442 199 383 199 259 c 2
 199 148 l 1
 222 107 252 90 290 90 c 0
EndSplineSet
EndChar

StartChar: uni03C2
Encoding: 962 962 399
Width: 476
Flags: W
LayerCount: 2
Fore
SplineSet
291 546 m 0
 362 546 417 525 467 482 c 1
 405 397 l 1
 371 424 340 436 301 436 c 0
 233 436 187 387 187 275 c 0
 187 185 214 155 311 114 c 0
 391 81 444 48 444 -34 c 0
 444 -115 388 -170 268 -221 c 1
 215 -135 l 1
 263 -109 297 -87 297 -48 c 0
 297 -15 280 -3 212 26 c 0
 107 69 38 125 38 275 c 0
 38 438 138 546 291 546 c 0
EndSplineSet
EndChar

StartChar: uni03C3
Encoding: 963 963 400
Width: 599
Flags: W
LayerCount: 2
Fore
SplineSet
585 530 m 1
 585 425 l 1
 475 432 l 1
 518 398 546 343 546 260 c 0
 546 97 451 -16 292 -16 c 0
 134 -16 38 89 38 265 c 0
 38 429 126 538 315 538 c 0
 406 538 503 534 585 530 c 1
292 90 m 0
 362 90 398 144 398 260 c 0
 398 356 377 408 351 436 c 1
 348 436 l 2
 225 436 186 399 186 265 c 0
 186 143 222 90 292 90 c 0
EndSplineSet
EndChar

StartChar: uni03C4
Encoding: 964 964 401
Width: 476
Flags: W
LayerCount: 2
Fore
SplineSet
474 423 m 1
 308 423 l 1
 308 170 l 2
 308 121 320 103 352 87 c 1
 310 -16 l 1
 213 2 166 48 166 151 c 2
 166 423 l 1
 113 423 l 2
 62 422 48 420 18 411 c 1
 -7 509 l 1
 30 525 60 530 126 530 c 2
 474 530 l 1
 474 423 l 1
EndSplineSet
EndChar

StartChar: uni03C5
Encoding: 965 965 402
Width: 563
Flags: W
LayerCount: 2
Fore
SplineSet
486 530 m 1
 502 448 514 358 514 250 c 0
 514 60 385 -16 262 -16 c 0
 154 -16 62 44 62 176 c 2
 62 530 l 1
 204 530 l 1
 204 180 l 2
 204 116 229 90 271 90 c 0
 319 90 372 131 372 261 c 0
 372 342 363 436 345 530 c 1
 486 530 l 1
EndSplineSet
EndChar

StartChar: uni03C6
Encoding: 966 966 403
Width: 750
Flags: W
LayerCount: 2
Fore
SplineSet
706 269 m 0
 706 88 620 1 438 -15 c 1
 438 -204 l 1
 305 -220 l 1
 305 -15 l 1
 124 0 44 93 44 242 c 0
 44 355 74 452 104 530 c 1
 241 530 l 1
 211 446 182 356 182 253 c 0
 182 144 218 96 305 84 c 1
 305 328 l 2
 305 466 375 546 498 546 c 0
 634 546 706 458 706 269 c 0
438 84 m 1
 539 95 568 143 568 267 c 0
 568 412 547 448 500 448 c 0
 463 448 438 430 438 330 c 2
 438 84 l 1
EndSplineSet
EndChar

StartChar: uni03C7
Encoding: 967 967 404
Width: 487
Flags: W
LayerCount: 2
Fore
SplineSet
317 186 m 1
 495 -197 l 1
 353 -219 l 1
 241 71 l 1
 131 -218 l 1
 -13 -203 l 1
 170 184 l 1
 92 352 48 430 -18 499 c 1
 121 543 l 1
 167 479 196 428 245 281 c 1
 329 543 l 1
 475 527 l 1
 317 186 l 1
EndSplineSet
EndChar

StartChar: uni03C8
Encoding: 968 968 405
Width: 773
Flags: W
LayerCount: 2
Fore
SplineSet
725 249 m 0
 725 79 617 -1 456 -14 c 1
 456 -204 l 1
 321 -220 l 1
 321 -15 l 1
 141 -2 59 81 59 203 c 2
 59 530 l 1
 198 530 l 1
 198 212 l 2
 198 140 229 97 321 87 c 1
 321 530 l 1
 456 530 l 1
 456 88 l 1
 545 100 584 153 584 255 c 0
 584 337 575 436 558 530 c 1
 696 530 l 1
 713 448 725 358 725 249 c 0
EndSplineSet
EndChar

StartChar: uni03C9
Encoding: 969 969 406
Width: 775
Flags: W
LayerCount: 2
Fore
SplineSet
668 530 m 1
 702 455 731 360 731 241 c 0
 731 62 647 -16 536 -16 c 0
 456 -16 405 19 388 102 c 1
 367 18 320 -16 236 -16 c 0
 126 -16 44 60 44 241 c 0
 44 360 72 454 106 530 c 1
 237 530 l 1
 204 431 183 344 183 246 c 0
 183 135 210 90 259 90 c 0
 295 90 321 105 321 185 c 2
 321 355 l 1
 454 373 l 1
 454 185 l 2
 454 111 479 90 516 90 c 0
 557 90 592 124 592 248 c 0
 592 344 570 431 537 530 c 1
 668 530 l 1
EndSplineSet
EndChar

StartChar: uni03CA
Encoding: 970 970 407
Width: 279
Flags: W
LayerCount: 2
Fore
SplineSet
19 792 m 0
 62 792 94 759 94 718 c 0
 94 677 62 644 19 644 c 0
 -23 644 -56 677 -56 718 c 0
 -56 759 -23 792 19 792 c 0
245 792 m 0
 288 792 321 759 321 718 c 0
 321 677 288 644 245 644 c 0
 204 644 171 677 171 718 c 0
 171 759 204 792 245 792 c 0
204 530 m 1
 204 170 l 2
 204 121 216 103 248 87 c 1
 206 -16 l 1
 110 3 62 49 62 152 c 2
 62 530 l 1
 204 530 l 1
EndSplineSet
EndChar

StartChar: uni03CB
Encoding: 971 971 408
Width: 563
Flags: W
LayerCount: 2
Fore
SplineSet
165 792 m 0
 208 792 240 759 240 718 c 0
 240 677 208 644 165 644 c 0
 123 644 90 677 90 718 c 0
 90 759 123 792 165 792 c 0
391 792 m 0
 434 792 467 759 467 718 c 0
 467 677 434 644 391 644 c 0
 350 644 317 677 317 718 c 0
 317 759 350 792 391 792 c 0
486 530 m 1
 502 448 514 358 514 250 c 0
 514 60 385 -16 262 -16 c 0
 154 -16 62 44 62 176 c 2
 62 530 l 1
 204 530 l 1
 204 180 l 2
 204 116 229 90 271 90 c 0
 319 90 372 131 372 261 c 0
 372 342 363 436 345 530 c 1
 486 530 l 1
EndSplineSet
EndChar

StartChar: uni03CC
Encoding: 972 972 409
Width: 584
Flags: W
LayerCount: 2
Fore
SplineSet
242 829 m 1
 382 818 l 1
 339 596 l 1
 246 596 l 1
 242 829 l 1
293 546 m 0
 451 546 546 441 546 265 c 0
 546 97 451 -16 292 -16 c 0
 134 -16 38 89 38 265 c 0
 38 434 133 546 293 546 c 0
293 440 m 0
 222 440 186 386 186 265 c 0
 186 143 222 90 292 90 c 0
 362 90 398 144 398 265 c 0
 398 387 362 440 293 440 c 0
EndSplineSet
EndChar

StartChar: uni03CD
Encoding: 973 973 410
Width: 563
Flags: W
LayerCount: 2
Fore
SplineSet
229 829 m 1
 369 818 l 1
 326 596 l 1
 233 596 l 1
 229 829 l 1
486 530 m 1
 502 448 514 358 514 250 c 0
 514 60 385 -16 262 -16 c 0
 154 -16 62 44 62 176 c 2
 62 530 l 1
 204 530 l 1
 204 180 l 2
 204 116 229 90 271 90 c 0
 319 90 372 131 372 261 c 0
 372 342 363 436 345 530 c 1
 486 530 l 1
EndSplineSet
EndChar

StartChar: uni03CE
Encoding: 974 974 411
Width: 775
Flags: W
LayerCount: 2
Fore
SplineSet
337 829 m 1
 477 818 l 1
 434 596 l 1
 341 596 l 1
 337 829 l 1
668 530 m 1
 702 455 731 360 731 241 c 0
 731 62 647 -16 536 -16 c 0
 456 -16 405 19 388 102 c 1
 367 18 320 -16 236 -16 c 0
 126 -16 44 60 44 241 c 0
 44 360 72 454 106 530 c 1
 237 530 l 1
 204 431 183 344 183 246 c 0
 183 135 210 90 259 90 c 0
 295 90 321 105 321 185 c 2
 321 355 l 1
 454 373 l 1
 454 185 l 2
 454 111 479 90 516 90 c 0
 557 90 592 124 592 248 c 0
 592 344 570 431 537 530 c 1
 668 530 l 1
EndSplineSet
EndChar

StartChar: uni03D0
Encoding: 976 976 412
Width: 566
Flags: W
LayerCount: 2
Fore
SplineSet
370 432 m 0
 482 432 534 347 534 229 c 0
 534 92 439 -16 285 -16 c 0
 109 -16 40 121 40 344 c 0
 40 607 167 757 322 757 c 0
 445 757 490 686 490 618 c 0
 490 533 436 463 311 423 c 1
 337 430 351 432 370 432 c 0
313 655 m 0
 258 655 200 601 187 430 c 1
 217 441 l 2
 316 481 361 532 361 605 c 0
 361 640 341 655 313 655 c 0
285 89 m 0
 348 89 385 138 385 224 c 0
 385 312 360 364 288 364 c 0
 266 364 240 356 212 345 c 2
 184 333 l 1
 184 160 213 89 285 89 c 0
EndSplineSet
EndChar

StartChar: uni03D1
Encoding: 977 977 413
Width: 546
Flags: W
LayerCount: 2
Fore
SplineSet
533 501 m 1
 533 403 l 1
 499 403 l 1
 499 402 l 2
 499 124 429 -16 241 -16 c 0
 131 -16 46 44 46 176 c 2
 46 352 l 1
 183 352 l 1
 183 171 l 2
 183 114 205 88 248 88 c 0
 321 89 353 163 353 401 c 2
 353 402 l 1
 255 402 l 2
 97 402 31 472 31 573 c 0
 31 672 114 757 239 757 c 0
 389 757 471 662 493 501 c 1
 533 501 l 1
258 500 m 2
 348 500 l 1
 336 612 299 652 239 652 c 0
 189 652 159 621 159 577 c 0
 159 525 195 499 258 500 c 2
EndSplineSet
EndChar

StartChar: uni03D2
Encoding: 978 978 414
Width: 621
Flags: W
LayerCount: 2
Fore
SplineSet
218 0 m 1
 218 260 l 1
 -4 692 l 1
 157 692 l 1
 295 378 l 1
 374 571 l 2
 412 669 459 708 548 708 c 0
 597 708 633 692 665 670 c 1
 622 586 l 1
 607 595 589 603 565 603 c 0
 535 603 518 589 497 545 c 2
 365 261 l 1
 365 0 l 1
 218 0 l 1
EndSplineSet
EndChar

StartChar: uni03D5
Encoding: 981 981 415
Width: 654
Flags: W
LayerCount: 2
Fore
SplineSet
624 267 m 0
 624 99 525 16 398 4 c 1
 397 -204 l 1
 255 -220 l 1
 256 4 l 1
 127 17 31 98 31 263 c 0
 31 431 129 514 255 526 c 1
 255 741 l 1
 397 756 l 1
 397 526 l 1
 527 515 624 432 624 267 c 0
386 99 m 1
 451 107 483 160 483 267 c 0
 483 375 449 425 386 432 c 1
 386 99 l 1
172 263 m 0
 172 160 205 107 267 99 c 1
 267 432 l 1
 202 424 172 372 172 263 c 0
EndSplineSet
EndChar

StartChar: uni03D6
Encoding: 982 982 416
Width: 747
Flags: W
LayerCount: 2
Fore
SplineSet
729 530 m 1
 729 427 l 1
 637 427 l 1
 674 370 703 303 703 221 c 0
 703 65 623 -16 518 -16 c 0
 443 -16 392 19 374 102 c 1
 354 18 307 -16 228 -16 c 0
 123 -16 46 62 46 221 c 0
 46 304 74 370 112 427 c 1
 75 427 61 424 33 416 c 1
 8 509 l 1
 45 525 84 530 175 530 c 2
 729 530 l 1
563 232 m 0
 563 304 548 366 521 427 c 1
 228 427 l 1
 200 366 186 304 186 231 c 0
 186 135 208 90 251 90 c 0
 282 90 308 105 308 185 c 2
 308 306 l 1
 441 324 l 1
 441 185 l 2
 441 111 466 90 495 90 c 0
 534 90 563 124 563 232 c 0
EndSplineSet
EndChar

StartChar: uni03D7
Encoding: 983 983 417
Width: 578
Flags: W
LayerCount: 2
Fore
SplineSet
502 170 m 2
 502 118 512 97 546 81 c 1
 546 -42 l 2
 546 -163 476 -224 363 -224 c 0
 302 -224 256 -205 226 -183 c 1
 275 -98 l 1
 299 -110 320 -119 355 -119 c 0
 394 -119 419 -99 419 -54 c 2
 420 30 l 1
 386 53 369 88 369 144 c 0
 369 208 398 356 415 409 c 1
 191 -10 l 1
 75 26 l 1
 75 360 l 2
 75 407 65 426 31 442 c 1
 74 546 l 1
 161 526 209 479 209 386 c 0
 209 322 179 174 163 121 c 1
 386 540 l 1
 502 504 l 1
 502 170 l 2
EndSplineSet
EndChar

StartChar: uni03F0
Encoding: 1008 1008 418
Width: 577
Flags: W
LayerCount: 2
Fore
SplineSet
502 170 m 2
 502 122 512 104 546 88 c 1
 503 -16 l 1
 417 4 369 51 369 144 c 0
 369 208 398 356 415 409 c 1
 191 -10 l 1
 75 26 l 1
 75 360 l 2
 75 407 65 426 31 442 c 1
 74 546 l 1
 161 526 209 479 209 386 c 0
 209 322 179 174 163 121 c 1
 386 540 l 1
 502 504 l 1
 502 170 l 2
EndSplineSet
EndChar

StartChar: uni03F1
Encoding: 1009 1009 419
Width: 583
Flags: W
LayerCount: 2
Fore
SplineSet
329 -81 m 0
 425 -96 468 -126 485 -189 c 1
 361 -221 l 1
 348 -191 331 -185 241 -171 c 0
 119 -154 57 -101 57 31 c 2
 57 274 l 2
 57 450 136 546 295 546 c 0
 454 546 540 448 540 289 c 0
 540 148 463 21 330 21 c 0
 279 21 234 39 199 86 c 1
 199 15 l 2
 199 -50 227 -66 329 -81 c 0
297 442 m 0
 224 442 199 383 199 259 c 2
 199 186 l 1
 222 145 252 127 290 127 c 0
 354 127 392 183 392 288 c 0
 392 398 356 442 297 442 c 0
EndSplineSet
EndChar

StartChar: uni03F2
Encoding: 1010 1010 420
Width: 512
Flags: W
LayerCount: 2
Fore
SplineSet
309 546 m 0
 391 546 444 526 501 482 c 1
 439 398 l 1
 398 424 367 436 320 436 c 0
 240 436 188 383 188 262 c 0
 188 141 243 98 319 98 c 0
 369 98 398 110 439 133 c 1
 501 46 l 1
 448 8 392 -16 310 -16 c 0
 145 -16 38 88 38 261 c 0
 38 429 147 546 309 546 c 0
EndSplineSet
EndChar

StartChar: uni03F4
Encoding: 1012 1012 421
Width: 691
Flags: W
LayerCount: 2
Fore
SplineSet
346 708 m 0
 536 708 653 578 653 346 c 0
 653 119 536 -16 346 -16 c 0
 156 -16 38 115 38 346 c 0
 38 572 156 708 346 708 c 0
346 598 m 0
 243 598 186 527 186 346 c 0
 186 165 245 94 346 94 c 0
 449 94 505 165 505 346 c 0
 505 527 449 598 346 598 c 0
451 397 m 1
 451 307 l 1
 240 307 l 1
 240 397 l 1
 451 397 l 1
EndSplineSet
EndChar

StartChar: uni03F5
Encoding: 1013 1013 422
Width: 485
Flags: W
LayerCount: 2
Fore
SplineSet
302 90 m 0
 338 90 369 101 408 130 c 1
 469 46 l 1
 420 6 363 -16 297 -16 c 0
 135 -16 38 92 38 262 c 0
 38 431 137 546 292 546 c 0
 362 546 420 525 469 482 c 1
 408 403 l 1
 370 432 337 441 301 441 c 0
 232 441 188 401 183 313 c 1
 380 313 l 1
 380 227 l 1
 182 227 l 1
 187 129 234 90 302 90 c 0
EndSplineSet
EndChar

StartChar: uni03F6
Encoding: 1014 1014 423
Width: 485
Flags: W
LayerCount: 2
Fore
SplineSet
214 546 m 0
 355 546 447 455 447 269 c 0
 447 95 359 -16 193 -16 c 0
 122 -16 64 6 16 44 c 1
 78 127 l 1
 115 101 145 90 188 90 c 0
 249 90 296 126 303 227 c 1
 107 227 l 1
 107 313 l 1
 302 313 l 1
 296 405 260 441 204 441 c 0
 162 441 128 431 90 405 c 1
 29 485 l 1
 79 524 138 546 214 546 c 0
EndSplineSet
EndChar

StartChar: uni0400
Encoding: 1024 1024 424
Width: 528
Flags: W
LayerCount: 2
Fore
SplineSet
195 945 m 1
 411 825 l 1
 375 752 l 1
 141 837 l 1
 195 945 l 1
486 692 m 1
 470 585 l 1
 220 585 l 1
 220 405 l 1
 438 405 l 1
 438 299 l 1
 220 299 l 1
 220 108 l 1
 488 108 l 1
 488 0 l 1
 73 0 l 1
 73 692 l 1
 486 692 l 1
EndSplineSet
EndChar

StartChar: uni0401
Encoding: 1025 1025 425
Width: 528
Flags: W
LayerCount: 2
Fore
SplineSet
167 918 m 0
 210 918 242 885 242 844 c 0
 242 803 210 770 167 770 c 0
 125 770 92 803 92 844 c 0
 92 885 125 918 167 918 c 0
393 918 m 0
 436 918 469 885 469 844 c 0
 469 803 436 770 393 770 c 0
 352 770 319 803 319 844 c 0
 319 885 352 918 393 918 c 0
486 692 m 1
 470 585 l 1
 220 585 l 1
 220 405 l 1
 438 405 l 1
 438 299 l 1
 220 299 l 1
 220 108 l 1
 488 108 l 1
 488 0 l 1
 73 0 l 1
 73 692 l 1
 486 692 l 1
EndSplineSet
EndChar

StartChar: uni0402
Encoding: 1026 1026 426
Width: 742
Flags: W
LayerCount: 2
Fore
SplineSet
499 466 m 0
 638 466 714 377 714 230 c 2
 714 103 l 2
 714 -65 617 -124 502 -162 c 1
 462 -57 l 1
 552 -22 567 24 567 108 c 2
 567 230 l 2
 567 313 535 354 460 354 c 0
 406 354 371 335 341 304 c 1
 341 0 l 1
 194 0 l 1
 194 579 l 1
 10 579 l 1
 10 692 l 1
 532 692 l 1
 516 579 l 1
 341 579 l 1
 341 408 l 1
 381 444 430 466 499 466 c 0
EndSplineSet
EndChar

StartChar: uni0403
Encoding: 1027 1027 427
Width: 509
Flags: W
LayerCount: 2
Fore
SplineSet
437 837 m 1
 203 752 l 1
 167 825 l 1
 383 945 l 1
 437 837 l 1
506 692 m 1
 490 574 l 1
 220 574 l 1
 220 0 l 1
 73 0 l 1
 73 692 l 1
 506 692 l 1
EndSplineSet
EndChar

StartChar: uni0404
Encoding: 1028 1028 428
Width: 571
Flags: W
LayerCount: 2
Fore
SplineSet
495 155 m 1
 561 71 l 1
 517 26 443 -16 343 -16 c 0
 163 -16 38 111 38 347 c 0
 38 580 171 708 344 708 c 0
 435 708 495 681 553 633 c 1
 480 548 l 1
 439 582 399 598 352 598 c 0
 268 598 201 542 190 408 c 1
 433 408 l 1
 433 302 l 1
 189 302 l 1
 195 162 265 97 352 97 c 0
 413 97 456 124 495 155 c 1
EndSplineSet
EndChar

StartChar: uni0405
Encoding: 1029 1029 429
Width: 565
Flags: W
LayerCount: 2
Fore
SplineSet
284 708 m 0
 387 708 457 677 517 621 c 1
 447 540 l 1
 398 580 350 598 294 598 c 0
 234 598 193 572 193 523 c 0
 193 475 219 455 332 420 c 0
 457 380 537 328 537 200 c 0
 537 73 437 -16 269 -16 c 0
 154 -16 70 25 13 81 c 1
 88 164 l 1
 139 121 194 95 265 95 c 0
 336 95 384 129 384 190 c 0
 384 245 357 269 252 301 c 0
 102 348 42 408 42 513 c 0
 42 631 144 708 284 708 c 0
EndSplineSet
EndChar

StartChar: uni0406
Encoding: 1030 1030 430
Width: 294
Flags: W
LayerCount: 2
Fore
SplineSet
220 692 m 1
 220 0 l 1
 73 0 l 1
 73 692 l 1
 220 692 l 1
EndSplineSet
EndChar

StartChar: uni0407
Encoding: 1031 1031 431
Width: 294
Flags: W
LayerCount: 2
Fore
SplineSet
32 918 m 0
 75 918 107 885 107 844 c 0
 107 803 75 770 32 770 c 0
 -10 770 -43 803 -43 844 c 0
 -43 885 -10 918 32 918 c 0
258 918 m 0
 301 918 334 885 334 844 c 0
 334 803 301 770 258 770 c 0
 217 770 184 803 184 844 c 0
 184 885 217 918 258 918 c 0
220 692 m 1
 220 0 l 1
 73 0 l 1
 73 692 l 1
 220 692 l 1
EndSplineSet
EndChar

StartChar: uni0408
Encoding: 1032 1032 432
Width: 314
Flags: W
LayerCount: 2
Fore
SplineSet
245 692 m 1
 245 103 l 2
 245 -65 148 -124 32 -162 c 1
 -7 -57 l 1
 83 -22 98 24 98 108 c 2
 98 692 l 1
 245 692 l 1
EndSplineSet
EndChar

StartChar: uni0409
Encoding: 1033 1033 433
Width: 924
Flags: W
LayerCount: 2
Fore
SplineSet
632 452 m 2
 804 452 906 381 906 232 c 0
 906 70 793 0 635 0 c 2
 418 0 l 1
 418 578 l 1
 274 578 l 1
 247 329 l 2
 221 99 181 18 40 -16 c 1
 5 89 l 1
 78 118 87 165 107 333 c 2
 150 692 l 1
 565 692 l 1
 565 452 l 1
 632 452 l 2
627 109 m 2
 704 109 752 140 752 230 c 0
 752 311 709 347 622 347 c 2
 565 347 l 1
 565 109 l 1
 627 109 l 2
EndSplineSet
EndChar

StartChar: uni040A
Encoding: 1034 1034 434
Width: 950
Flags: W
LayerCount: 2
Fore
SplineSet
659 436 m 2
 828 436 932 365 932 224 c 0
 932 68 820 0 660 0 c 2
 444 0 l 1
 444 330 l 1
 220 330 l 1
 220 0 l 1
 73 0 l 1
 73 692 l 1
 220 692 l 1
 220 436 l 1
 444 436 l 1
 444 692 l 1
 591 692 l 1
 591 436 l 1
 659 436 l 2
658 109 m 2
 730 109 777 139 777 222 c 0
 777 298 735 330 652 330 c 2
 591 330 l 1
 591 109 l 1
 658 109 l 2
EndSplineSet
EndChar

StartChar: uni040B
Encoding: 1035 1035 435
Width: 742
Flags: W
LayerCount: 2
Fore
SplineSet
498 466 m 0
 637 466 714 377 714 230 c 2
 714 0 l 1
 567 0 l 1
 567 230 l 2
 567 313 535 354 462 354 c 0
 408 354 371 335 341 303 c 1
 341 0 l 1
 194 0 l 1
 194 579 l 1
 10 579 l 1
 10 692 l 1
 532 692 l 1
 516 579 l 1
 341 579 l 1
 341 408 l 1
 381 444 430 466 498 466 c 0
EndSplineSet
EndChar

StartChar: uni040C
Encoding: 1036 1036 436
Width: 615
Flags: W
LayerCount: 2
Fore
SplineSet
387 945 m 1
 441 837 l 1
 207 752 l 1
 171 825 l 1
 387 945 l 1
598 692 m 1
 422 376 l 1
 617 0 l 1
 454 0 l 1
 298 306 l 1
 220 306 l 1
 220 0 l 1
 73 0 l 1
 73 692 l 1
 220 692 l 1
 220 416 l 1
 301 416 l 1
 452 692 l 1
 598 692 l 1
EndSplineSet
EndChar

StartChar: uni040D
Encoding: 1037 1037 437
Width: 668
Flags: W
LayerCount: 2
Fore
SplineSet
248 945 m 1
 464 825 l 1
 428 752 l 1
 194 837 l 1
 248 945 l 1
595 692 m 1
 595 0 l 1
 450 0 l 1
 450 278 l 2
 450 396 461 485 471 544 c 1
 253 0 l 1
 73 0 l 1
 73 692 l 1
 218 692 l 1
 218 411 l 2
 218 285 207 214 197 149 c 1
 419 692 l 1
 595 692 l 1
EndSplineSet
EndChar

StartChar: uni040E
Encoding: 1038 1038 438
Width: 568
Flags: W
LayerCount: 2
Fore
SplineSet
284 752 m 0
 185 752 125 811 117 897 c 1
 198 912 l 1
 210 870 237 853 284 853 c 0
 330 853 358 870 371 912 c 1
 452 897 l 1
 444 811 383 752 284 752 c 0
582 692 m 1
 394 202 l 2
 334 46 262 -1 113 -16 c 1
 93 84 l 1
 181 97 222 120 253 185 c 1
 205 185 l 1
 -9 692 l 1
 142 692 l 1
 297 269 l 1
 433 692 l 1
 582 692 l 1
EndSplineSet
EndChar

StartChar: uni040F
Encoding: 1039 1039 439
Width: 659
Flags: W
LayerCount: 2
Fore
SplineSet
586 692 m 1
 586 0 l 1
 387 0 l 1
 387 -162 l 1
 283 -162 l 1
 266 0 l 1
 73 0 l 1
 73 692 l 1
 220 692 l 1
 220 116 l 1
 438 116 l 1
 438 692 l 1
 586 692 l 1
EndSplineSet
EndChar

StartChar: uni0410
Encoding: 1040 1040 440
Width: 586
Flags: W
LayerCount: 2
Fore
SplineSet
439 0 m 1
 400 155 l 1
 183 155 l 1
 144 0 l 1
 -9 0 l 1
 204 692 l 1
 383 692 l 1
 595 0 l 1
 439 0 l 1
210 264 m 1
 372 264 l 1
 291 583 l 1
 210 264 l 1
EndSplineSet
EndChar

StartChar: uni0411
Encoding: 1041 1041 441
Width: 592
Flags: W
LayerCount: 2
Fore
SplineSet
299 442 m 2
 469 442 571 371 571 227 c 0
 571 70 458 0 300 0 c 2
 73 0 l 1
 73 692 l 1
 492 692 l 1
 476 579 l 1
 220 579 l 1
 220 442 l 1
 299 442 l 2
292 109 m 2
 369 109 417 140 417 225 c 0
 417 302 374 338 288 338 c 2
 220 338 l 1
 220 109 l 1
 292 109 l 2
EndSplineSet
EndChar

StartChar: uni0412
Encoding: 1042 1042 442
Width: 615
Flags: W
LayerCount: 2
Fore
SplineSet
427 366 m 1
 505 351 584 314 584 201 c 0
 584 46 459 0 289 0 c 2
 73 0 l 1
 73 692 l 1
 262 692 l 2
 443 692 554 643 554 515 c 0
 554 428 491 381 427 366 c 1
276 586 m 2
 220 586 l 1
 220 411 l 1
 292 411 l 2
 362 411 404 440 404 502 c 0
 404 566 361 586 276 586 c 2
290 109 m 2
 372 109 431 125 431 207 c 0
 431 284 377 311 303 311 c 2
 220 311 l 1
 220 109 l 1
 290 109 l 2
EndSplineSet
EndChar

StartChar: uni0413
Encoding: 1043 1043 443
Width: 509
Flags: W
LayerCount: 2
Fore
SplineSet
506 692 m 1
 490 574 l 1
 220 574 l 1
 220 0 l 1
 73 0 l 1
 73 692 l 1
 506 692 l 1
EndSplineSet
EndChar

StartChar: uni0414
Encoding: 1044 1044 444
Width: 626
Flags: W
LayerCount: 2
Fore
SplineSet
545 114 m 1
 605 114 l 1
 605 -162 l 1
 500 -162 l 1
 483 0 l 1
 109 0 l 1
 92 -162 l 1
 -12 -162 l 1
 -12 114 l 1
 37 114 l 1
 82 163 96 234 128 479 c 2
 154 692 l 1
 545 692 l 1
 545 114 l 1
401 114 m 1
 401 582 l 1
 279 582 l 1
 269 488 l 2
 244 251 221 167 155 114 c 1
 401 114 l 1
EndSplineSet
EndChar

StartChar: uni0415
Encoding: 1045 1045 445
Width: 528
Flags: W
LayerCount: 2
Fore
SplineSet
486 692 m 1
 470 585 l 1
 220 585 l 1
 220 405 l 1
 438 405 l 1
 438 299 l 1
 220 299 l 1
 220 108 l 1
 488 108 l 1
 488 0 l 1
 73 0 l 1
 73 692 l 1
 486 692 l 1
EndSplineSet
EndChar

StartChar: uni0416
Encoding: 1046 1046 446
Width: 885
Flags: W
LayerCount: 2
Fore
SplineSet
871 692 m 1
 696 376 l 1
 889 0 l 1
 728 0 l 1
 577 308 l 1
 510 308 l 1
 510 0 l 1
 374 0 l 1
 374 308 l 1
 307 308 l 1
 153 0 l 1
 -4 0 l 1
 189 376 l 1
 14 692 l 1
 161 692 l 1
 310 415 l 1
 374 415 l 1
 374 692 l 1
 510 692 l 1
 510 415 l 1
 575 415 l 1
 725 692 l 1
 871 692 l 1
EndSplineSet
EndChar

StartChar: uni0417
Encoding: 1047 1047 447
Width: 536
Flags: W
LayerCount: 2
Fore
SplineSet
236 -16 m 0
 136 -16 58 18 1 81 c 1
 81 158 l 1
 123 118 167 95 226 95 c 0
 304 95 350 135 350 204 c 0
 350 271 307 311 220 311 c 2
 148 311 l 1
 166 419 l 1
 222 419 l 2
 291 419 332 454 332 512 c 0
 332 560 305 599 236 599 c 0
 187 599 139 580 91 541 c 1
 21 618 l 1
 85 677 162 708 254 708 c 0
 400 708 484 631 484 527 c 0
 484 446 432 389 334 368 c 1
 435 357 505 301 505 197 c 0
 505 67 394 -16 236 -16 c 0
EndSplineSet
EndChar

StartChar: uni0418
Encoding: 1048 1048 448
Width: 668
Flags: W
LayerCount: 2
Fore
SplineSet
595 692 m 1
 595 0 l 1
 450 0 l 1
 450 278 l 2
 450 396 461 485 471 544 c 1
 253 0 l 1
 73 0 l 1
 73 692 l 1
 218 692 l 1
 218 411 l 2
 218 285 207 214 197 149 c 1
 419 692 l 1
 595 692 l 1
EndSplineSet
EndChar

StartChar: uni0419
Encoding: 1049 1049 449
Width: 668
Flags: W
LayerCount: 2
Fore
SplineSet
334 752 m 0
 235 752 175 811 167 897 c 1
 248 912 l 1
 260 870 287 853 334 853 c 0
 380 853 408 870 421 912 c 1
 502 897 l 1
 494 811 433 752 334 752 c 0
595 692 m 1
 595 0 l 1
 450 0 l 1
 450 278 l 2
 450 396 461 485 471 544 c 1
 253 0 l 1
 73 0 l 1
 73 692 l 1
 218 692 l 1
 218 411 l 2
 218 285 207 214 197 149 c 1
 419 692 l 1
 595 692 l 1
EndSplineSet
EndChar

StartChar: uni041A
Encoding: 1050 1050 450
Width: 615
Flags: W
LayerCount: 2
Fore
SplineSet
598 692 m 1
 422 376 l 1
 617 0 l 1
 454 0 l 1
 298 306 l 1
 220 306 l 1
 220 0 l 1
 73 0 l 1
 73 692 l 1
 220 692 l 1
 220 416 l 1
 301 416 l 1
 452 692 l 1
 598 692 l 1
EndSplineSet
EndChar

StartChar: uni041B
Encoding: 1051 1051 451
Width: 656
Flags: W
LayerCount: 2
Fore
SplineSet
150 692 m 1
 583 692 l 1
 583 0 l 1
 436 0 l 1
 436 578 l 1
 274 578 l 1
 247 329 l 2
 221 99 181 18 40 -16 c 1
 5 89 l 1
 78 118 87 165 107 333 c 2
 150 692 l 1
EndSplineSet
EndChar

StartChar: uni041C
Encoding: 1052 1052 452
Width: 784
Flags: W
LayerCount: 2
Fore
SplineSet
691 692 m 1
 744 0 l 1
 600 0 l 1
 585 281 l 2
 579 380 576 484 579 563 c 1
 462 74 l 1
 323 74 l 1
 198 564 l 1
 204 467 203 375 198 278 c 2
 183 0 l 1
 40 0 l 1
 94 692 l 1
 281 692 l 1
 395 215 l 1
 502 692 l 1
 691 692 l 1
EndSplineSet
EndChar

StartChar: uni041D
Encoding: 1053 1053 453
Width: 669
Flags: W
LayerCount: 2
Fore
SplineSet
449 0 m 1
 449 303 l 1
 220 303 l 1
 220 0 l 1
 73 0 l 1
 73 692 l 1
 220 692 l 1
 220 419 l 1
 449 419 l 1
 449 692 l 1
 596 692 l 1
 596 0 l 1
 449 0 l 1
EndSplineSet
EndChar

StartChar: uni041E
Encoding: 1054 1054 454
Width: 691
Flags: W
LayerCount: 2
Fore
SplineSet
346 708 m 0
 536 708 653 578 653 346 c 0
 653 119 536 -16 346 -16 c 0
 156 -16 38 115 38 346 c 0
 38 572 156 708 346 708 c 0
346 598 m 0
 248 598 193 527 193 346 c 0
 193 165 250 94 346 94 c 0
 445 94 498 165 498 346 c 0
 498 527 445 598 346 598 c 0
EndSplineSet
EndChar

StartChar: uni041F
Encoding: 1055 1055 455
Width: 667
Flags: W
LayerCount: 2
Fore
SplineSet
593 692 m 1
 593 0 l 1
 446 0 l 1
 446 577 l 1
 220 577 l 1
 220 0 l 1
 73 0 l 1
 73 692 l 1
 593 692 l 1
EndSplineSet
EndChar

StartChar: uni0420
Encoding: 1056 1056 456
Width: 595
Flags: W
LayerCount: 2
Fore
SplineSet
287 692 m 2
 463 692 571 620 571 469 c 0
 571 309 457 236 299 236 c 2
 220 236 l 1
 220 0 l 1
 73 0 l 1
 73 692 l 1
 287 692 l 2
287 344 m 2
 368 344 419 375 419 469 c 0
 419 550 371 586 285 586 c 2
 220 586 l 1
 220 344 l 1
 287 344 l 2
EndSplineSet
EndChar

StartChar: uni0421
Encoding: 1057 1057 457
Width: 571
Flags: W
LayerCount: 2
Fore
SplineSet
346 708 m 0
 436 708 495 681 553 633 c 1
 480 548 l 1
 441 580 401 597 354 597 c 0
 261 597 193 527 193 347 c 0
 193 173 259 100 355 100 c 0
 412 100 453 125 493 156 c 1
 561 71 l 1
 517 26 444 -16 349 -16 c 0
 164 -16 38 111 38 347 c 0
 38 580 172 708 346 708 c 0
EndSplineSet
EndChar

StartChar: uni0422
Encoding: 1058 1058 458
Width: 534
Flags: W
LayerCount: 2
Fore
SplineSet
532 692 m 1
 516 577 l 1
 341 577 l 1
 341 0 l 1
 194 0 l 1
 194 577 l 1
 10 577 l 1
 10 692 l 1
 532 692 l 1
EndSplineSet
EndChar

StartChar: uni0423
Encoding: 1059 1059 459
Width: 568
Flags: W
LayerCount: 2
Fore
SplineSet
582 692 m 1
 394 202 l 2
 334 46 262 -1 113 -16 c 1
 93 84 l 1
 181 97 222 120 253 185 c 1
 205 185 l 1
 -9 692 l 1
 142 692 l 1
 297 269 l 1
 433 692 l 1
 582 692 l 1
EndSplineSet
EndChar

StartChar: uni0424
Encoding: 1060 1060 460
Width: 845
Flags: W
LayerCount: 2
Fore
SplineSet
819 350 m 0
 819 145 690 50 494 43 c 1
 494 -38 l 1
 351 -38 l 1
 351 44 l 1
 150 53 26 149 26 347 c 0
 26 552 155 647 351 654 c 1
 351 729 l 1
 494 729 l 1
 494 653 l 1
 695 644 819 548 819 350 c 0
488 137 m 1
 615 145 669 211 669 350 c 0
 669 488 612 553 488 560 c 1
 488 137 l 1
176 347 m 0
 176 209 233 144 357 137 c 1
 357 560 l 1
 230 552 176 486 176 347 c 0
EndSplineSet
EndChar

StartChar: uni0425
Encoding: 1061 1061 461
Width: 571
Flags: W
LayerCount: 2
Fore
SplineSet
371 373 m 1
 573 0 l 1
 411 0 l 1
 282 274 l 1
 155 0 l 1
 -2 0 l 1
 195 368 l 1
 14 692 l 1
 175 692 l 1
 284 461 l 1
 398 692 l 1
 554 692 l 1
 371 373 l 1
EndSplineSet
EndChar

StartChar: uni0426
Encoding: 1062 1062 462
Width: 681
Flags: W
LayerCount: 2
Fore
SplineSet
586 114 m 1
 666 114 l 1
 666 -162 l 1
 562 -162 l 1
 544 0 l 1
 73 0 l 1
 73 692 l 1
 220 692 l 1
 220 116 l 1
 438 116 l 1
 438 692 l 1
 586 692 l 1
 586 114 l 1
EndSplineSet
EndChar

StartChar: uni0427
Encoding: 1063 1063 463
Width: 617
Flags: W
LayerCount: 2
Fore
SplineSet
397 692 m 1
 544 692 l 1
 544 0 l 1
 397 0 l 1
 397 262 l 1
 349 224 302 207 237 207 c 0
 105 207 26 295 26 437 c 2
 26 692 l 1
 171 692 l 1
 171 440 l 2
 171 356 207 318 279 318 c 0
 334 318 370 336 397 362 c 1
 397 692 l 1
EndSplineSet
EndChar

StartChar: uni0428
Encoding: 1064 1064 464
Width: 913
Flags: W
LayerCount: 2
Fore
SplineSet
840 692 m 1
 840 0 l 1
 73 0 l 1
 73 692 l 1
 218 692 l 1
 218 116 l 1
 388 116 l 1
 388 692 l 1
 525 692 l 1
 525 116 l 1
 696 116 l 1
 696 692 l 1
 840 692 l 1
EndSplineSet
EndChar

StartChar: uni0429
Encoding: 1065 1065 465
Width: 935
Flags: W
LayerCount: 2
Fore
SplineSet
840 114 m 1
 920 114 l 1
 920 -162 l 1
 816 -162 l 1
 798 0 l 1
 73 0 l 1
 73 692 l 1
 218 692 l 1
 218 116 l 1
 388 116 l 1
 388 692 l 1
 525 692 l 1
 525 116 l 1
 696 116 l 1
 696 692 l 1
 840 692 l 1
 840 114 l 1
EndSplineSet
EndChar

StartChar: uni042A
Encoding: 1066 1066 466
Width: 710
Flags: W
LayerCount: 2
Fore
SplineSet
419 452 m 2
 589 452 692 381 692 232 c 0
 692 70 578 0 421 0 c 2
 194 0 l 1
 194 579 l 1
 10 579 l 1
 10 692 l 1
 341 692 l 1
 341 452 l 1
 419 452 l 2
412 109 m 2
 489 109 537 140 537 230 c 0
 537 311 494 347 409 347 c 2
 341 347 l 1
 341 109 l 1
 412 109 l 2
EndSplineSet
EndChar

StartChar: uni042B
Encoding: 1067 1067 467
Width: 843
Flags: W
LayerCount: 2
Fore
SplineSet
287 452 m 2
 459 452 561 381 561 232 c 0
 561 70 448 0 290 0 c 2
 73 0 l 1
 73 692 l 1
 220 692 l 1
 220 452 l 1
 287 452 l 2
622 692 m 1
 769 692 l 1
 769 0 l 1
 622 0 l 1
 622 692 l 1
282 109 m 2
 359 109 407 140 407 230 c 0
 407 311 364 347 277 347 c 2
 220 347 l 1
 220 109 l 1
 282 109 l 2
EndSplineSet
EndChar

StartChar: uni042C
Encoding: 1068 1068 468
Width: 589
Flags: W
LayerCount: 2
Fore
SplineSet
299 452 m 2
 469 452 571 381 571 232 c 0
 571 70 458 0 300 0 c 2
 73 0 l 1
 73 692 l 1
 220 692 l 1
 220 452 l 1
 299 452 l 2
292 109 m 2
 369 109 417 140 417 230 c 0
 417 311 374 347 288 347 c 2
 220 347 l 1
 220 109 l 1
 292 109 l 2
EndSplineSet
EndChar

StartChar: uni042D
Encoding: 1069 1069 469
Width: 540
Flags: W
LayerCount: 2
Fore
SplineSet
230 708 m 0
 394 708 502 599 502 352 c 0
 502 111 393 -16 217 -16 c 0
 122 -16 59 17 11 63 c 1
 78 146 l 1
 116 116 151 97 208 97 c 0
 296 97 346 160 351 302 c 1
 109 302 l 1
 109 408 l 1
 350 408 l 1
 343 548 293 598 221 598 c 0
 166 598 131 582 88 548 c 1
 17 631 l 1
 74 680 135 708 230 708 c 0
EndSplineSet
EndChar

StartChar: uni042E
Encoding: 1070 1070 470
Width: 924
Flags: W
LayerCount: 2
Fore
SplineSet
588 708 m 0
 774 708 885 578 885 346 c 0
 885 119 774 -16 588 -16 c 0
 413 -16 312 101 298 301 c 1
 220 301 l 1
 220 0 l 1
 73 0 l 1
 73 692 l 1
 220 692 l 1
 220 416 l 1
 300 416 l 1
 325 603 424 708 588 708 c 0
588 94 m 0
 681 94 731 165 731 346 c 0
 731 527 681 598 588 598 c 0
 497 598 445 527 445 343 c 0
 445 165 499 94 588 94 c 0
EndSplineSet
EndChar

StartChar: uni042F
Encoding: 1071 1071 471
Width: 607
Flags: W
LayerCount: 2
Fore
SplineSet
312 692 m 2
 534 692 l 1
 534 0 l 1
 387 0 l 1
 387 255 l 1
 291 255 l 1
 171 0 l 1
 9 0 l 1
 158 281 l 1
 76 315 33 378 33 472 c 0
 33 616 127 692 312 692 c 2
301 360 m 2
 387 360 l 1
 387 587 l 1
 320 587 l 2
 229 587 188 546 188 469 c 0
 188 396 235 360 301 360 c 2
EndSplineSet
EndChar

StartChar: uni0430
Encoding: 1072 1072 472
Width: 545
Flags: W
LayerCount: 2
Fore
SplineSet
473 147 m 2
 473 104 486 89 511 80 c 1
 481 -14 l 1
 421 -8 381 11 359 63 c 1
 321 6 263 -16 200 -16 c 0
 94 -16 28 52 28 148 c 0
 28 264 116 327 272 327 c 2
 333 327 l 1
 333 353 l 2
 333 419 305 440 239 440 c 0
 204 440 152 430 99 412 c 1
 66 507 l 1
 132 533 202 546 262 546 c 0
 409 546 473 481 473 361 c 2
 473 147 l 2
240 86 m 0
 280 86 312 107 333 145 c 1
 333 246 l 1
 287 246 l 2
 209 246 171 218 171 160 c 0
 171 113 195 86 240 86 c 0
EndSplineSet
EndChar

StartChar: uni0431
Encoding: 1073 1073 473
Width: 578
Flags: W
LayerCount: 2
Fore
SplineSet
345 494 m 0
 458 494 544 405 544 249 c 0
 544 83 445 -16 296 -16 c 0
 148 -16 45 78 45 296 c 0
 45 518 92 626 261 681 c 0
 342 707 378 723 435 757 c 1
 487 664 l 1
 442 635 396 613 318 589 c 0
 233 561 195 526 183 407 c 1
 219 461 272 494 345 494 c 0
295 90 m 0
 352 90 396 123 396 244 c 0
 396 355 363 388 307 388 c 0
 264 388 220 365 193 314 c 1
 193 247 l 2
 193 140 233 90 295 90 c 0
EndSplineSet
EndChar

StartChar: uni0432
Encoding: 1074 1074 474
Width: 557
Flags: W
LayerCount: 2
Fore
SplineSet
383 290 m 1
 476 280 519 235 519 162 c 0
 519 48 421 0 285 0 c 2
 68 0 l 1
 68 524 l 1
 139 538 204 546 269 546 c 0
 406 546 494 498 494 402 c 0
 494 343 457 303 383 290 c 1
267 452 m 0
 247 452 231 451 210 449 c 1
 210 321 l 1
 277 321 l 2
 323 321 353 340 353 387 c 0
 353 432 324 452 267 452 c 0
281 96 m 2
 335 96 372 115 372 172 c 0
 372 218 347 241 282 241 c 2
 210 241 l 1
 210 96 l 1
 281 96 l 2
EndSplineSet
EndChar

StartChar: uni0433
Encoding: 1075 1075 475
Width: 431
Flags: W
LayerCount: 2
Fore
SplineSet
210 0 m 1
 68 0 l 1
 68 530 l 1
 433 530 l 1
 416 421 l 1
 210 421 l 1
 210 0 l 1
EndSplineSet
EndChar

StartChar: uni0434
Encoding: 1076 1076 476
Width: 556
Flags: W
LayerCount: 2
Fore
SplineSet
483 106 m 1
 539 106 l 1
 539 -162 l 1
 438 -162 l 1
 421 0 l 1
 118 0 l 1
 101 -162 l 1
 0 -162 l 1
 0 106 l 1
 34 106 l 1
 67 129 90 158 105 346 c 2
 119 530 l 1
 483 530 l 1
 483 106 l 1
349 106 m 1
 349 433 l 1
 242 433 l 1
 236 360 l 2
 223 194 201 141 143 106 c 1
 349 106 l 1
EndSplineSet
EndChar

StartChar: uni0435
Encoding: 1077 1077 477
Width: 552
Flags: W
LayerCount: 2
Fore
SplineSet
518 277 m 0
 518 259 516 237 515 222 c 1
 184 222 l 1
 194 120 242 90 310 90 c 0
 355 90 393 104 439 136 c 1
 498 56 l 1
 446 14 380 -16 297 -16 c 0
 127 -16 38 96 38 262 c 0
 38 422 124 546 279 546 c 0
 429 546 518 446 518 277 c 0
377 311 m 1
 377 317 l 2
 377 397 350 449 282 449 c 0
 226 449 192 412 184 311 c 1
 377 311 l 1
EndSplineSet
EndChar

StartChar: uni0436
Encoding: 1078 1078 478
Width: 754
Flags: W
LayerCount: 2
Fore
SplineSet
729 530 m 1
 604 283 l 1
 743 0 l 1
 596 0 l 1
 493 230 l 1
 440 230 l 1
 440 0 l 1
 313 0 l 1
 313 230 l 1
 261 230 l 1
 156 0 l 1
 11 0 l 1
 149 283 l 1
 25 530 l 1
 161 530 l 1
 259 319 l 1
 313 319 l 1
 313 530 l 1
 440 530 l 1
 440 319 l 1
 495 319 l 1
 593 530 l 1
 729 530 l 1
EndSplineSet
EndChar

StartChar: uni0437
Encoding: 1079 1079 479
Width: 494
Flags: W
LayerCount: 2
Fore
SplineSet
230 546 m 0
 340 546 433 493 433 400 c 0
 433 340 396 302 319 283 c 1
 410 269 460 232 460 154 c 0
 460 39 357 -16 219 -16 c 0
 129 -16 60 8 6 49 c 1
 74 129 l 1
 121 99 159 87 214 87 c 0
 272 87 312 107 312 160 c 0
 312 209 272 226 209 226 c 2
 129 226 l 1
 138 321 l 1
 198 321 l 2
 253 321 289 342 289 387 c 0
 289 429 255 446 210 446 c 0
 160 446 126 432 89 408 c 1
 23 485 l 1
 80 525 145 546 230 546 c 0
EndSplineSet
EndChar

StartChar: uni0438
Encoding: 1080 1080 480
Width: 590
Flags: W
LayerCount: 2
Fore
SplineSet
521 530 m 1
 521 0 l 1
 386 0 l 1
 386 201 l 2
 386 285 396 357 405 390 c 1
 217 0 l 1
 68 0 l 1
 68 530 l 1
 205 530 l 1
 205 327 l 2
 205 249 195 173 186 140 c 1
 372 530 l 1
 521 530 l 1
EndSplineSet
EndChar

StartChar: uni0439
Encoding: 1081 1081 481
Width: 590
Flags: W
LayerCount: 2
Fore
SplineSet
295 635 m 0
 196 635 136 694 128 780 c 1
 209 795 l 1
 221 752 248 735 295 735 c 0
 341 735 369 752 382 795 c 1
 463 780 l 1
 455 694 394 635 295 635 c 0
521 530 m 1
 521 0 l 1
 386 0 l 1
 386 201 l 2
 386 285 396 357 405 390 c 1
 217 0 l 1
 68 0 l 1
 68 530 l 1
 205 530 l 1
 205 327 l 2
 205 249 195 173 186 140 c 1
 372 530 l 1
 521 530 l 1
EndSplineSet
EndChar

StartChar: uni043A
Encoding: 1082 1082 482
Width: 542
Flags: W
LayerCount: 2
Fore
SplineSet
525 530 m 1
 380 284 l 1
 539 0 l 1
 386 0 l 1
 263 232 l 1
 210 232 l 1
 210 0 l 1
 68 0 l 1
 68 530 l 1
 210 530 l 1
 210 322 l 1
 267 322 l 1
 386 530 l 1
 525 530 l 1
EndSplineSet
EndChar

StartChar: uni043B
Encoding: 1083 1083 483
Width: 570
Flags: W
LayerCount: 2
Fore
SplineSet
117 530 m 1
 502 530 l 1
 502 0 l 1
 360 0 l 1
 360 424 l 1
 243 424 l 1
 232 295 l 2
 214 88 195 22 54 -12 c 1
 20 92 l 1
 82 119 88 138 100 304 c 2
 117 530 l 1
EndSplineSet
EndChar

StartChar: uni043C
Encoding: 1084 1084 484
Width: 671
Flags: W
LayerCount: 2
Fore
SplineSet
588 530 m 1
 635 0 l 1
 500 0 l 1
 485 204 l 2
 481 270 482 326 486 404 c 1
 392 55 l 1
 271 55 l 1
 181 403 l 1
 186 333 186 270 183 205 c 2
 171 0 l 1
 36 0 l 1
 82 530 l 1
 252 530 l 1
 332 179 l 1
 417 530 l 1
 588 530 l 1
EndSplineSet
EndChar

StartChar: uni043D
Encoding: 1085 1085 485
Width: 585
Flags: W
LayerCount: 2
Fore
SplineSet
374 0 m 1
 374 216 l 1
 210 216 l 1
 210 0 l 1
 68 0 l 1
 68 530 l 1
 210 530 l 1
 210 323 l 1
 374 323 l 1
 374 530 l 1
 516 530 l 1
 516 0 l 1
 374 0 l 1
EndSplineSet
EndChar

StartChar: uni043E
Encoding: 1086 1086 486
Width: 584
Flags: W
LayerCount: 2
Fore
SplineSet
293 546 m 0
 451 546 546 441 546 265 c 0
 546 97 451 -16 292 -16 c 0
 134 -16 38 89 38 265 c 0
 38 434 133 546 293 546 c 0
293 440 m 0
 222 440 186 386 186 265 c 0
 186 143 222 90 292 90 c 0
 362 90 398 144 398 265 c 0
 398 387 362 440 293 440 c 0
EndSplineSet
EndChar

StartChar: uni043F
Encoding: 1087 1087 487
Width: 581
Flags: W
LayerCount: 2
Fore
SplineSet
371 0 m 1
 371 423 l 1
 210 423 l 1
 210 0 l 1
 68 0 l 1
 68 530 l 1
 513 530 l 1
 513 0 l 1
 371 0 l 1
EndSplineSet
EndChar

StartChar: uni0440
Encoding: 1088 1088 488
Width: 590
Flags: W
LayerCount: 2
Fore
SplineSet
354 546 m 0
 492 546 552 437 552 266 c 0
 552 104 474 -16 342 -16 c 0
 288 -16 243 3 210 41 c 1
 210 -204 l 1
 68 -220 l 1
 68 530 l 1
 193 530 l 1
 201 469 l 1
 243 523 300 546 354 546 c 0
300 90 m 0
 365 90 404 141 404 265 c 0
 404 398 369 441 311 441 c 0
 269 441 235 413 210 372 c 1
 210 142 l 1
 233 107 263 90 300 90 c 0
EndSplineSet
EndChar

StartChar: uni0441
Encoding: 1089 1089 489
Width: 478
Flags: W
LayerCount: 2
Fore
SplineSet
291 546 m 0
 362 546 417 525 467 482 c 1
 405 398 l 1
 371 424 340 436 301 436 c 0
 230 436 188 385 188 262 c 0
 188 139 233 98 300 98 c 0
 339 98 366 110 405 135 c 1
 467 46 l 1
 419 7 363 -16 293 -16 c 0
 135 -16 38 92 38 261 c 0
 38 429 136 546 291 546 c 0
EndSplineSet
EndChar

StartChar: uni0442
Encoding: 1090 1090 490
Width: 467
Flags: W
LayerCount: 2
Fore
SplineSet
472 530 m 1
 454 423 l 1
 304 423 l 1
 304 0 l 1
 162 0 l 1
 162 423 l 1
 3 423 l 1
 3 530 l 1
 472 530 l 1
EndSplineSet
EndChar

StartChar: uni0443
Encoding: 1091 1091 491
Width: 512
Flags: W
LayerCount: 2
Fore
SplineSet
514 530 m 1
 343 -1 l 2
 302 -130 219 -209 57 -220 c 1
 42 -118 l 1
 147 -104 183 -72 212 0 c 1
 163 0 l 1
 -2 530 l 1
 149 530 l 1
 255 92 l 1
 367 530 l 1
 514 530 l 1
EndSplineSet
EndChar

StartChar: uni0444
Encoding: 1092 1092 492
Width: 823
Flags: W
LayerCount: 2
Fore
SplineSet
603 546 m 0
 733 546 784 438 784 265 c 0
 784 93 713 -16 598 -16 c 0
 549 -16 509 5 478 44 c 1
 478 -204 l 1
 344 -220 l 1
 344 44 l 1
 313 5 270 -16 220 -16 c 0
 109 -16 38 93 38 265 c 0
 38 438 95 546 222 546 c 0
 268 546 309 531 344 493 c 1
 344 757 l 1
 478 741 l 1
 478 490 l 1
 513 531 555 546 603 546 c 0
262 88 m 0
 294 88 320 105 344 138 c 1
 344 394 l 1
 321 424 294 442 261 442 c 0
 211 442 184 393 184 265 c 0
 184 139 213 88 262 88 c 0
559 88 m 0
 609 88 639 139 639 265 c 0
 639 393 613 442 561 442 c 0
 527 442 501 423 478 393 c 1
 478 139 l 1
 500 106 524 88 559 88 c 0
EndSplineSet
EndChar

StartChar: uni0445
Encoding: 1093 1093 493
Width: 505
Flags: W
LayerCount: 2
Fore
SplineSet
338 284 m 1
 512 0 l 1
 349 0 l 1
 248 205 l 1
 149 0 l 1
 -7 0 l 1
 167 279 l 1
 11 530 l 1
 171 530 l 1
 254 354 l 1
 335 530 l 1
 487 530 l 1
 338 284 l 1
EndSplineSet
EndChar

StartChar: uni0446
Encoding: 1094 1094 494
Width: 592
Flags: W
LayerCount: 2
Fore
SplineSet
507 106 m 1
 589 106 l 1
 589 -162 l 1
 488 -162 l 1
 471 0 l 1
 68 0 l 1
 68 530 l 1
 210 530 l 1
 210 107 l 1
 365 107 l 1
 365 530 l 1
 507 530 l 1
 507 106 l 1
EndSplineSet
EndChar

StartChar: uni0447
Encoding: 1095 1095 495
Width: 549
Flags: W
LayerCount: 2
Fore
SplineSet
339 530 m 1
 481 530 l 1
 481 0 l 1
 339 0 l 1
 339 203 l 1
 301 172 246 152 189 152 c 0
 84 152 36 214 36 314 c 2
 36 530 l 1
 178 530 l 1
 178 332 l 2
 178 277 199 258 239 258 c 0
 274 258 315 273 339 296 c 1
 339 530 l 1
EndSplineSet
EndChar

StartChar: uni0448
Encoding: 1096 1096 496
Width: 782
Flags: W
LayerCount: 2
Fore
SplineSet
714 530 m 1
 714 0 l 1
 68 0 l 1
 68 530 l 1
 205 530 l 1
 205 106 l 1
 329 106 l 1
 329 530 l 1
 453 530 l 1
 453 106 l 1
 577 106 l 1
 577 530 l 1
 714 530 l 1
EndSplineSet
EndChar

StartChar: uni0449
Encoding: 1097 1097 497
Width: 798
Flags: W
LayerCount: 2
Fore
SplineSet
714 106 m 1
 795 106 l 1
 795 -162 l 1
 694 -162 l 1
 677 0 l 1
 68 0 l 1
 68 530 l 1
 205 530 l 1
 205 106 l 1
 329 106 l 1
 329 530 l 1
 453 530 l 1
 453 106 l 1
 577 106 l 1
 577 530 l 1
 714 530 l 1
 714 106 l 1
EndSplineSet
EndChar

StartChar: uni044A
Encoding: 1098 1098 498
Width: 612
Flags: W
LayerCount: 2
Fore
SplineSet
348 364 m 2
 521 364 591 297 591 182 c 0
 591 59 494 0 370 0 c 2
 161 0 l 1
 161 428 l 1
 3 428 l 1
 3 530 l 1
 304 530 l 1
 303 529 l 1
 303 364 l 1
 348 364 l 2
355 96 m 2
 411 96 445 122 445 184 c 0
 445 240 421 270 346 270 c 2
 303 270 l 1
 303 96 l 1
 355 96 l 2
EndSplineSet
EndChar

StartChar: uni044B
Encoding: 1099 1099 499
Width: 752
Flags: W
LayerCount: 2
Fore
SplineSet
246 364 m 2
 419 364 488 297 488 182 c 0
 488 59 392 0 268 0 c 2
 68 0 l 1
 68 530 l 1
 210 530 l 1
 210 364 l 1
 246 364 l 2
541 530 m 1
 683 530 l 1
 683 0 l 1
 541 0 l 1
 541 530 l 1
253 96 m 2
 309 96 343 122 343 184 c 0
 343 240 318 270 244 270 c 2
 210 270 l 1
 210 96 l 1
 253 96 l 2
EndSplineSet
EndChar

StartChar: uni044C
Encoding: 1100 1100 500
Width: 519
Flags: W
LayerCount: 2
Fore
SplineSet
256 364 m 2
 429 364 498 297 498 182 c 0
 498 59 402 0 278 0 c 2
 68 0 l 1
 68 530 l 1
 210 530 l 1
 210 364 l 1
 256 364 l 2
263 96 m 2
 319 96 353 122 353 184 c 0
 353 240 328 270 254 270 c 2
 210 270 l 1
 210 96 l 1
 263 96 l 2
EndSplineSet
EndChar

StartChar: uni044D
Encoding: 1101 1101 501
Width: 485
Flags: W
LayerCount: 2
Fore
SplineSet
214 546 m 0
 355 546 447 455 447 269 c 0
 447 95 359 -16 193 -16 c 0
 122 -16 64 6 16 44 c 1
 78 127 l 1
 115 101 145 90 188 90 c 0
 249 90 296 126 303 227 c 1
 107 227 l 1
 107 313 l 1
 302 313 l 1
 296 405 260 441 204 441 c 0
 162 441 128 431 90 405 c 1
 29 485 l 1
 79 524 138 546 214 546 c 0
EndSplineSet
EndChar

StartChar: uni044E
Encoding: 1102 1102 502
Width: 800
Flags: W
LayerCount: 2
Fore
SplineSet
521 546 m 0
 666 546 762 442 762 265 c 0
 762 102 670 -16 521 -16 c 0
 385 -16 302 75 286 219 c 1
 210 219 l 1
 210 0 l 1
 68 0 l 1
 68 530 l 1
 210 530 l 1
 210 320 l 1
 287 320 l 1
 306 454 387 546 521 546 c 0
521 90 m 0
 590 90 616 150 616 265 c 0
 616 382 585 439 521 439 c 0
 457 439 426 386 426 265 c 0
 426 148 457 90 521 90 c 0
EndSplineSet
EndChar

StartChar: uni044F
Encoding: 1103 1103 503
Width: 554
Flags: W
LayerCount: 2
Fore
SplineSet
289 530 m 2
 485 530 l 1
 485 0 l 1
 343 0 l 1
 343 189 l 1
 265 189 l 1
 164 0 l 1
 11 0 l 1
 135 222 l 1
 81 249 50 295 50 360 c 0
 50 472 135 530 289 530 c 2
285 277 m 2
 343 277 l 1
 343 436 l 1
 288 436 l 2
 226 436 196 409 196 359 c 0
 196 307 223 277 285 277 c 2
EndSplineSet
EndChar

StartChar: uni0450
Encoding: 1104 1104 504
Width: 552
Flags: W
LayerCount: 2
Fore
SplineSet
214 827 m 1
 427 699 l 1
 387 626 l 1
 157 718 l 1
 214 827 l 1
518 277 m 0
 518 259 516 237 515 222 c 1
 184 222 l 1
 194 120 242 90 310 90 c 0
 355 90 393 104 439 136 c 1
 498 56 l 1
 446 14 380 -16 297 -16 c 0
 127 -16 38 96 38 262 c 0
 38 422 124 546 279 546 c 0
 429 546 518 446 518 277 c 0
377 311 m 1
 377 317 l 2
 377 397 350 449 282 449 c 0
 226 449 192 412 184 311 c 1
 377 311 l 1
EndSplineSet
EndChar

StartChar: uni0451
Encoding: 1105 1105 505
Width: 552
Flags: W
LayerCount: 2
Fore
SplineSet
168 792 m 0
 211 792 243 759 243 718 c 0
 243 677 211 644 168 644 c 0
 126 644 93 677 93 718 c 0
 93 759 126 792 168 792 c 0
394 792 m 0
 437 792 470 759 470 718 c 0
 470 677 437 644 394 644 c 0
 353 644 320 677 320 718 c 0
 320 759 353 792 394 792 c 0
518 277 m 0
 518 259 516 237 515 222 c 1
 184 222 l 1
 194 120 242 90 310 90 c 0
 355 90 393 104 439 136 c 1
 498 56 l 1
 446 14 380 -16 297 -16 c 0
 127 -16 38 96 38 262 c 0
 38 422 124 546 279 546 c 0
 429 546 518 446 518 277 c 0
377 311 m 1
 377 317 l 2
 377 397 350 449 282 449 c 0
 226 449 192 412 184 311 c 1
 377 311 l 1
EndSplineSet
EndChar

StartChar: uni0452
Encoding: 1106 1106 506
Width: 583
Flags: W
LayerCount: 2
Fore
SplineSet
372 546 m 0
 465 546 521 486 521 386 c 2
 521 53 l 2
 521 -114 440 -172 318 -219 c 1
 272 -116 l 1
 340 -84 379 -56 379 44 c 2
 379 362 l 2
 379 423 355 440 320 440 c 0
 280 440 248 413 218 367 c 1
 218 0 l 1
 76 0 l 1
 76 598 l 1
 12 598 l 1
 12 685 l 1
 76 685 l 1
 76 741 l 1
 218 756 l 1
 218 685 l 1
 360 685 l 1
 360 598 l 1
 218 598 l 1
 218 469 l 1
 259 519 309 546 372 546 c 0
EndSplineSet
EndChar

StartChar: uni0453
Encoding: 1107 1107 507
Width: 431
Flags: W
LayerCount: 2
Fore
SplineSet
325 827 m 1
 381 718 l 1
 151 626 l 1
 111 699 l 1
 325 827 l 1
210 0 m 1
 68 0 l 1
 68 530 l 1
 433 530 l 1
 416 421 l 1
 210 421 l 1
 210 0 l 1
EndSplineSet
EndChar

StartChar: uni0454
Encoding: 1108 1108 508
Width: 485
Flags: W
LayerCount: 2
Fore
SplineSet
302 90 m 0
 338 90 369 101 408 130 c 1
 469 46 l 1
 420 6 363 -16 297 -16 c 0
 135 -16 38 92 38 262 c 0
 38 431 137 546 292 546 c 0
 362 546 420 525 469 482 c 1
 408 403 l 1
 370 432 337 441 301 441 c 0
 232 441 188 401 183 313 c 1
 380 313 l 1
 380 227 l 1
 182 227 l 1
 187 129 234 90 302 90 c 0
EndSplineSet
EndChar

StartChar: uni0455
Encoding: 1109 1109 509
Width: 477
Flags: W
LayerCount: 2
Fore
SplineSet
246 546 m 0
 323 546 388 522 438 482 c 1
 384 401 l 1
 341 428 298 443 252 443 c 0
 205 443 179 424 179 395 c 0
 179 364 197 350 290 323 c 0
 396 294 456 250 456 156 c 0
 456 46 353 -16 227 -16 c 0
 135 -16 61 15 11 61 c 1
 81 139 l 1
 121 108 170 87 223 87 c 0
 276 87 310 109 310 145 c 0
 310 185 291 198 193 225 c 0
 86 255 36 308 36 388 c 0
 36 478 118 546 246 546 c 0
EndSplineSet
EndChar

StartChar: uni0456
Encoding: 1110 1110 510
Width: 279
Flags: W
LayerCount: 2
Fore
SplineSet
139 803 m 0
 190 803 226 767 226 720 c 0
 226 673 190 637 139 637 c 0
 88 637 53 673 53 720 c 0
 53 767 88 803 139 803 c 0
210 530 m 1
 210 0 l 1
 68 0 l 1
 68 530 l 1
 210 530 l 1
EndSplineSet
EndChar

StartChar: uni0457
Encoding: 1111 1111 511
Width: 279
Flags: W
LayerCount: 2
Fore
SplineSet
25 792 m 0
 68 792 100 759 100 718 c 0
 100 677 68 644 25 644 c 0
 -17 644 -50 677 -50 718 c 0
 -50 759 -17 792 25 792 c 0
251 792 m 0
 294 792 327 759 327 718 c 0
 327 677 294 644 251 644 c 0
 210 644 177 677 177 718 c 0
 177 759 210 792 251 792 c 0
210 530 m 1
 210 0 l 1
 68 0 l 1
 68 530 l 1
 210 530 l 1
EndSplineSet
EndChar

